<?xml version="1.0" encoding="utf-8"?><svg id="anima_ico_1" image-rendering="optimizeQuality" baseProfile="basic" version="1.1" x="0px" y="0px" width="156" height="168" xmlns="http://www.w3.org/2000/svg" xmlns:xlink="http://www.w3.org/1999/xlink"><defs><g id="info" overflow="visible"><path fill="#9DB9D9" stroke="none" d="M69.5 28.65Q70.75 25.75 69.6 22.85 68.45 19.95 65.6 18.7L24.1 .65Q21.25 -.6 18.35 .55 15.45 1.7 14.2 4.55L.65 35.65Q-.6 38.55 .55 41.45 1.7 44.3 4.55 45.6L14 49.7Q14.4 49.85 14.55 50.25 14.7 50.65 14.5 51L10.95 59.2Q10.6 60 11.2 60.65 11.75 61.3 12.6 61.1L30.15 56.95Q30.5 56.85 30.8 57L46.05 63.65Q48.9 64.9 51.8 63.75 54.7 62.6 55.95 59.75L69.5 28.65Z"/><path fill="#ECF3FC" stroke="none" d="M39.45 31.1Q39.7 30.55 39.5 30.1 39.25 29.6 38.75 29.4L32.1 26.65Q31.6 26.4 31.15 26.65 30.65 26.85 30.45 27.35L29.25 30.15Q29.05 30.65 29.25 31.15 29.45 31.65 29.95 31.85L31.15 32.35 27.55 40.9 26.4 40.45Q25.9 40.25 25.4 40.4 24.9 40.6 24.7 41.1L23.5 43.95Q23.3 44.45 23.5 44.95 23.7 45.45 24.2 45.65L33.25 49.4Q33.75 49.6 34.25 49.4 34.75 49.2 34.95 48.7L36.1 45.85Q36.3 45.35 36.1 44.9 35.9 44.4 35.4 44.2L34.2 43.7 39.45 31.1M44.2 22.35Q44.95 20.55 44.25 18.8 43.5 17 41.7 16.25 39.95 15.55 38.15 16.25 36.4 17 35.65 18.75 34.95 20.55 35.65 22.35 36.4 24.1 38.15 24.85 39.95 25.55 41.7 24.85 43.5 24.1 44.2 22.35Z"/></g><g id="r3" overflow="visible"><path id="Layer4_0_1_STROKES" stroke="#9DB9D9" stroke-width="2" stroke-linejoin="round" stroke-linecap="round" fill="none" d="M3.8 0L0 8.85"/></g><g id="r4" overflow="visible"><path id="Layer5_0_1_STROKES" stroke="#9DB9D9" stroke-width="2" stroke-linejoin="round" stroke-linecap="round" fill="none" d="M0 0L3.55 8.95"/></g><g id="r5" overflow="visible"><path id="Layer6_0_1_STROKES" stroke="#9DB9D9" stroke-width="2" stroke-linejoin="round" stroke-linecap="round" fill="none" d="M0 0L8.85 3.8"/></g></defs><g id="Scene-1" overflow="visible"><g display="none"><g id="Tween-5" transform="translate(83.15 21.8)" opacity="0"><animate attributeName="opacity" repeatCount="indefinite" dur="8.333s" keyTimes="0;.876;.936;1" values="1;1;0;0"/><use xlink:href="#r3" transform="translate(8.9 -6.1)"/><use xlink:href="#r4" transform="matrix(.994 .109 -.109 .994 -.9 -6.55)"/><use xlink:href="#r5" transform="translate(-12.65 2.75)"/></g><animate attributeName="display" repeatCount="indefinite" dur="8.333s" keyTimes="0;.36;.94;1" values="none;inline;none;none"/></g><g display="none"><g id="Tween-4" transform="translate(83.15 21.8)"><use xlink:href="#r3" transform="translate(8.9 -6.1)" opacity="0"/><use xlink:href="#r4" transform="matrix(.994 .109 -.109 .994 -.9 -6.55)"/><use xlink:href="#r5" transform="translate(-12.65 2.75)"/></g><animate attributeName="display" repeatCount="indefinite" dur="8.333s" keyTimes="0;.336;.36;1" values="none;inline;none;none"/></g><g display="none"><g id="Tween-3" transform="translate(83.15 21.8)"><use xlink:href="#r3" transform="translate(8.9 -6.1)" opacity="0"/><use xlink:href="#r4" transform="matrix(.994 .109 -.109 .994 -.9 -6.55)" opacity="0"/><use xlink:href="#r5" transform="translate(-12.65 2.75)"/></g><animate attributeName="display" repeatCount="indefinite" dur="8.333s" keyTimes="0;.312;.336;1" values="none;inline;none;none"/></g><g display="none"><g id="Tween-2" transform="translate(83.15 21.8)"><use xlink:href="#r3" transform="translate(8.9 -6.1)" opacity="0"/><use xlink:href="#r4" transform="matrix(.994 .109 -.109 .994 -.9 -6.55)" opacity="0"/><use xlink:href="#r5" transform="translate(-12.65 2.75)" opacity="0"/></g><animate attributeName="display" repeatCount="indefinite" dur="8.333s" keyTimes="0;.276;.312;1" values="none;inline;none;none"/></g><g id="brazo" transform="matrix(-.173 .985 -.985 -.173 153.1 101.8)" opacity="0"><animateTransform attributeName="transform" additive="replace" type="translate" repeatCount="indefinite" dur="8.333s" keyTimes="0;.064;.1;.12;.14;.16;.196;.936;.996;1" values="95.815,118.29;41.9,101.95;41.9,101.95;33.85,85;41.9,101.95;33.85,85;41.9,101.95;41.9,101.95;95.815,118.29;95.815,118.29"/><animateTransform attributeName="transform" additive="sum" type="rotate" repeatCount="indefinite" dur="8.333s" keyTimes="0;.064;.936;.996;1" values="99.939,0,0;0,0,0;0,0,0;99.939,0,0;99.939,0,0"/><animateTransform attributeName="transform" additive="sum" type="scale" repeatCount="indefinite" dur="8.333s" keyTimes="0;.064;.936;.996;1" values="1,.999;1,1;1,1;1,.999;1,.999"/><animateTransform attributeName="transform" additive="sum" type="translate" repeatCount="indefinite" dur="8.333s" keyTimes="0;.064;.936;.996;1" values="-26.15,-53.55;-26.05,-53.7;-26.05,-53.7;-26.15,-53.55;-26.15,-53.55"/><animate attributeName="opacity" repeatCount="indefinite" dur="8.333s" keyTimes="0;.064;.936;.996;1" values="0;1;1;0;0"/><path fill="#9DB9D9" stroke="none" d="M46.55 48.2Q48.8 39.85 46.45 34.1 44 28.05 36.55 25.55 35.1 23.1 32.55 21.8 29.25 20.05 25.45 21.2 23.55 19.3 20.9 19.1 18.2 18.9 15.5 20.9L10.75 4.2Q10.3 2.6 9.15 1.5 8 .4 6.5 .1 4.4 -.3 2.55 .95 1 2 .4 3.8 -.25 5.65 .2 7.55L6.15 31.35 6.2 32.4 6.25 32.55Q6.35 34.9 5.9 37.35 5.45 40.15 4.4 42.65L3.85 43.75Q2.95 45.55 2.8 46.6 2.4 49.55 5.4 53.4 6.2 54.45 8.9 57.05 11.3 59.35 12.25 60.5 13.9 62.5 14.35 64.3L16.85 75.4 16.75 75.4Q15.95 75.65 15.55 76.35 15.1 77.05 15.3 77.85L19.7 95.05Q21.4 101.7 27.25 105.15 31.15 107.45 35.6 107.45 37.75 107.45 39.75 106.95 46.3 105.25 49.8 99.4 53.25 93.5 51.55 86.95L47.2 69.65Q46.95 68.85 46.25 68.45 45.6 68.05 44.75 68.2L44.2 68.35 42.1 59.1Q45.15 53.5 46.55 48.2M44.6 34.85Q46.75 40.15 44.45 48.3 43 53.25 40.35 58.15 40 58.85 40.15 59.55L42.3 68.85 18.8 74.9 16.3 63.8Q15.75 61.65 13.95 59.4 12.85 58.05 10.25 55.6 7.85 53.3 6.95 52.15 4.45 48.95 4.8 46.85 4.9 46.1 5.65 44.7 6.1 43.85 6.25 43.4 7.35 40.75 7.9 37.7 8.25 35.4 8.25 32.95 14.3 29.75 18.75 30.25 20.95 30.5 22 31.45L22.3 31.65Q22 34.4 22.1 36.75 21.75 36.85 21.65 37 20.65 38.2 19.05 38.8 15.95 39.9 12.6 37.4 12.25 37.15 11.85 37.2 11.45 37.25 11.2 37.6 10.95 37.95 11 38.35 11.05 38.75 11.4 39 13.95 40.95 16.5 41.1 15.1 44.7 11.5 47.25 11.15 47.5 11.1 47.9 11.05 48.3 11.3 48.65 11.6 49.05 12.1 49.05 12.45 49.05 12.7 48.85 17.2 45.65 18.7 40.95 20.6 40.5 22.25 39.2L22.35 39.75Q22.65 41.95 24.35 43.4 26 44.85 28.2 44.85L28.9 44.8Q30.55 44.6 31.65 44.15L31.95 44.8Q33 46.7 34.65 47.1L35.15 47.1Q37.7 47.1 39.25 45.55 41.6 43.1 41.15 37.55 41.1 37.15 40.8 36.9 40.5 36.6 40.1 36.65 39.7 36.7 39.4 37 39.1 37.3 39.15 37.7 39.55 42.35 37.8 44.15 36.85 45.2 34.95 45.1 34.2 44.85 33.65 43.75 32.8 42.05 33.1 38.9 33.5 34.4 36.3 27.6 42.5 29.8 44.6 34.85M25.9 23.5L25.95 23.15Q29.1 22.15 31.75 23.6 33.5 24.6 34.65 26.3 30.3 36.7 31.15 42.25 29.75 42.7 28.65 42.85 27.1 43.05 25.8 42.05 24.55 41.05 24.3 39.45 23.4 32.9 25.9 23.5M24.15 22.65L24 22.95Q23.1 26.35 22.6 29.4 19.25 27.4 14.05 28.55 14.5 25.85 15.75 23.3 18.35 20.95 20.75 21.1 22.55 21.2 24.15 22.65M6.15 2.1Q7.1 2.3 7.8 3 8.55 3.75 8.85 4.75L13.9 22.55Q12.4 25.6 11.95 29.15 10.15 29.75 8.05 30.8L2.15 7.05Q1.8 5.8 2.25 4.55 2.7 3.3 3.7 2.6 4.55 2 5.5 2L6.15 2.1M21.65 94.55L17.25 77.35 45.25 70.15 49.65 87.45Q51.1 93.2 48.05 98.35 45 103.5 39.25 105 33.45 106.45 28.25 103.45 23.1 100.35 21.65 94.55Z"/></g><g display="none"><use xlink:href="#info" transform="translate(68.75 30.15)" opacity="0"><animateTransform attributeName="transform" additive="replace" type="translate" repeatCount="indefinite" dur="8.333s" keyTimes="0;.196;.236;.276;1" values="103.8,62.3;103.8,62.3;103.91,62.399;103.8,62.3;103.8,62.3"/><animateTransform attributeName="transform" additive="sum" type="scale" repeatCount="indefinite" dur="8.333s" keyTimes="0;.196;.236;.276;1" values="1,1;1,1;1.228,1.228;1,1;1,1"/><animateTransform attributeName="transform" additive="sum" type="translate" repeatCount="indefinite" dur="8.333s" keyTimes="0;.196;.236;.276;1" values="-35.05,-32.15;-35.05,-32.15;-35.15,-32.25;-35.05,-32.15;-35.05,-32.15"/><animate attributeName="opacity" repeatCount="indefinite" dur="8.333s" keyTimes="0;.196;.236;.876;.936;1" values="0;0;1;1;0;0"/></use><animate attributeName="display" repeatCount="indefinite" dur="8.333s" keyTimes="0;.196;.94;1" values="none;inline;none;none"/></g><g display="none"><use xlink:href="#info" transform="matrix(1.453 0 0 1.453 52.9 15.65)" opacity="0"><animateTransform attributeName="transform" additive="replace" type="translate" repeatCount="indefinite" dur="8.333s" keyTimes="0;.4;.468;.57999;.58;.648;.76399;.764;.832;1" values="103.8,62.3;103.8,62.3;103.834,62.444;103.834,62.444;103.8,62.3;103.834,62.444;103.834,62.444;103.8,62.3;103.834,62.444;103.834,62.444"/><animateTransform attributeName="transform" additive="sum" type="scale" repeatCount="indefinite" dur="8.333s" keyTimes="0;.4;.468;.57999;.58;.648;.76399;.764;.832;1" values="1,1;1,1;1.453,1.453;1.453,1.453;1,1;1.453,1.453;1.453,1.453;1,1;1.453,1.453;1.453,1.453"/><animateTransform attributeName="transform" additive="sum" type="translate" repeatCount="indefinite" dur="8.333s" keyTimes="0;.4;.468;.57999;.58;.648;.76399;.764;.832;1" values="-35.05,-32.15;-35.05,-32.15;-35.1,-32.25;-35.1,-32.25;-35.05,-32.15;-35.1,-32.25;-35.1,-32.25;-35.05,-32.15;-35.1,-32.25;-35.1,-32.25"/><animate attributeName="opacity" repeatCount="indefinite" dur="8.333s" keyTimes="0;.4;.468;.57999;.58;.648;.76399;.764;.832;1" values="1;1;0;0;1;0;0;1;0;0"/></use><animate attributeName="display" repeatCount="indefinite" dur="8.333s" keyTimes="0;.4;.836;1" values="none;inline;none;none"/></g></g></svg>