<?xml version="1.0" encoding="utf-8"?>
<!-- Generator: Adobe Illustrator 23.0.6, SVG Export Plug-In . SVG Version: 6.00 Build 0)  -->
<svg version="1.1" id="Layer_1" xmlns="http://www.w3.org/2000/svg" xmlns:xlink="http://www.w3.org/1999/xlink" x="0px" y="0px"
	 viewBox="0 0 151 151" style="enable-background:new 0 0 151 151;" xml:space="preserve">
<style type="text/css">
	.st0{fill:#EBF3FC;}
	.st1{fill:#99C5F1;}
	.st2{fill:#006EDC;}
	.st3{fill:#C2DCF7;}
	.st4{fill:#66FFFF;}
	.st5{fill:#00C8C8;}
	.st6{display:none;}
	.st7{display:inline;}
	.st8{fill:#FFD796;}
	.st9{fill:#FFBC50;}
	.st10{fill:#FF9628;}
	.st11{fill:#FF7B8B;}
	.st12{fill:#FF5A6E;}
	.st13{fill:#AB5BD3;}
	.st14{fill:#9632C8;}
	.st15{fill:#FFB4B4;}
</style>
<g>
	<g>
		<g>
			<g>
				<rect x="2" y="1.9" class="st0" width="147" height="122.5"/>
				<path class="st1" d="M147.5,3.4v119.5H3.5V3.4H147.5 M150.5,0.4H0.5v150h150V0.4L150.5,0.4z"/>
			</g>
		</g>
		<g>
			<g>
				<rect x="13" y="13.3" class="st1" width="28.9" height="3"/>
			</g>
			<g>
				<rect x="71.7" y="13.3" class="st1" width="66.4" height="3"/>
			</g>
			<g>
				<rect x="50.9" y="13.3" class="st1" width="12.4" height="3"/>
			</g>
		</g>
		<g>
			<g>
				<rect x="109.2" y="110.1" class="st1" width="28.9" height="3"/>
			</g>
			<g>
				<rect x="13" y="110.1" class="st1" width="66.4" height="3"/>
			</g>
			<g>
				<rect x="87.7" y="110.1" class="st1" width="12.4" height="3"/>
			</g>
		</g>
	</g>
	<g>
		<g>
			<g>
				<path class="st1" d="M69.9,70h11.3l0-16.9c0-3.1-2.5-5.6-5.6-5.6h0c-3.1,0-5.6,2.5-5.6,5.6L69.9,70z"/>
				<path class="st2" d="M82.6,71.5H68.4l0-18.4c0-3.9,3.2-7.1,7.1-7.1c3.9,0,7.1,3.2,7.1,7.1V71.5z M71.4,68.5h8.3V53.1
					c0-2.3-1.9-4.1-4.1-4.1c-2.3,0-4.1,1.9-4.1,4.1L71.4,68.5z"/>
			</g>
			<g>
				<path class="st3" d="M47.7,47.5L37.4,63c0,0,5.7-6.8,15.4-6c0,0,11.5,0.3,16,12.4L69,47.5c0-5.3-4.3-9.7-9.6-9.7h0
					c-3.2,0-6.2,1.6-8,4.3"/>
				<path class="st2" d="M70.2,77.6l-2.8-7.7c-4.1-11.1-14.5-11.5-14.6-11.5c-8.8-0.7-14,5.3-14.3,5.5l-2.4-1.8l10.4-15.5l2.5,1.7
					l-5.9,8.8c2.6-1.2,5.9-2,9.8-1.7c0,0,0,0,0,0c0.1,0,8.8,0.3,14.5,8l0.1-16c0-2.2-0.8-4.2-2.4-5.8c-1.5-1.6-3.6-2.4-5.8-2.4
					c-2.7,0-5.2,1.3-6.8,3.6l-2.5-1.7c2.1-3.1,5.5-4.9,9.2-4.9c3,0,5.8,1.2,7.9,3.3c2.1,2.1,3.2,4.9,3.2,7.9L70.2,77.6z"/>
			</g>
			<g>
				<path class="st1" d="M55.6,38.5l3-4.5c0.9-1.4,2.5-2.2,4.2-2.2h0c2.8,0,5.1,2.3,5,5.1l-0.1,5.7c0,0-2-3.8-6.3-4.6
					C61.4,38,58.3,37.3,55.6,38.5z"/>
				<path class="st2" d="M69.1,48.4l-2.7-5.1c0,0-1.8-3.1-5.3-3.8c0,0-2.8-0.6-4.9,0.4l-4.9,2.3l6-9c1.2-1.8,3.2-2.9,5.4-2.9
					c1.8,0,3.4,0.7,4.7,2c1.2,1.3,1.9,2.9,1.9,4.7L69.1,48.4z M59.3,36.3c1.4,0,2.4,0.2,2.4,0.2c1.9,0.4,3.4,1.2,4.5,2.2l0-1.8
					c0-1-0.3-1.9-1-2.5c-0.7-0.7-1.6-1.1-2.5-1.1c-1.2,0-2.3,0.6-2.9,1.6l-1,1.4C59.1,36.3,59.2,36.3,59.3,36.3z"/>
			</g>
			<g>
				<path class="st3" d="M82.2,69.4L82,47.5c0-5.3,4.3-9.7,9.6-9.7h0c3.2,0,6.2,1.6,8,4.3l14,21c0,0-5.7-6.8-15.4-6
					C98.2,57,86.7,57.2,82.2,69.4z"/>
				<path class="st2" d="M80.8,77.6l-0.3-30.1c0-3,1.1-5.8,3.2-7.9c2.1-2.1,4.9-3.3,7.9-3.3c3.7,0,7.2,1.8,9.2,4.9l14,21l-2.4,1.8
					c-0.2-0.3-5.4-6.2-14.2-5.5c-0.5,0-10.7,0.4-14.7,11.5L80.8,77.6z M91.6,39.3c-2.2,0-4.2,0.9-5.8,2.4c-1.5,1.6-2.4,3.6-2.4,5.8
					l0.1,16c5.7-7.7,14.4-8,14.5-8c3.9-0.3,7.1,0.5,9.7,1.7l-9.5-14.2C96.9,40.6,94.3,39.3,91.6,39.3z"/>
			</g>
			<g>
				<path class="st1" d="M95.4,38.5l-3-4.5c-0.9-1.4-2.5-2.2-4.2-2.2h0c-2.8,0-5.1,2.3-5,5.1l0.1,5.7c0,0,2-3.8,6.3-4.6
					C89.6,38,92.7,37.3,95.4,38.5z"/>
				<path class="st2" d="M81.9,48.3L81.7,37c0-1.8,0.6-3.4,1.9-4.7c1.2-1.3,2.9-2,4.7-2c2.2,0,4.2,1.1,5.4,2.9l6,9l-4.9-2.3
					c-2.1-1-4.8-0.4-4.8-0.4c-3.5,0.7-5.3,3.8-5.3,3.9L81.9,48.3z M88.2,33.3c-1,0-1.8,0.4-2.5,1.1c-0.7,0.7-1,1.6-1,2.5l0,1.8
					c1.1-0.9,2.7-1.8,4.6-2.2c0.1,0,1.2-0.3,2.8-0.2l-1-1.4C90.4,33.9,89.3,33.3,88.2,33.3z"/>
			</g>
			<g>
				<circle class="st4" cx="51.2" cy="75.6" r="18.7"/>
				<path class="st5" d="M51.2,95.8C40.1,95.8,31,86.7,31,75.6c0-11.1,9.1-20.2,20.2-20.2c11.1,0,20.2,9.1,20.2,20.2
					C71.4,86.7,62.3,95.8,51.2,95.8z M51.2,58.4c-9.5,0-17.2,7.7-17.2,17.2s7.7,17.2,17.2,17.2c9.5,0,17.2-7.7,17.2-17.2
					S60.6,58.4,51.2,58.4z"/>
			</g>
			<g>
				<path class="st5" d="M51.2,85.6c-5.5,0-10-4.5-10-10s4.5-10,10-10v3c-3.9,0-7,3.1-7,7s3.1,7,7,7c3.7,0,6.8-2.9,7-6.6l3,0.2
					C60.9,81.4,56.5,85.6,51.2,85.6z"/>
			</g>
			<g>
				<circle class="st4" cx="99.8" cy="75.6" r="18.7"/>
				<path class="st5" d="M99.8,95.8c-11.1,0-20.2-9.1-20.2-20.2c0-11.1,9.1-20.2,20.2-20.2S120,64.5,120,75.6
					C120,86.7,110.9,95.8,99.8,95.8z M99.8,58.4c-9.5,0-17.2,7.7-17.2,17.2s7.7,17.2,17.2,17.2S117,85.1,117,75.6
					S109.3,58.4,99.8,58.4z"/>
			</g>
			<g>
				<path class="st5" d="M99.8,85.6c-5.5,0-10-4.5-10-10s4.5-10,10-10v3c-3.8,0-7,3.1-7,7s3.1,7,7,7c3.7,0,6.8-2.9,7-6.6l3,0.2
					C109.5,81.4,105.1,85.6,99.8,85.6z"/>
			</g>
		</g>
	</g>
</g>
<g id="Layer_3" class="st6">
	<g class="st7">
		<g>
			<polyline class="st1" points="150.5,123.9 150.5,150.4 0.5,150.4 0.5,123.9 			"/>
			<g>
				<rect x="2" y="1.9" class="st0" width="147" height="122.5"/>
				<path class="st1" d="M147.5,3.4v119.5H3.5V3.4H147.5 M150.5,0.4H0.5v150h150V0.4L150.5,0.4z"/>
			</g>
		</g>
		<g>
			<g>
				<rect x="13" y="13.3" class="st1" width="28.9" height="3"/>
			</g>
			<g>
				<rect x="71.7" y="13.3" class="st1" width="66.4" height="3"/>
			</g>
			<g>
				<rect x="50.9" y="13.3" class="st1" width="12.4" height="3"/>
			</g>
		</g>
		<g>
			<g>
				<rect x="122.7" y="110.1" class="st1" width="15.4" height="3"/>
			</g>
			<g>
				<rect x="13" y="110.1" class="st1" width="35.2" height="3"/>
			</g>
			<g>
				<rect x="100.9" y="110.1" class="st1" width="13.4" height="3"/>
			</g>
		</g>
		<g>
			<g>
				<g>
					<path class="st8" d="M41.3,54.1l-17-14.6c-0.5-0.4-0.2-1.1,0.4-1.2L47,35.7c0.1,0,0.1,0.1,0.1,0.1L41.5,54
						C41.5,54.1,41.4,54.1,41.3,54.1z"/>
					<path class="st9" d="M41.4,55.6c-0.4,0-0.8-0.1-1-0.4l-17-14.6c-0.7-0.6-0.9-1.5-0.7-2.3s1-1.4,1.8-1.5l23.1-2.7l0.6,0.7
						c0.3,0.4,0.5,1,0.3,1.5l-5.8,19l-0.8,0.3C41.7,55.6,41.5,55.6,41.4,55.6z M26.7,39.6l14,12L45,37.4L26.7,39.6z"/>
				</g>
				<g>
					<path class="st9" d="M116.5,56.9l3.3,1c5.1,1.6,8,7,6.4,12.1l0,0c-1.6,5.1-7,8-12.1,6.4L41.5,54.2l-0.1-0.1L47,35.8l0.1-0.1
						l31.3,9.5L116.5,56.9z"/>
					<path class="st10" d="M117,78.3c-1.1,0-2.2-0.2-3.3-0.5L40.5,55.5l-0.3-0.6C40,54.5,39.9,54,40,53.6l5.8-18.9l0.6-0.3
						c0.4-0.2,0.8-0.3,1.2-0.1l72.6,22.2c5.9,1.8,9.2,8.1,7.4,13.9C126.2,75.2,121.8,78.3,117,78.3z M43.3,53.2L114.6,75
						c4.3,1.3,8.9-1.1,10.2-5.4c1.3-4.3-1.1-8.9-5.4-10.2L48.1,37.6L43.3,53.2z M48.5,36.2L48.5,36.2L48.5,36.2z"/>
				</g>
				<g>
					<path class="st11" d="M130.3,71.2L130.3,71.2c1.6-5.1-1.3-10.5-6.4-12.1l-8.6-2.6L109.6,75l8.6,2.6
						C123.3,79.2,128.7,76.3,130.3,71.2z"/>
					<path class="st12" d="M121,79.5c-1.1,0-2.2-0.2-3.3-0.5l-10-3.1l6.5-21.4l10,3.1c2.8,0.9,5.2,2.8,6.6,5.4
						c1.4,2.6,1.7,5.6,0.8,8.5c-0.9,2.8-2.8,5.2-5.4,6.6C124.6,79.1,122.8,79.5,121,79.5z M111.5,74l7.2,2.2
						c2.1,0.6,4.3,0.4,6.2-0.6c1.9-1,3.3-2.7,4-4.8l0,0c0.6-2.1,0.4-4.3-0.6-6.2c-1-1.9-2.7-3.3-4.8-4l-7.2-2.2L111.5,74z"/>
				</g>
				<g>
					<g>
						<path class="st0" d="M63,92.1l-0.3-10.8c0-0.5-0.3-0.9-0.7-1.2c-0.3-0.2-7.1-5-5.9-18.4l6.1,1.8c0.1,0,0.3,0.1,0.4,0.1
							c0.3,0,0.5-0.1,0.7-0.2c0.4-0.2,0.6-0.5,0.7-0.9l1-3.8v-0.1c0.1-0.5,4.2-16.9,6.4-25.5c0.4-1.3,1.6-2.3,3.1-2.3
							c0.3,0,0.6,0,0.8,0.1c1.7,0.5,2.7,2.2,2.2,3.9l-0.7,2.5c-0.2,0.7,0.1,1.4,0.8,1.8c0.2,0.1,0.4,0.2,0.7,0.2
							c0.5,0,0.9-0.2,1.2-0.6c0.6-0.8,1.6-1.3,2.6-1.3c0.3,0,0.6,0,0.8,0.1c0.8,0.2,1.5,0.8,1.9,1.5s0.5,1.6,0.3,2.4L84.7,43
							c-0.2,0.7,0.1,1.4,0.8,1.8c0.2,0.1,0.4,0.2,0.7,0.2c0.5,0,0.9-0.2,1.2-0.6C88,43.5,88.9,43,90,43c0.3,0,0.6,0,0.8,0.1
							c0.8,0.2,1.5,0.8,1.9,1.5s0.5,1.6,0.3,2.4l-0.3,0.9c-0.2,0.7,0.1,1.4,0.8,1.7c0.2,0.1,0.4,0.2,0.7,0.2c0.4,0,0.9-0.2,1.2-0.6
							C96,48.4,97,48,97.9,48c0.3,0,0.6,0,0.8,0.1c1.7,0.5,2.7,2.2,2.2,3.9l-6.2,22.1c0,0.1-0.1,0.2-0.1,0.3c0,0.1-0.1,0.2-0.1,0.3
							c0,0.2-1,5-5.8,7.3c-0.5,0.3-0.9,0.8-0.9,1.3V92L63,92.1L63,92.1z"/>
						<path class="st1" d="M74.5,32.3L74.5,32.3c0.2,0,0.3,0,0.4,0.1c0.9,0.2,1.4,1.2,1.2,2.1L75.4,37c-0.4,1.4,0.3,2.8,1.6,3.5
							c0.4,0.2,0.9,0.3,1.3,0.3c0.9,0,1.8-0.4,2.4-1.2c0.3-0.4,0.8-0.7,1.4-0.7c0.2,0,0.3,0,0.4,0.1c0.9,0.2,1.4,1.2,1.2,2.1
							l-0.4,1.6c-0.4,1.4,0.3,2.9,1.6,3.5c0.4,0.2,0.9,0.3,1.3,0.3c0.9,0,1.8-0.4,2.4-1.2c0.3-0.4,0.8-0.7,1.4-0.7
							c0.2,0,0.3,0,0.4,0.1c0.4,0.1,0.8,0.4,1,0.8c0.2,0.4,0.3,0.8,0.2,1.3l-0.3,0.9c-0.4,1.4,0.3,2.8,1.5,3.5
							c0.4,0.2,0.9,0.3,1.3,0.3c0.9,0,1.8-0.4,2.4-1.2c0.3-0.4,0.8-0.7,1.3-0.7c0.2,0,0.3,0,0.4,0.1c0.9,0.2,1.4,1.2,1.2,2.1
							l-6.2,22.1c0,0.1,0,0.1-0.1,0.2c-0.1,0.2-0.1,0.3-0.2,0.5c0,0.2-0.9,4.3-5,6.2c-1.1,0.5-1.7,1.6-1.7,2.7v7.2H64.4l-0.2-9.3
							c0-1-0.5-1.9-1.3-2.4c-0.1,0-5.7-4.1-5.4-15.2l4.3,1.3c0.3,0.1,0.6,0.1,0.9,0.1c0.5,0,1-0.1,1.5-0.4c0.7-0.4,1.2-1.1,1.4-1.9
							l1-3.8V59c0.2-0.9,4.7-18.6,6.4-25.5C73.1,32.8,73.8,32.3,74.5,32.3 M74.5,29.3c-2.1,0-3.9,1.4-4.5,3.4c0,0-6.4,25.4-6.4,25.6
							l-1,3.8l-7.8-2.4c-2.2,16,6.4,21.6,6.4,21.6l0.3,12.3h28V83.4c5.6-2.7,6.6-8.4,6.6-8.4l0,0c0.1-0.2,0.1-0.3,0.2-0.5l6.2-22.1
							c0.7-2.5-0.8-5.1-3.3-5.8l0,0c-0.4-0.1-0.8-0.2-1.3-0.2c-1.4,0-2.8,0.7-3.7,1.8l0.3-0.9c0.7-2.5-0.8-5.1-3.3-5.8
							c-0.4-0.1-0.8-0.2-1.2-0.2c-1.5,0-2.9,0.7-3.8,2l0.4-1.6c0.7-2.5-0.8-5.1-3.3-5.8c-0.4-0.1-0.8-0.2-1.2-0.2
							c-1.5,0-2.9,0.7-3.8,1.9l0.7-2.5c0.7-2.5-0.8-5.1-3.3-5.8l0,0C75.4,29.4,74.9,29.3,74.5,29.3L74.5,29.3z"/>
					</g>
					<rect x="58.4" y="92.4" class="st1" width="33.6" height="46"/>
					<g>
						<polygon class="st2" points="93.5,128 90.5,128 90.5,93.9 59.9,93.9 59.9,123 56.9,123 56.9,90.9 93.5,90.9 						"/>
					</g>
					<g>
						<rect x="56.9" y="128.3" class="st2" width="3" height="10.1"/>
					</g>
				</g>
			</g>
			<g>
				
					<rect x="70.6" y="48.5" transform="matrix(0.2773 -0.9608 0.9608 0.2773 6.0492 108.0743)" class="st1" width="8.6" height="3"/>
			</g>
			<g>
				<rect x="78" y="53.5" transform="matrix(0.2564 -0.9666 0.9666 0.2564 8.054 120.441)" class="st1" width="8.6" height="3"/>
			</g>
			<g>
				
					<rect x="86.2" y="58.2" transform="matrix(0.2595 -0.9657 0.9657 0.2595 9.3646 131.5744)" class="st1" width="8.6" height="3"/>
			</g>
		</g>
	</g>
</g>
<g class="st6">
	<g class="st7">
		<g>
			<g>
				<rect x="2" y="1.9" class="st0" width="147" height="122.5"/>
				<path class="st1" d="M147.5,3.4v119.5H3.5V3.4H147.5 M150.5,0.4H0.5v150h150V0.4L150.5,0.4z"/>
			</g>
		</g>
		<g>
			<g>
				<rect x="13" y="13.3" class="st1" width="28.9" height="3"/>
			</g>
			<g>
				<rect x="71.7" y="13.3" class="st1" width="66.4" height="3"/>
			</g>
			<g>
				<rect x="50.9" y="13.3" class="st1" width="12.4" height="3"/>
			</g>
		</g>
		<g>
			<g>
				<rect x="108.2" y="110.1" class="st1" width="29.9" height="3"/>
			</g>
		</g>
		<g>
			<path class="st1" d="M84.4,69.6H38.7c-7,0-12.7,5.7-12.7,12.7v45.3h26.5h-0.2l9.3,9.3v-9.3h22.9c7,0,12.7-5.7,12.7-12.7V82.3
				C97.2,75.3,91.5,69.6,84.4,69.6z"/>
			<g>
				<path class="st2" d="M63.1,140.7l-11.5-11.5H46v-3h6.8l7.2,7.2v-7.2h24.5c6.2,0,11.3-5.1,11.3-11.3V82.3
					c0-6.2-5.1-11.3-11.3-11.3H38.6c-6.2,0-11.3,5.1-11.3,11.3V123h-3V82.3c0-7.9,6.4-14.3,14.3-14.3h45.9c7.9,0,14.3,6.4,14.3,14.3
					V115c0,7.9-6.4,14.3-14.3,14.3H63.1V140.7z"/>
			</g>
			<g>
				<rect x="33.3" y="126.2" class="st2" width="6.1" height="3.1"/>
			</g>
			<g>
				<rect x="34.5" y="83.6" class="st0" width="30.9" height="5.3"/>
				<rect x="34.5" y="95.9" class="st0" width="43.7" height="5.3"/>
				<rect x="34.5" y="108.1" class="st0" width="43.7" height="5.3"/>
				<rect x="84.4" y="108.1" class="st0" width="5.3" height="5.3"/>
			</g>
			<g>
				<path class="st13" d="M128.4,60.4c0-16.1-14-29.1-31.3-29.1s-31.3,13-31.3,29.1s14,29.1,31.3,29.1c4,0,7.8-0.7,11.3-1.9l8.3,8.3
					V83.1C123.8,77.7,128.4,69.6,128.4,60.4z"/>
				<path class="st14" d="M118.2,99.5L108,89.3c-3.5,1.1-7.1,1.7-10.9,1.7C79,91,64.3,77.2,64.3,60.3S79,29.7,97.1,29.7
					s32.8,13.7,32.8,30.6c0,9.1-4.3,17.6-11.7,23.5V99.5z M108.7,85.8l6.4,6.4v-9.9l0.6-0.4c7.1-5.3,11.1-13.1,11.1-21.5
					c0-15.2-13.4-27.6-29.8-27.6S67.3,45.1,67.3,60.4C67.3,75.6,80.7,88,97.1,88c3.7,0,7.3-0.6,10.8-1.9L108.7,85.8z"/>
			</g>
			<g>
				<g>
					<path class="st15" d="M106.2,68.2c-1,0-1.9-0.8-1.9-1.9v-4.5c0-1.7,1.2-3.1,2.8-3.5c2.1-0.5,3.4-2.3,3.3-4.4
						c-0.1-2.1-1.8-3.8-3.9-3.9c-1.2-0.1-2.3,0.3-3.2,1.1c-0.9,0.8-1.3,1.9-1.3,3.1c0,1-0.8,1.9-1.9,1.9s-1.9-0.8-1.9-1.9
						c0-2.2,0.9-4.3,2.5-5.8s3.8-2.3,6-2.1c4,0.3,7.1,3.5,7.4,7.4s-2.3,7.4-6.1,8.3v4.4C108.1,67.3,107.2,68.2,106.2,68.2z"/>
					<path class="st15" d="M106.2,75.6c-0.5,0-1-0.2-1.3-0.6c-0.3-0.3-0.6-0.8-0.6-1.3s0.2-1,0.6-1.3c0.3-0.3,0.8-0.6,1.3-0.6
						s1,0.2,1.3,0.6c0.3,0.3,0.6,0.8,0.6,1.3s-0.2,1-0.6,1.3C107.2,75.4,106.7,75.6,106.2,75.6z"/>
				</g>
				<g>
					<path class="st15" d="M87.9,53.6c1,0,1.9,0.8,1.9,1.9V60c0,1.7-1.2,3.1-2.8,3.5c-2.1,0.5-3.4,2.3-3.3,4.4s1.8,3.8,3.9,3.9
						c1.2,0.1,2.3-0.3,3.2-1.1c0.9-0.8,1.3-1.9,1.3-3.1c0-1,0.8-1.9,1.9-1.9s1.9,0.8,1.9,1.9c0,2.2-0.9,4.3-2.5,5.8s-3.8,2.3-6,2.1
						c-4-0.3-7.1-3.5-7.4-7.4s2.3-7.4,6.1-8.3v-4.4C86.1,54.4,86.9,53.6,87.9,53.6z"/>
					<path class="st15" d="M87.9,46.1c0.5,0,1,0.2,1.3,0.5s0.6,0.8,0.6,1.3s-0.2,1-0.6,1.3c-0.3,0.3-0.8,0.5-1.3,0.5s-1-0.2-1.3-0.5
						S86,48.4,86,47.9s0.2-1,0.6-1.3C86.9,46.3,87.4,46.1,87.9,46.1z"/>
				</g>
			</g>
		</g>
	</g>
</g>
<g id="Layer_4" class="st6">
	<g class="st7">
		<g>
			<polyline class="st1" points="150.5,124 150.5,150.5 0.5,150.5 0.5,124 			"/>
			<g>
				<rect x="2" y="2" class="st0" width="147" height="122.5"/>
				<path class="st1" d="M147.5,3.5V123H3.5V3.5H147.5 M150.5,0.5H0.5v150h150V0.5L150.5,0.5z"/>
			</g>
		</g>
		<g>
			<g>
				<rect x="13" y="13.4" class="st1" width="28.9" height="3"/>
			</g>
			<g>
				<rect x="71.7" y="13.4" class="st1" width="66.4" height="3"/>
			</g>
			<g>
				<rect x="50.9" y="13.4" class="st1" width="12.4" height="3"/>
			</g>
		</g>
		<g>
			<g>
				<rect x="122.7" y="110.2" class="st1" width="15.4" height="3"/>
			</g>
			<g>
				<rect x="13" y="110.2" class="st1" width="35.2" height="3"/>
			</g>
			<g>
				<rect x="101" y="110.2" class="st1" width="13.4" height="3"/>
			</g>
		</g>
		<g>
			<g>
				<g>
					<path class="st1" d="M41.3,54.2l-17-14.6c-0.5-0.4-0.2-1.1,0.4-1.2L47,35.8c0.1,0,0.1,0.1,0.1,0.1l-5.5,18.2
						C41.5,54.2,41.4,54.2,41.3,54.2z"/>
					<path class="st2" d="M41.4,55.7c-0.4,0-0.8-0.1-1-0.4l-17-14.6c-0.7-0.6-0.9-1.5-0.7-2.3s1-1.4,1.8-1.5l23.1-2.7l0.6,0.7
						c0.3,0.4,0.5,1,0.3,1.5l-5.8,19l-0.8,0.3C41.7,55.7,41.5,55.7,41.4,55.7z M26.7,39.7l14,12L45,37.5L26.7,39.7z"/>
				</g>
				<g>
					<path class="st1" d="M116.5,57l3.3,1c5.1,1.6,8,7,6.4,12.1l0,0c-1.6,5.1-7,8-12.1,6.4L41.6,54.3l-0.1-0.1l5.6-18.3l0.1-0.1
						l31.3,9.5L116.5,57z"/>
					<path class="st2" d="M117,78.4c-1.1,0-2.2-0.2-3.3-0.5L40.5,55.5l-0.3-0.6c-0.2-0.4-0.2-0.8-0.1-1.2l5.8-18.9l0.6-0.3
						c0.4-0.2,0.8-0.3,1.2-0.1l72.6,22.2c5.9,1.8,9.2,8.1,7.4,13.9C126.2,75.3,121.8,78.4,117,78.4z M43.3,53.3L114.6,75
						c4.3,1.3,8.9-1.1,10.2-5.4c1.3-4.3-1.1-8.9-5.4-10.2L48.1,37.6L43.3,53.3z M48.5,36.3L48.5,36.3L48.5,36.3z"/>
				</g>
				<g>
					<path class="st1" d="M130.3,71.2L130.3,71.2c1.6-5.1-1.3-10.5-6.4-12.1l-8.6-2.6L109.7,75l8.6,2.6
						C123.3,79.2,128.7,76.3,130.3,71.2z"/>
					<path class="st2" d="M121,79.6c-1.1,0-2.2-0.2-3.3-0.5l-10-3.1l6.5-21.4l10,3.1c2.8,0.9,5.2,2.8,6.6,5.4
						c1.4,2.6,1.7,5.6,0.8,8.5c-0.9,2.8-2.8,5.2-5.4,6.6C124.6,79.2,122.8,79.6,121,79.6z M111.5,74.1l7.2,2.2
						c2.1,0.6,4.3,0.4,6.2-0.6c1.9-1,3.3-2.7,4-4.8l0,0c0.6-2.1,0.4-4.3-0.6-6.2c-1-1.9-2.7-3.3-4.8-4l-7.2-2.2L111.5,74.1z"/>
				</g>
				<g>
					<g>
						<path class="st0" d="M63,92.2l-0.3-10.8c0-0.5-0.3-0.9-0.7-1.2c-0.3-0.2-7.1-5-5.9-18.4l6.1,1.8c0.1,0,0.3,0.1,0.4,0.1
							c0.3,0,0.5-0.1,0.7-0.2c0.4-0.2,0.6-0.5,0.7-0.9l1-3.8v-0.1c0.1-0.5,4.2-16.9,6.4-25.5c0.4-1.3,1.6-2.3,3.1-2.3
							c0.3,0,0.6,0,0.8,0.1c0.8,0.2,1.5,0.8,1.9,1.5c0.4,0.7,0.5,1.6,0.3,2.4l-0.7,2.5c-0.2,0.7,0.1,1.4,0.8,1.8
							c0.2,0.1,0.4,0.2,0.7,0.2c0.5,0,0.9-0.2,1.2-0.6c0.6-0.8,1.6-1.3,2.6-1.3c0.3,0,0.6,0,0.8,0.1c0.8,0.2,1.5,0.8,1.9,1.5
							s0.5,1.6,0.3,2.4l-0.4,1.6c-0.2,0.7,0.1,1.4,0.8,1.8c0.2,0.1,0.4,0.2,0.7,0.2c0.5,0,0.9-0.2,1.2-0.6c0.6-0.8,1.6-1.3,2.6-1.3
							c0.3,0,0.6,0,0.8,0.1c1.7,0.5,2.7,2.2,2.2,3.9L92.8,48c-0.2,0.7,0.1,1.4,0.8,1.7c0.2,0.1,0.4,0.2,0.7,0.2
							c0.4,0,0.9-0.2,1.2-0.6c0.6-0.8,1.6-1.2,2.5-1.2c0.3,0,0.6,0,0.8,0.1c0.8,0.2,1.5,0.8,1.9,1.5s0.5,1.6,0.3,2.4l-6.1,22.1
							c0,0.1-0.1,0.2-0.1,0.3c0,0.1-0.1,0.2-0.1,0.3c0,0.2-1.1,5-5.8,7.3c-0.5,0.3-0.9,0.8-0.9,1.3v8.7C88,92.2,63,92.2,63,92.2z"/>
						<path class="st1" d="M74.6,32.4L74.6,32.4c0.2,0,0.3,0,0.4,0.1c0.9,0.2,1.4,1.2,1.2,2.1l-0.7,2.5c-0.4,1.4,0.3,2.8,1.6,3.5
							c0.4,0.2,0.9,0.3,1.3,0.3c0.9,0,1.8-0.4,2.4-1.2c0.3-0.4,0.8-0.7,1.4-0.7c0.2,0,0.3,0,0.4,0.1c0.9,0.2,1.4,1.2,1.2,2.1
							l-0.4,1.6c-0.4,1.4,0.3,2.9,1.6,3.5c0.4,0.2,0.9,0.3,1.3,0.3c0.9,0,1.8-0.4,2.4-1.2c0.3-0.4,0.8-0.7,1.4-0.7
							c0.2,0,0.3,0,0.4,0.1c0.4,0.1,0.8,0.4,1,0.8c0.2,0.4,0.3,0.8,0.2,1.3l-0.3,0.9c-0.4,1.4,0.3,2.8,1.5,3.5
							c0.4,0.2,0.9,0.3,1.3,0.3c0.9,0,1.8-0.4,2.4-1.2c0.3-0.4,0.8-0.7,1.3-0.7c0.2,0,0.3,0,0.4,0.1c0.9,0.2,1.4,1.2,1.2,2.1
							L93.3,74c0,0.1,0,0.1-0.1,0.2c-0.1,0.2-0.1,0.3-0.2,0.5c0,0.2-0.9,4.3-5,6.2c-1.1,0.5-1.7,1.6-1.7,2.7v7.2h-22l-0.2-9.3
							c0-1-0.5-1.9-1.3-2.4c-0.3-0.2-5.8-4.2-5.4-15.2l4.3,1.3c0.3,0.1,0.6,0.1,0.9,0.1c0.5,0,1-0.1,1.5-0.4
							c0.7-0.4,1.2-1.1,1.4-1.9l1-3.8v-0.1c0.2-0.9,4.7-18.6,6.4-25.5C73.1,32.9,73.8,32.4,74.6,32.4 M74.6,29.4
							c-2.1,0-3.9,1.4-4.5,3.4c0,0-6.4,25.4-6.4,25.6l-1,3.8l-7.8-2.4c-2.2,16,6.4,21.6,6.4,21.6l0.3,12.3h28V83.5
							c5.6-2.7,6.6-8.4,6.6-8.4l0,0c0.1-0.2,0.1-0.3,0.2-0.5l6.2-22.1c0.7-2.5-0.8-5.1-3.3-5.8l0,0c-0.4-0.1-0.8-0.2-1.3-0.2
							c-1.4,0-2.8,0.7-3.7,1.8l0.3-0.9c0.7-2.5-0.8-5.1-3.3-5.8c-0.4-0.1-0.8-0.2-1.2-0.2c-1.5,0-2.9,0.7-3.8,2l0.4-1.6
							c0.7-2.5-0.8-5.1-3.3-5.8c-0.5,0-0.9,0-1.3,0c-1.5,0-2.9,0.7-3.8,1.9l0.7-2.5c0.7-2.5-0.8-5.1-3.3-5.8l0,0
							C75.4,29.5,75,29.4,74.6,29.4L74.6,29.4z"/>
					</g>
					<rect x="58.4" y="92.5" class="st1" width="33.6" height="46"/>
					<g>
						<polygon class="st2" points="93.5,128.1 90.5,128.1 90.5,94 59.9,94 59.9,123.1 56.9,123.1 56.9,91 93.5,91 						"/>
					</g>
					<g>
						<rect x="56.9" y="128.3" class="st2" width="3" height="10.1"/>
					</g>
				</g>
			</g>
			<g>
				
					<rect x="70.5" y="48.5" transform="matrix(0.2773 -0.9608 0.9608 0.2773 6.0447 108.0324)" class="st1" width="8.6" height="3"/>
			</g>
			<g>
				<rect x="78" y="53.6" transform="matrix(0.2564 -0.9666 0.9666 0.2564 7.9811 120.5571)" class="st1" width="8.6" height="3"/>
			</g>
			<g>
				<rect x="86.2" y="58.3" transform="matrix(0.2595 -0.9657 0.9657 0.2595 9.299 131.6773)" class="st1" width="8.6" height="3"/>
			</g>
		</g>
	</g>
</g>
<g id="Layer_5" class="st6">
	<g class="st7">
		<g>
			<g>
				<rect x="2" y="2" class="st0" width="147" height="122.5"/>
				<path class="st1" d="M147.5,3.5V123H3.5V3.5H147.5 M150.5,0.5H0.5v150h150V0.5L150.5,0.5z"/>
			</g>
		</g>
		<g>
			<g>
				<rect x="13" y="13.4" class="st1" width="28.9" height="3"/>
			</g>
			<g>
				<rect x="71.7" y="13.4" class="st1" width="66.4" height="3"/>
			</g>
			<g>
				<rect x="50.9" y="13.4" class="st1" width="12.4" height="3"/>
			</g>
		</g>
		<g>
			<g>
				<rect x="108.2" y="110.2" class="st1" width="29.9" height="3"/>
			</g>
		</g>
		<g>
			<path class="st0" d="M84.5,69.7H38.7c-7,0-12.7,5.7-12.7,12.7v45.3h26.5h-0.2l9.3,9.3v-9.3h22.9c7,0,12.7-5.7,12.7-12.7V82.4
				C97.2,75.4,91.5,69.7,84.5,69.7z"/>
			<g>
				<path class="st2" d="M63.1,140.8l-11.5-11.5H46v-3h6.8l7.2,7.2v-7.2h24.5c6.2,0,11.3-5.1,11.3-11.3V82.3
					c0-6.2-5.1-11.3-11.3-11.3H38.6c-6.2,0-11.3,5.1-11.3,11.3V123h-3V82.3c0-7.9,6.4-14.3,14.3-14.3h45.9c7.9,0,14.3,6.4,14.3,14.3
					V115c0,7.9-6.4,14.3-14.3,14.3H63.1V140.8z"/>
			</g>
			<g>
				<rect x="33.3" y="126.3" class="st2" width="6.1" height="3.1"/>
			</g>
			<g>
				<rect x="34.5" y="83.7" class="st1" width="30.9" height="5.3"/>
				<rect x="34.5" y="95.9" class="st1" width="43.7" height="5.3"/>
				<rect x="34.5" y="108.2" class="st1" width="43.7" height="5.3"/>
				<rect x="84.4" y="108.2" class="st1" width="5.3" height="5.3"/>
			</g>
			<g>
				<path class="st1" d="M128.4,60.4c0-16.1-14-29.1-31.3-29.1s-31.3,13-31.3,29.1s14,29.1,31.3,29.1c4,0,7.8-0.7,11.3-1.9l8.3,8.3
					V83.2C123.8,77.8,128.4,69.6,128.4,60.4z"/>
				<path class="st2" d="M118.2,99.6L108,89.3c-3.5,1.1-7.1,1.7-10.9,1.7C79,91,64.3,77.2,64.3,60.4S79,29.8,97.1,29.8
					s32.8,13.7,32.8,30.6c0,9.1-4.3,17.6-11.7,23.5V99.6z M108.8,85.9l6.4,6.4v-9.9l0.6-0.4c7.1-5.3,11.1-13.1,11.1-21.5
					c0-15.2-13.4-27.6-29.8-27.6S67.3,45.2,67.3,60.4S80.7,88,97.1,88c3.7,0,7.3-0.6,10.8-1.9L108.8,85.9z"/>
			</g>
			<g>
				<g>
					<path class="st2" d="M106.2,68.2c-1,0-1.9-0.8-1.9-1.9v-4.5c0-1.7,1.2-3.1,2.8-3.5c2.1-0.5,3.4-2.3,3.3-4.4
						c-0.1-2.1-1.8-3.8-3.9-3.9c-1.2-0.1-2.3,0.3-3.2,1.1c-0.9,0.8-1.3,1.9-1.3,3.1c0,1-0.8,1.9-1.9,1.9s-1.9-0.8-1.9-1.9
						c0-2.2,0.9-4.3,2.5-5.8s3.8-2.3,6-2.1c4,0.3,7.1,3.5,7.4,7.4s-2.3,7.4-6.1,8.3v4.4C108.1,67.4,107.3,68.2,106.2,68.2z"/>
					<path class="st2" d="M106.2,75.7c-0.5,0-1-0.2-1.3-0.6c-0.3-0.3-0.6-0.8-0.6-1.3s0.2-1,0.6-1.3c0.3-0.3,0.8-0.6,1.3-0.6
						s1,0.2,1.3,0.6c0.3,0.3,0.6,0.8,0.6,1.3s-0.2,1-0.6,1.3C107.2,75.5,106.7,75.7,106.2,75.7z"/>
				</g>
				<g>
					<path class="st2" d="M88,53.7c1,0,1.9,0.8,1.9,1.9v4.5c0,1.7-1.2,3.1-2.8,3.5C85,64,83.6,65.9,83.8,68c0.1,2.1,1.8,3.8,3.9,3.9
						c1.2,0.1,2.3-0.3,3.2-1.1c0.9-0.8,1.3-1.9,1.3-3.1c0-1,0.8-1.9,1.9-1.9s1.9,0.8,1.9,1.9c0,2.2-0.9,4.3-2.5,5.8s-3.8,2.3-6,2.1
						c-4-0.3-7.1-3.5-7.4-7.4s2.3-7.4,6.1-8.3v-4.4C86.1,54.5,86.9,53.7,88,53.7z"/>
					<path class="st2" d="M88,46.2c0.5,0,1,0.2,1.3,0.5s0.6,0.8,0.6,1.3s-0.2,1-0.6,1.3C88.9,49.8,88.5,50,88,50s-1-0.2-1.3-0.5
						s-0.6-0.8-0.6-1.3s0.2-1,0.6-1.3C87,46.4,87.5,46.2,88,46.2z"/>
				</g>
			</g>
		</g>
	</g>
</g>
<g id="Layer_6" class="st6">
	<g class="st7">
		<g>
			<g>
				<rect x="2" y="2" class="st0" width="147" height="122.5"/>
				<path class="st1" d="M147.5,3.5V123H3.5V3.5H147.5 M150.5,0.5H0.5v150h150V0.5L150.5,0.5z"/>
			</g>
		</g>
		<g>
			<circle class="st2" cx="40.4" cy="138.2" r="5"/>
			<path class="st2" d="M32.7,138.2c0-0.5,0-1,0.2-1.5H13v3h19.8C32.8,139.2,32.7,138.7,32.7,138.2z"/>
			<path class="st2" d="M47.9,136.7c0.1,0.5,0.2,1,0.2,1.5s0,1-0.2,1.5H138v-3H47.9z"/>
		</g>
		<g>
			<g>
				<rect x="13" y="13.4" class="st1" width="28.9" height="3"/>
			</g>
			<g>
				<rect x="71.7" y="13.4" class="st1" width="66.4" height="3"/>
			</g>
			<g>
				<rect x="50.9" y="13.4" class="st1" width="12.4" height="3"/>
			</g>
		</g>
		<g>
			<g>
				<rect x="109.2" y="110.2" class="st1" width="28.9" height="3"/>
			</g>
			<g>
				<rect x="13" y="110.2" class="st1" width="66.4" height="3"/>
			</g>
			<g>
				<rect x="87.7" y="110.2" class="st1" width="12.4" height="3"/>
			</g>
		</g>
		<g>
			<g>
				<circle class="st1" cx="75.5" cy="63.3" r="32.5"/>
				<path class="st2" d="M75.5,97.2c-18.7,0-33.9-15.2-33.9-33.9s15.2-33.9,33.9-33.9s33.9,15.2,33.9,33.9S94.2,97.2,75.5,97.2z
					 M75.5,32.2c-17.2,0-31.1,14-31.1,31.1s14,31.1,31.1,31.1s31.1-13.9,31.1-31.1S92.7,32.2,75.5,32.2z"/>
			</g>
			<polygon class="st0" points="66.3,46.4 95.6,63.3 66.3,80.1 			"/>
		</g>
	</g>
</g>
</svg>
