<?xml version="1.0" encoding="utf-8"?><svg id="anima_ico_3-2" image-rendering="optimizeQuality" baseProfile="basic" version="1.1" x="0px" y="0px" width="230" height="168" xmlns="http://www.w3.org/2000/svg" xmlns:xlink="http://www.w3.org/1999/xlink"><defs><g id="salva-vf" overflow="visible"><path fill="#ECF3FC" stroke="none" d="M116.6 63.3Q118.6 39.25 103.05 20.75 87.45 2.25 63.35 .25 39.25 -1.8 20.75 13.8 2.3 29.4 .25 53.5 -1.8 77.55 13.8 96.05 29.4 114.55 53.5 116.55 77.55 118.6 96.05 103 114.55 87.4 116.6 63.3Z"/><path id="Layer5_0_1_STROKES" stroke="#9DB9D9" stroke-width="2" stroke-linejoin="round" stroke-linecap="round" fill="none" d="M103.05 20.75Q118.6 39.25 116.6 63.3 114.55 87.4 96.05 103 77.55 118.6 53.5 116.55 29.4 114.55 13.8 96.05 -1.8 77.55 .25 53.5 2.3 29.4 20.75 13.8 39.25 -1.8 63.35 .25 87.45 2.25 103.05 20.75Z"/><path id="Layer6_0_1_STROKES" stroke="#9DB9D9" stroke-width="2" stroke-linejoin="round" stroke-linecap="round" fill="none" d="M80.25 84.25Q69.5 93.3 55.55 92.1 41.6 90.9 32.55 80.2 23.5 69.5 24.65 55.5 25.8 41.55 36.55 32.45 47.3 23.4 61.25 24.6 75.25 25.8 84.3 36.5 93.35 47.25 92.15 61.2 90.95 75.2 80.25 84.25ZM20.75 13.75Q2.3 29.35 .25 53.45 -1.8 77.5 13.8 96 29.4 114.5 53.5 116.5 77.55 118.55 96.05 102.95 114.55 87.35 116.6 63.25 118.6 39.2 103.05 20.7 87.45 2.2 63.35 .2 39.25 -1.85 20.75 13.75Z"/><path fill="#9DB9D9" stroke="none" d="M66.9 91.2Q58.6 93.1 50.45 91.3L45.95 115.45 53.6 116.6Q62.95 117.3 71.75 115.25L66.9 91.2Z"/><path fill="#9DB9D9" stroke="none" d="M91.3 50.3Q93.25 58.35 91.45 66.7L115.5 70.85Q116.25 67.95 116.6 63.25 117.3 53.85 115.25 45.05L91.3 50.3Z"/><path fill="#9DB9D9" stroke="none" d="M65.95 25.2L70.9 1.35Q67.95 .6 63.25 .2 53.9 -.5 45.1 1.55L49.55 25.35Q57.6 23.4 65.95 25.2Z"/><path fill="#9DB9D9" stroke="none" d="M25.35 67.2Q23.45 58.95 25.25 50.8L1.35 45.9 .2 53.5Q-.5 62.9 1.55 71.7L25.35 67.2Z"/><path id="Layer11_0_1_STROKES" stroke="#9DB9D9" stroke-width="2" stroke-linejoin="round" stroke-linecap="round" fill="none" d="M80.25 84.25Q69.5 93.3 55.55 92.1 41.6 90.9 32.55 80.2 23.5 69.5 24.65 55.5 25.8 41.55 36.55 32.45 47.3 23.4 61.25 24.6 75.25 25.8 84.3 36.5 93.35 47.25 92.15 61.2 90.95 75.2 80.25 84.25Z"/></g><g id="Tween-1" overflow="visible"><path fill="#ECF3FC" stroke="none" d="M14.7 3.35Q12.8 2 9.8 1.45 4.95 .65 -.95 2.85 -4.7 4.25 -8.2 6.55 -8.4 6.7 -8.3 6.95 -8.25 7.15 -8 7.15 -3.4 6.9 2.2 10.15 5.15 11.85 6.65 12.5 9.25 13.65 11.45 13.75 13.25 13.85 14.8 12.75 16.4 11.7 16.9 10 17.1 9.3 17.1 8.9 17.4 5.5 14.7 3.35Z"/><path fill="#9DB9D9" stroke="none" d="M17.5 5.4Q16.75 3.7 15.3 2.55 13.2 1 9.95 .5 4.9 -.4 -1.15 1.85 -5.15 3.3 -8.75 5.75 -9.55 6.25 -9.3 7.25 -8.95 8.25 -8 8.15 -3.4 8 1.7 11.05 4.7 12.8 6.25 13.45 9 14.65 11.4 14.75L11.65 14.75Q13.75 14.75 15.5 13.5 17.2 12.25 17.85 10.3 18.1 9.55 18.1 8.95 18.25 7.1 17.5 5.4M15.95 9.7Q15.5 11.05 14.25 11.9 13 12.8 11.5 12.75 9.4 12.65 6.95 11.6 5.45 10.95 2.7 9.3 -1.6 6.75 -5.8 6.25 2.8 1.25 9.65 2.45 12.5 3 14.05 4.15 16.3 5.85 16.15 8.8L15.95 9.7Z"/><path fill="#ECF3FC" stroke="none" d="M-17.05 -10.4Q-17 -9.05 -16.3 -7.5 -15.95 -6.65 -14.95 -4.85 -13.25 -1.9 -13.15 .85 -13.15 1.1 -12.95 1.15 -12.7 1.25 -12.6 1.05 -8.9 -4.6 -9.7 -9.35 -9.95 -11.1 -10.8 -12.3 -12.1 -13.9 -14.1 -13.75L-14.75 -13.65Q-15.8 -13.3 -16.45 -12.4 -17.1 -11.5 -17.05 -10.4Z"/><path fill="#9DB9D9" stroke="none" d="M-14.15 -14.75Q-14.65 -14.75 -15.05 -14.6 -16.4 -14.2 -17.25 -13 -18.1 -11.8 -18.05 -10.35 -17.95 -8.1 -15.8 -4.35 -14.25 -1.65 -14.15 .85 -14.15 1.8 -13.2 2.15L-12.85 2.2Q-12.15 2.2 -11.75 1.55 -7.9 -4.45 -8.7 -9.5 -9.1 -11.65 -10 -12.85 -11.6 -14.9 -14.15 -14.75M-14.45 -12.7L-14.05 -12.75 -13.8 -12.75Q-12.4 -12.75 -11.6 -11.7 -10.95 -10.8 -10.7 -9.2 -10.1 -5.75 -12.4 -1.25 -13 -3.55 -14.05 -5.35 -15.95 -8.55 -16.05 -10.4 -16.05 -11.15 -15.6 -11.8 -15.15 -12.5 -14.45 -12.7Z"/></g><g id="gotas1" overflow="visible"><g transform="matrix(.966 .259 -.259 .966 0 0)" id="Layer16_0_FILL"><path fill="#ECF3FC" stroke="none" d="M26.1 19.6Q26.3 19.35 26.1 19.25 23.25 16.1 20.05 13.8 14.9 10.1 10 9.65 6.95 9.4 4.85 10.25 1.65 11.45 1 14.9 .9 15.7 .95 16.05 1 17.85 2.3 19.25 3.55 20.7 5.25 21.1 7.4 21.6 10.2 21.1 11.85 20.9 15.1 20 21.3 18.3 25.75 19.75 26 19.85 26.1 19.6Z"/></g><g transform="matrix(.966 .259 -.259 .966 0 0)" id="Layer17_0_FILL"><path fill="#9DB9D9" stroke="none" d="M26.85 18.55Q23.9 15.25 20.5 12.9 15.2 9.1 10.1 8.65 6.8 8.35 4.45 9.3 2.75 10 1.55 11.45 .35 12.9 .05 14.75L0 16.1Q.05 18.2 1.4 19.85 2.8 21.45 4.85 22L5.05 22.05Q7.4 22.55 10.35 22.15 12.25 21.9 15.4 21 21.35 19.4 25.45 20.7 26.4 21.05 26.95 20.15 27.5 19.4 26.85 18.55M5.15 11.15Q7.2 10.4 9.9 10.65 16.85 11.25 23.9 18.35 19.7 17.7 14.85 19.1 11.6 19.95 10.1 20.15 7.45 20.55 5.45 20.05 4.05 19.8 3 18.6 2 17.4 1.95 16L2 15.1Q2.5 12.25 5.15 11.15Z"/></g><g transform="matrix(.966 .259 -.259 .966 0 0)" id="Layer18_0_FILL"><path fill="#ECF3FC" stroke="none" d="M37.05 1.1Q35.05 .5 33.5 1.7 32.4 2.55 31.65 4.25 29.75 8.5 31.75 15 31.85 15.25 32.1 15.25 32.3 15.25 32.4 15 33.1 12.4 35.5 9.95 38.4 7.15 39 5.15 39.3 4.1 38.9 3.05 38.55 1.95 37.7 1.4L37.05 1.1Z"/></g><g transform="matrix(.966 .259 -.259 .966 0 0)" id="Layer19_0_FILL"><path fill="#9DB9D9" stroke="none" d="M39.9 5.45Q40.4 4.15 39.9 2.7 39.35 1.35 38.15 .6L37.4 .15Q34.85 -.7 32.9 .95 31.65 1.9 30.75 3.85 28.65 8.35 30.8 15.3 31 16 31.75 16.2L32.1 16.25Q33.05 16.25 33.35 15.25 33.95 12.95 36.25 10.7 37.75 9.2 38.4 8.35 39.5 6.9 39.9 5.45M36.5 2L36.7 2.05 37.15 2.3Q37.7 2.7 38 3.4 38.3 4.15 38.05 4.85 37.55 6.55 34.85 9.3 33.15 10.95 32.15 12.8 31.15 7.85 32.55 4.65 33.25 3.15 34.1 2.5 35.15 1.65 36.5 2Z"/></g></g></defs><g id="Scene-1" overflow="visible"><use xlink:href="#salva-vf" transform="matrix(-.717 .697 -.697 -.717 263.65 -79.6)" opacity="1"><animateTransform attributeName="transform" additive="replace" type="translate" repeatCount="indefinite" dur="8.333s" keyTimes="0;.096;.132;.16;.188;.216;.244;.276;.316;.356;.4;.444;.484;.524;.572;.62;.668;.716;.76;.804;.848;.868;.888;.996;1" values="23.256,-97.786;120.923,135.054;108.193,79.792;139.22,108.979;89.915,90.801;120.588,97.621;115.558,89.465;117.092,100.019;115.558,87.965;117.102,98.04;115.558,85.965;117.04,97.995;115.558,85.965;117.102,98.04;115.558,85.965;117.04,97.995;115.558,85.965;117.102,98.04;115.558,85.965;117.04,97.995;115.558,85.965;117.072,150.067;147.062,169.059;181.242,-80.34;181.242,-80.34"/><animateTransform attributeName="transform" additive="sum" type="rotate" repeatCount="indefinite" dur="8.333s" keyTimes="0;.096;.132;.16;.188;.216;.244;.276;.316;.356;.4;.444;.484;.524;.572;.62;.668;.716;.76;.804;.848;.868;.888;.996;1" values="-62.178,0,0;90.834,0,0;135.832,0,0;201,0,0;128.109,0,0;217.305,0,0;179.562,0,0;167.096,0,0;179.562,0,0;195.79,0,0;179.562,0,0;172.314,0,0;179.562,0,0;195.79,0,0;179.562,0,0;172.314,0,0;179.562,0,0;195.79,0,0;179.562,0,0;172.314,0,0;179.562,0,0;285.79,0,0;360.79,0,0;495.791,0,0;495.791,0,0"/><animateTransform attributeName="transform" additive="sum" type="scale" repeatCount="indefinite" dur="8.333s" keyTimes="0;.096;.132;.16;.188;.216;.244;.276;.316;.356;.4;.444;.484;.524;.572;.62;.668;.716;.76;.804;.848;.868;.888;.996;1" values="1,.999;1,1;.998,.998;1,.999;.998,.998;.998,.998;1,1;1,.999;1,1;1,.999;1,1;1,.999;1,1;1,.999;1,1;1,.999;1,1;1,.999;1,1;1,.999;1,1;1,.999;1,1;.998,.998;.998,.998"/><animateTransform attributeName="transform" additive="sum" type="translate" repeatCount="indefinite" dur="8.333s" keyTimes="0;.096;.132;.16;.188;.216;.244;.276;.316;.356;.4;.444;.484;.524;.572;.62;.668;.716;.76;.804;.848;.868;.888;.996;1" values="-58.5,-58.25;-58.65,-58.2;-58.65,-58.1;-58.55,-58;-58.6,-57.85;-58.55,-58;-58.6,-58;-58.65,-57.9;-58.6,-58;-58.55,-57.95;-58.6,-58;-58.7,-57.9;-58.6,-58;-58.55,-57.95;-58.6,-58;-58.7,-57.9;-58.6,-58;-58.55,-57.95;-58.6,-58;-58.7,-57.9;-58.6,-58;-58.6,-58;-58.65,-58;-58.55,-58;-58.55,-58"/><animate attributeName="opacity" repeatCount="indefinite" dur="8.333s" keyTimes="0;.096;1" values="0;1;1"/></use><g display="none"><use xlink:href="#gotas1" transform="matrix(.593 -.849 .849 .593 6.5 97.7)"><animateTransform attributeName="transform" additive="replace" type="translate" repeatCount="indefinite" dur="8.333s" keyTimes="0;.068;.096;.12;1" values="44.163,111.418;44.163,111.418;40.58,104.295;28.197,87.438;28.197,87.438"/><animateTransform attributeName="transform" additive="sum" type="rotate" repeatCount="indefinite" dur="8.333s" keyTimes="0;.068;.096;.12;1" values="-10.233,0,0;-10.233,0,0;-25.062,0,0;-55.062,0,0;-55.062,0,0"/><animateTransform attributeName="transform" additive="sum" type="scale" repeatCount="indefinite" dur="8.333s" keyTimes="0;.068;.096;.12;1" values=".518,.518;.518,.518;.686,.686;1.035,1.035;1.035,1.035"/><animateTransform attributeName="transform" additive="sum" type="translate" repeatCount="indefinite" dur="8.333s" keyTimes="0;.068;.096;.12;1" values="-20.15,-11.35;-20.15,-11.35;-20.3,-11.25;-20.1,-11.5;-20.1,-11.5"/></use><animate attributeName="display" repeatCount="indefinite" dur="8.333s" keyTimes="0;.068;.124;1" values="none;inline;none;none"/></g><g display="none"><use xlink:href="#Tween-1" transform="matrix(.956 .552 -.552 .956 202.3 70.5)"><animateTransform attributeName="transform" additive="replace" type="translate" repeatCount="indefinite" dur="8.333s" keyTimes="0;.068;.096;.12;1" values="137.169,123.019;137.169,123.019;185.774,88.877;202.504,70.808;202.504,70.808"/><animateTransform attributeName="transform" additive="sum" type="rotate" repeatCount="indefinite" dur="8.333s" keyTimes="0;.068;.096;.12;1" values="0,0,0;0,0,0;15,0,0;29,0,0;29,0,0"/><animateTransform attributeName="transform" additive="sum" type="scale" repeatCount="indefinite" dur="8.333s" keyTimes="0;.068;.096;.12;1" values=".477,.477;.477,.477;.712,.712;1.102,1.102;1.102,1.102"/><animateTransform attributeName="transform" additive="sum" type="translate" repeatCount="indefinite" dur="8.333s" keyTimes="0;.068;.096;.12;1" values="-.25,-.25;-.25,-.25;-.2,-.35;-.3,-.15;-.3,-.15"/></use><animate attributeName="display" repeatCount="indefinite" dur="8.333s" keyTimes="0;.068;.124;1" values="none;inline;none;none"/></g><g display="none"><use xlink:href="#gotas1" transform="matrix(.667 -.564 .564 .667 39.75 105.25)" opacity="0"><animateTransform attributeName="transform" additive="replace" type="translate" repeatCount="indefinite" dur="8.333s" keyTimes="0;.848;.868;1" values="61.188,119.913;61.188,119.913;59.694,101.559;59.694,101.559"/><animateTransform attributeName="transform" additive="sum" type="rotate" repeatCount="indefinite" dur="8.333s" keyTimes="0;.848;.868;1" values="-10.233,0,0;-10.233,0,0;-40.231,0,0;-40.231,0,0"/><animateTransform attributeName="transform" additive="sum" type="scale" repeatCount="indefinite" dur="8.333s" keyTimes="0;.848;.868;1" values=".518,.518;.518,.518;.872,.872;.872,.872"/><animateTransform attributeName="transform" additive="sum" type="translate" repeatCount="indefinite" dur="8.333s" keyTimes="0;.848;.868;1" values="-20.2,-11.35;-20.2,-11.35;-20.15,-11.6;-20.15,-11.6"/><animate attributeName="opacity" repeatCount="indefinite" dur="8.333s" keyTimes="0;.848;.868;1" values="1;1;0;0"/></use><animate attributeName="display" repeatCount="indefinite" dur="8.333s" keyTimes="0;.848;.872;1" values="none;inline;none;none"/></g><g display="none"><use xlink:href="#Tween-1" transform="matrix(.771 .207 -.207 .771 179.3 101.2)" opacity="0"><animateTransform attributeName="transform" additive="replace" type="translate" repeatCount="indefinite" dur="8.333s" keyTimes="0;.848;.868;1" values="175.41,111.613;175.41,111.613;179.373,101.549;179.373,101.549"/><animateTransform attributeName="transform" additive="sum" type="rotate" repeatCount="indefinite" dur="8.333s" keyTimes="0;.848;.868;1" values="-14,0,0;-14,0,0;15,0,0;15,0,0"/><animateTransform attributeName="transform" additive="sum" type="scale" repeatCount="indefinite" dur="8.333s" keyTimes="0;.848;.868;1" values=".521,.521;.521,.521;.798,.798;.798,.798"/><animateTransform attributeName="transform" additive="sum" type="translate" repeatCount="indefinite" dur="8.333s" keyTimes="0;.848;.868;1" values="-.1,-.45;-.1,-.45;-.2,-.4;-.2,-.4"/><animate attributeName="opacity" repeatCount="indefinite" dur="8.333s" keyTimes="0;.848;.868;1" values="1;1;0;0"/></use><animate attributeName="display" repeatCount="indefinite" dur="8.333s" keyTimes="0;.848;.872;1" values="none;inline;none;none"/></g><g display="none"><use xlink:href="#gotas1" transform="matrix(-.196 -1.087 1.087 -.196 58.55 108.9)" opacity="0"><animateTransform attributeName="transform" additive="replace" type="translate" repeatCount="indefinite" dur="8.333s" keyTimes="0;.896;.976;1" values="124.812,112.118;124.812,112.118;67.561,85.307;67.561,85.307"/><animateTransform attributeName="transform" additive="sum" type="rotate" repeatCount="indefinite" dur="8.333s" keyTimes="0;.896;.976;1" values="4.758,0,0;4.758,0,0;-100.24,0,0;-100.24,0,0"/><animateTransform attributeName="transform" additive="sum" type="scale" repeatCount="indefinite" dur="8.333s" keyTimes="0;.896;.976;1" values=".518,.518;.518,.518;1.104,1.104;1.104,1.104"/><animateTransform attributeName="transform" additive="sum" type="translate" repeatCount="indefinite" dur="8.333s" keyTimes="0;.896;.976;1" values="-19.85,-11.45;-19.85,-11.45;-19.55,-11.85;-19.55,-11.85"/><animate attributeName="opacity" repeatCount="indefinite" dur="8.333s" keyTimes="0;.896;.976;1" values="1;1;0;0"/></use><animate attributeName="display" repeatCount="indefinite" dur="8.333s" keyTimes="0;.896;.98;1" values="none;inline;none;none"/></g><g display="none"><use xlink:href="#Tween-1" transform="matrix(.423 .996 -.996 .423 219.8 70.45)" opacity="0"><animateTransform attributeName="transform" additive="replace" type="translate" repeatCount="indefinite" dur="8.333s" keyTimes="0;.896;.976;1" values="184.42,112.327;184.42,112.327;219.556,71.237;219.556,71.237"/><animateTransform attributeName="transform" additive="sum" type="rotate" repeatCount="indefinite" dur="8.333s" keyTimes="0;.896;.976;1" values="-14.996,0,0;-14.996,0,0;66,0,0;66,0,0"/><animateTransform attributeName="transform" additive="sum" type="scale" repeatCount="indefinite" dur="8.333s" keyTimes="0;.896;.976;1" values=".477,.477;.477,.477;1.081,1.081;1.081,1.081"/><animateTransform attributeName="transform" additive="sum" type="translate" repeatCount="indefinite" dur="8.333s" keyTimes="0;.896;.976;1" values="-.25,-.45;-.25,-.45;-.6,-.45;-.6,-.45"/><animate attributeName="opacity" repeatCount="indefinite" dur="8.333s" keyTimes="0;.896;.976;1" values="1;1;0;0"/></use><animate attributeName="display" repeatCount="indefinite" dur="8.333s" keyTimes="0;.896;.98;1" values="none;inline;none;none"/></g><g display="none"><use xlink:href="#salva-vf" transform="matrix(-1.508 -.198 .198 -1.508 193.45 191.7)" opacity="0"><animateTransform attributeName="transform" additive="replace" type="translate" repeatCount="indefinite" dur="8.333s" keyTimes="0;.46;.504;1" values="116.647,93.32;116.647,93.32;116.595,92.876;116.595,92.876"/><animateTransform attributeName="transform" additive="sum" type="rotate" repeatCount="indefinite" dur="8.333s" keyTimes="0;.46;.504;1" values="176.268,0,0;176.268,0,0;187.48,0,0;187.48,0,0"/><animateTransform attributeName="transform" additive="sum" type="scale" repeatCount="indefinite" dur="8.333s" keyTimes="0;.46;.504;1" values="1,1;1,1;1.52,1.52;1.52,1.52"/><animateTransform attributeName="transform" additive="sum" type="translate" repeatCount="indefinite" dur="8.333s" keyTimes="0;.46;.504;1" values="-58.6,-57.85;-58.6,-57.85;-58.55,-57.85;-58.55,-57.85"/><animate attributeName="opacity" repeatCount="indefinite" dur="8.333s" keyTimes="0;.46;.504;1" values="1;1;0;0"/></use><animate attributeName="display" repeatCount="indefinite" dur="8.333s" keyTimes="0;.46;.508;1" values="none;inline;none;none"/></g><g id="ola_n" transform="translate(.2 119)"><animateTransform attributeName="transform" additive="replace" type="translate" repeatCount="indefinite" dur="8.333s" keyTimes="0;.996;1" values="-340.3,119;.2,119;.2,119"/><path fill="#ECF3FC" stroke="none" d="M570.2 49L570.2 1.15Q568.15 1.05 565.75 1.3 560.9 1.8 559.2 3.65L556.3 4.7 547.1 12.55 543.6 15 536.6 17.5 532.2 17.25 525.5 15 516.75 8.35 515.3 6.4 506.5 1.85 492.35 1.4 481.6 6.85 477.75 11 470.45 16.5 465.2 17.2 459.95 17.35 451.75 13.7 445.9 7.85 434.65 1.85 428.6 .95 421.9 1.65 415.3 3.8 401.1 15 393.8 17.1 384.75 16.15 375.95 9.2 366.75 3.15 356.9 1.15 346.65 2.8 339.2 6.65Q327.9 16.55 326.35 16.95 325.4 17.2 322.65 17.45L320.1 17.65 310.45 14.4 297.9 3.7 284.2 1.1 276.9 2.1 270.6 5.65 259.95 13.95Q251.75 17.8 250.75 17.65 249.75 17.5 240.2 15L226.8 3.95 220.8 1.7 209.9 .65 198.6 5.7 193.05 10.5 184.8 16.5 180.6 16.95 171.45 16.4 164.5 11.7 157.35 5.35 148.6 1.8 141.45 1.2 134.75 2.4 128.9 4.4 115.95 15 110.6 16.7 101.2 17 82.6 2.85 70.65 .65 63.35 1.7 57.1 5.25 50.45 9.8 46.05 14.35 40.5 16.8 34.1 17.5 28.2 16.2 23.95 13.25 14.95 5.7 9.1 2.1 2.95 1 0 0 0 49 570.2 49Z"/><path fill="#9DB9D9" stroke="none" d="M285.1 2L285.1 0Q277.85 0 272.15 3.1 268.75 4.95 263.7 9.55 259.75 13.2 257.55 14.4 254.1 16.3 249.45 16.3 244.85 16.3 241.35 14.4 239.25 13.2 235.2 9.55 230.25 4.95 226.8 3.1 221.1 0 213.85 0 206.55 0 200.85 3.1 197.5 4.9 192.45 9.55 188.4 13.2 186.3 14.4 182.85 16.3 178.2 16.3 173.6 16.3 170.1 14.4 168 13.2 163.95 9.55 158.9 4.95 155.5 3.1 149.8 0 142.55 0 135.3 0 129.6 3.1 126.2 4.95 121.15 9.55 117.2 13.2 115 14.4 111.55 16.3 106.9 16.3 102.3 16.3 98.8 14.4 96.7 13.2 92.65 9.55 87.7 4.95 84.25 3.1 78.55 0 71.3 0 64 0 58.3 3.1 54.95 4.9 49.9 9.55 45.85 13.2 43.75 14.4 40.3 16.3 35.65 16.3 31.05 16.3 27.55 14.4 25.45 13.2 21.4 9.55 16.35 4.95 12.95 3.1 7.25 0 0 0L0 2Q6.75 2 12.15 4.95 15.3 6.65 20.05 11 24.15 14.8 26.6 16.1 30.5 18.3 35.65 18.3 40.75 18.3 44.7 16.1 47.05 14.8 51.25 11 56 6.65 59.2 4.95 64.55 2 71.3 2 78.05 2 83.4 4.95 86.55 6.65 91.3 11 95.5 14.8 97.85 16.1 101.8 18.3 106.9 18.3 112.05 18.3 116 16.1 118.4 14.8 122.5 11 127.35 6.6 130.45 4.95 135.8 2 142.55 2 149.3 2 154.7 4.95 157.85 6.65 162.6 11 166.7 14.8 169.15 16.1 173.05 18.3 178.2 18.3 183.3 18.3 187.25 16.1 189.6 14.8 193.8 11 198.55 6.65 201.75 4.95 207.1 2 213.85 2 220.6 2 225.95 4.95 229.1 6.65 233.85 11 238.05 14.8 240.4 16.1 244.35 18.3 249.45 18.3 254.6 18.3 258.55 16.1 260.95 14.8 265.05 11 269.9 6.65 273 4.95 278.4 2 285.1 2Z"/><path id="Layer3_0_1_STROKES" stroke="#9DB9D9" stroke-width=".2" stroke-linejoin="miter" stroke-linecap="butt" stroke-miterlimit="10" fill="none" d="M0 2Q6.75 2 12.15 4.95 15.3 6.65 20.05 11 24.15 14.8 26.6 16.1 30.5 18.3 35.65 18.3 40.75 18.3 44.7 16.1 47.05 14.8 51.25 11 56 6.65 59.2 4.95 64.55 2 71.3 2 78.05 2 83.4 4.95 86.55 6.65 91.3 11 95.5 14.8 97.85 16.1 101.8 18.3 106.9 18.3 112.05 18.3 116 16.1 118.4 14.8 122.5 11 127.35 6.6 130.45 4.95 135.8 2 142.55 2 149.3 2 154.7 4.95 157.85 6.65 162.6 11 166.7 14.8 169.15 16.1 173.05 18.3 178.2 18.3 183.3 18.3 187.25 16.1 189.6 14.8 193.8 11 198.55 6.65 201.75 4.95 207.1 2 213.85 2 220.6 2 225.95 4.95 229.1 6.65 233.85 11 238.05 14.8 240.4 16.1 244.35 18.3 249.45 18.3 254.6 18.3 258.55 16.1 260.95 14.8 265.05 11 269.9 6.65 273 4.95 278.4 2 285.1 2L285.1 0Q277.85 0 272.15 3.1 268.75 4.95 263.7 9.55 259.75 13.2 257.55 14.4 254.1 16.3 249.45 16.3 244.85 16.3 241.35 14.4 239.25 13.2 235.2 9.55 230.25 4.95 226.8 3.1 221.1 0 213.85 0 206.55 0 200.85 3.1 197.5 4.9 192.45 9.55 188.4 13.2 186.3 14.4 182.85 16.3 178.2 16.3 173.6 16.3 170.1 14.4 168 13.2 163.95 9.55 158.9 4.95 155.5 3.1 149.8 0 142.55 0 135.3 0 129.6 3.1 126.2 4.95 121.15 9.55 117.2 13.2 115 14.4 111.55 16.3 106.9 16.3 102.3 16.3 98.8 14.4 96.7 13.2 92.65 9.55 87.7 4.95 84.25 3.1 78.55 0 71.3 0 64 0 58.3 3.1 54.95 4.9 49.9 9.55 45.85 13.2 43.75 14.4 40.3 16.3 35.65 16.3 31.05 16.3 27.55 14.4 25.45 13.2 21.4 9.55 16.35 4.95 12.95 3.1 7.25 0 0 0"/><path fill="#9DB9D9" stroke="none" d="M570.2 2L570.2 0Q562.95 0 557.25 3.1 553.8 4.95 548.85 9.55 544.8 13.2 542.7 14.4 539.25 16.3 534.6 16.3 529.95 16.3 526.5 14.4 524.3 13.2 520.35 9.55 515.3 4.95 511.9 3.1 506.2 0 498.95 0 491.65 0 485.95 3.1 482.6 4.9 477.55 9.55 473.5 13.2 471.4 14.4 467.95 16.3 463.3 16.3 458.7 16.3 455.2 14.4 453.1 13.2 449.05 9.55 444 4.9 440.65 3.1 434.95 0 427.65 0 420.4 0 414.7 3.1 411.25 4.95 406.3 9.55 402.25 13.2 400.15 14.4 396.7 16.3 392.05 16.3 387.4 16.3 383.95 14.4 381.75 13.2 377.8 9.55 372.75 4.95 369.35 3.1 363.65 0 356.4 0 349.1 0 343.4 3.1 340.05 4.9 335 9.55 330.95 13.2 328.85 14.4 325.4 16.3 320.75 16.3 316.15 16.3 312.65 14.4 310.55 13.2 306.5 9.55 301.45 4.9 298.1 3.1 292.4 0 285.1 0L285.1 2Q291.85 2 297.25 4.95 300.4 6.65 305.15 11 309.35 14.8 311.7 16.1 315.65 18.3 320.75 18.3 325.85 18.3 329.8 16.1 332.15 14.8 336.35 11 341.1 6.65 344.3 4.95 349.65 2 356.4 2 363.15 2 368.5 4.95 371.6 6.65 376.45 11 380.55 14.8 383 16.1 386.9 18.3 392.05 18.3 397.15 18.3 401.1 16.1 403.45 14.8 407.65 11 412.4 6.65 415.55 4.95 420.9 2 427.65 2 434.4 2 439.8 4.95 442.95 6.65 447.7 11 451.9 14.8 454.25 16.1 458.2 18.3 463.3 18.3 468.45 18.3 472.4 16.1 474.8 14.8 478.9 11 483.65 6.65 486.85 4.95 492.2 2 498.95 2 505.7 2 511.05 4.95 514.15 6.6 519 11 523.1 14.8 525.55 16.1 529.45 18.3 534.6 18.3 539.7 18.3 543.65 16.1 546 14.8 550.2 11 554.95 6.65 558.1 4.95 563.45 2 570.2 2Z"/><path id="Layer4_0_1_STROKES" stroke="#9DB9D9" stroke-width=".2" stroke-linejoin="miter" stroke-linecap="butt" stroke-miterlimit="10" fill="none" d="M285.1 2Q291.85 2 297.25 4.95 300.4 6.65 305.15 11 309.35 14.8 311.7 16.1 315.65 18.3 320.75 18.3 325.85 18.3 329.8 16.1 332.15 14.8 336.35 11 341.1 6.65 344.3 4.95 349.65 2 356.4 2 363.15 2 368.5 4.95 371.6 6.65 376.45 11 380.55 14.8 383 16.1 386.9 18.3 392.05 18.3 397.15 18.3 401.1 16.1 403.45 14.8 407.65 11 412.4 6.65 415.55 4.95 420.9 2 427.65 2 434.4 2 439.8 4.95 442.95 6.65 447.7 11 451.9 14.8 454.25 16.1 458.2 18.3 463.3 18.3 468.45 18.3 472.4 16.1 474.8 14.8 478.9 11 483.65 6.65 486.85 4.95 492.2 2 498.95 2 505.7 2 511.05 4.95 514.15 6.6 519 11 523.1 14.8 525.55 16.1 529.45 18.3 534.6 18.3 539.7 18.3 543.65 16.1 546 14.8 550.2 11 554.95 6.65 558.1 4.95 563.45 2 570.2 2L570.2 0Q562.95 0 557.25 3.1 553.8 4.95 548.85 9.55 544.8 13.2 542.7 14.4 539.25 16.3 534.6 16.3 529.95 16.3 526.5 14.4 524.3 13.2 520.35 9.55 515.3 4.95 511.9 3.1 506.2 0 498.95 0 491.65 0 485.95 3.1 482.6 4.9 477.55 9.55 473.5 13.2 471.4 14.4 467.95 16.3 463.3 16.3 458.7 16.3 455.2 14.4 453.1 13.2 449.05 9.55 444 4.9 440.65 3.1 434.95 0 427.65 0 420.4 0 414.7 3.1 411.25 4.95 406.3 9.55 402.25 13.2 400.15 14.4 396.7 16.3 392.05 16.3 387.4 16.3 383.95 14.4 381.75 13.2 377.8 9.55 372.75 4.95 369.35 3.1 363.65 0 356.4 0 349.1 0 343.4 3.1 340.05 4.9 335 9.55 330.95 13.2 328.85 14.4 325.4 16.3 320.75 16.3 316.15 16.3 312.65 14.4 310.55 13.2 306.5 9.55 301.45 4.9 298.1 3.1 292.4 0 285.1 0L285.1 2Z"/></g></g></svg>