<svg xmlns="http://www.w3.org/2000/svg" viewBox="0 0 63 63"><defs><style>.a{fill:#ff7d46;}.b{fill:#ff5a3c;}.c{fill:#ebf3fc;}</style></defs><title>info_simple</title><path class="a" d="M54,1.5H9A7.5,7.5,0,0,0,1.5,9V42.75A7.5,7.5,0,0,0,9,50.25H19.78a.47.47,0,0,1,.47.47v9.37a1.41,1.41,0,0,0,2.24,1.14L37,50.34a.47.47,0,0,1,.28-.09H54a7.5,7.5,0,0,0,7.5-7.5V9A7.5,7.5,0,0,0,54,1.5Z"/><path class="b" d="M21.66,63a3,3,0,0,1-1.32-.32,2.89,2.89,0,0,1-1.59-2.59V51.75H9a9,9,0,0,1-9-9V9A9,9,0,0,1,9,0H54a9,9,0,0,1,9,9V42.75a9,9,0,0,1-9,9H37.62L23.39,62.43A2.91,2.91,0,0,1,21.66,63ZM9,3A6,6,0,0,0,3,9V42.75a6,6,0,0,0,6,6H19.78a2,2,0,0,1,2,2v9.19L36.1,49.14a2,2,0,0,1,1.18-.39H54a6,6,0,0,0,6-6V9a6,6,0,0,0-6-6Z"/><path class="c" d="M27.11,34.67h1.16V26.32H27.11A1.14,1.14,0,0,1,26,25.17V22.41a1.14,1.14,0,0,1,1.15-1.15h6.47a1.15,1.15,0,0,1,1.15,1.15V34.67h1.16A1.15,1.15,0,0,1,37,35.82v2.76a1.15,1.15,0,0,1-1.15,1.15H27.11A1.14,1.14,0,0,1,26,38.58V35.82A1.14,1.14,0,0,1,27.11,34.67ZM31.5,9.73a4.16,4.16,0,1,0,4.16,4.16A4.16,4.16,0,0,0,31.5,9.73Z"/></svg>