<?xml version="1.0" encoding="utf-8"?>
<!-- Generator: Adobe Illustrator 23.0.3, SVG Export Plug-In . SVG Version: 6.00 Build 0)  -->
<svg version="1.1" id="Layer_1" xmlns="http://www.w3.org/2000/svg" xmlns:xlink="http://www.w3.org/1999/xlink" x="0px" y="0px"
	 viewBox="0 0 130.3 130" style="enable-background:new 0 0 130.3 130;" xml:space="preserve">
<style type="text/css">
	.st0{display:none;}
	.st1{display:inline;}
	.st2{fill:#EBF3FC;}
	.st3{fill:#99C5F1;}
	.st4{fill:#006EDC;}
	.st5{fill:#6ADBB8;}
	.st6{fill:#00C08B;}
	.st7{fill:#AB5BD3;}
	.st8{fill:#9632C8;}
	.st9{fill:#FFB4B4;}
</style>
<g class="st0">
	<g class="st1">
		<g>
			<g>
				<rect x="2" y="1.9" class="st2" width="147" height="122.5"/>
				<path class="st3" d="M147.5,3.4v119.5H3.5V3.4H147.5 M150.5,0.4H0.5v150h150V0.4L150.5,0.4z"/>
			</g>
		</g>
		<g>
			<circle class="st4" cx="40.4" cy="138.1" r="5"/>
			<path class="st4" d="M32.7,138.1c0-0.5,0-1,0.2-1.5H13v3h19.8C32.7,139.1,32.7,138.6,32.7,138.1z"/>
			<path class="st4" d="M47.9,136.6c0.1,0.5,0.2,1,0.2,1.5s0,1-0.2,1.5H138v-3H47.9z"/>
		</g>
		<g>
			<g>
				<rect x="13" y="13.3" class="st3" width="28.9" height="3"/>
			</g>
			<g>
				<rect x="71.7" y="13.3" class="st3" width="66.4" height="3"/>
			</g>
			<g>
				<rect x="50.9" y="13.3" class="st3" width="12.4" height="3"/>
			</g>
		</g>
		<g>
			<g>
				<rect x="109.2" y="110.1" class="st3" width="28.9" height="3"/>
			</g>
			<g>
				<rect x="13" y="110.1" class="st3" width="66.4" height="3"/>
			</g>
			<g>
				<rect x="87.7" y="110.1" class="st3" width="12.4" height="3"/>
			</g>
		</g>
		<g>
			<g>
				<circle class="st5" cx="75.5" cy="63.2" r="32.5"/>
				<path class="st6" d="M75.5,97.1c-18.7,0-33.9-15.2-33.9-33.9s15.2-33.9,33.9-33.9s33.9,15.2,33.9,33.9S94.2,97.1,75.5,97.1z
					 M75.5,32.1c-17.2,0-31.1,14-31.1,31.1s14,31.1,31.1,31.1s31.1-13.9,31.1-31.1S92.7,32.1,75.5,32.1z"/>
			</g>
			<polygon class="st2" points="66.3,46.3 95.5,63.2 66.3,80.1 			"/>
		</g>
	</g>
</g>
<g class="st0">
	<g class="st1">
		<g>
			<g>
				<rect x="2" y="1.9" class="st2" width="147" height="122.5"/>
				<path class="st3" d="M147.5,3.4v119.5H3.5V3.4H147.5 M150.5,0.4H0.5v150h150V0.4L150.5,0.4z"/>
			</g>
		</g>
		<g>
			<g>
				<rect x="13" y="13.3" class="st3" width="28.9" height="3"/>
			</g>
			<g>
				<rect x="71.7" y="13.3" class="st3" width="66.4" height="3"/>
			</g>
			<g>
				<rect x="50.9" y="13.3" class="st3" width="12.4" height="3"/>
			</g>
		</g>
		<g>
			<g>
				<rect x="108.2" y="110.1" class="st3" width="29.9" height="3"/>
			</g>
		</g>
		<g>
			<path class="st3" d="M84.4,69.6H38.7c-7,0-12.7,5.7-12.7,12.7v45.3h26.5l-0.2,0l9.3,9.3l0-9.3h22.9c7,0,12.7-5.7,12.7-12.7V82.3
				C97.2,75.3,91.5,69.6,84.4,69.6z"/>
			<g>
				<path class="st4" d="M63.1,140.7l-11.5-11.5H46v-3h6.8l7.2,7.2v-7.2h24.5c6.2,0,11.3-5.1,11.3-11.3V82.3
					c0-6.2-5.1-11.3-11.3-11.3H38.6c-6.2,0-11.3,5.1-11.3,11.3v40.7h-3V82.3c0-7.9,6.4-14.3,14.3-14.3h45.9
					c7.9,0,14.3,6.4,14.3,14.3V115c0,7.9-6.4,14.3-14.3,14.3H63.1L63.1,140.7z"/>
			</g>
			<g>
				<rect x="33.3" y="126.2" class="st4" width="6.1" height="3.1"/>
			</g>
			<g>
				<rect x="34.5" y="83.6" class="st2" width="30.9" height="5.3"/>
				<rect x="34.5" y="95.9" class="st2" width="43.7" height="5.3"/>
				<rect x="34.5" y="108.1" class="st2" width="43.7" height="5.3"/>
				<rect x="84.4" y="108.1" class="st2" width="5.3" height="5.3"/>
			</g>
			<g>
				<path class="st7" d="M128.4,60.4c0-16.1-14-29.1-31.3-29.1c-17.3,0-31.3,13-31.3,29.1s14,29.1,31.3,29.1c4,0,7.8-0.7,11.3-1.9
					l8.3,8.3V83.1C123.8,77.7,128.4,69.6,128.4,60.4z"/>
				<path class="st8" d="M118.2,99.5l-10.2-10.2c-3.5,1.1-7.1,1.7-10.9,1.7C79,91,64.3,77.2,64.3,60.3S79,29.7,97.1,29.7
					s32.8,13.7,32.8,30.6c0,9.1-4.3,17.6-11.7,23.5V99.5z M108.7,85.8l6.4,6.4v-9.9l0.6-0.4c7.1-5.3,11.1-13.1,11.1-21.5
					c0-15.2-13.4-27.6-29.8-27.6S67.3,45.1,67.3,60.4C67.3,75.6,80.7,88,97.1,88c3.7,0,7.3-0.6,10.8-1.9L108.7,85.8z"/>
			</g>
			<g>
				<g>
					<path class="st9" d="M106.2,68.2c-1,0-1.9-0.8-1.9-1.9v-4.5c0-1.7,1.2-3.1,2.8-3.5c2.1-0.5,3.4-2.3,3.3-4.4
						c-0.1-2.1-1.8-3.8-3.9-3.9c-1.2-0.1-2.3,0.3-3.2,1.1c-0.9,0.8-1.3,1.9-1.3,3.1c0,1-0.8,1.9-1.9,1.9s-1.9-0.8-1.9-1.9
						c0-2.2,0.9-4.3,2.5-5.8c1.6-1.5,3.8-2.3,6-2.1c4,0.3,7.1,3.5,7.4,7.4c0.3,3.9-2.3,7.4-6.1,8.3v4.4
						C108.1,67.3,107.2,68.2,106.2,68.2z"/>
					<path class="st9" d="M106.2,75.6c-0.5,0-1-0.2-1.3-0.6c-0.3-0.3-0.6-0.8-0.6-1.3s0.2-1,0.6-1.3c0.3-0.3,0.8-0.6,1.3-0.6
						s1,0.2,1.3,0.6c0.3,0.3,0.6,0.8,0.6,1.3s-0.2,1-0.6,1.3C107.2,75.4,106.7,75.6,106.2,75.6z"/>
				</g>
				<g>
					<path class="st9" d="M87.9,53.6c1,0,1.9,0.8,1.9,1.9V60c0,1.7-1.2,3.1-2.8,3.5c-2.1,0.5-3.4,2.3-3.3,4.4
						c0.1,2.1,1.8,3.8,3.9,3.9c1.2,0.1,2.3-0.3,3.2-1.1c0.9-0.8,1.3-1.9,1.3-3.1c0-1,0.8-1.9,1.9-1.9s1.9,0.8,1.9,1.9
						c0,2.2-0.9,4.3-2.5,5.8c-1.6,1.5-3.8,2.3-6,2.1c-4-0.3-7.1-3.5-7.4-7.4c-0.3-3.9,2.3-7.4,6.1-8.3v-4.4
						C86.1,54.4,86.9,53.6,87.9,53.6z"/>
					<path class="st9" d="M87.9,46.1c0.5,0,1,0.2,1.3,0.5c0.3,0.3,0.6,0.8,0.6,1.3s-0.2,1-0.6,1.3c-0.3,0.3-0.8,0.5-1.3,0.5
						s-1-0.2-1.3-0.5c-0.3-0.3-0.6-0.8-0.6-1.3s0.2-1,0.6-1.3C86.9,46.3,87.4,46.1,87.9,46.1z"/>
				</g>
			</g>
		</g>
	</g>
</g>
<g id="Layer_4" class="st0">
	<g class="st1">
		<g>
			<polyline class="st3" points="150.5,124 150.5,150.5 0.5,150.5 0.5,124 			"/>
			<g>
				<rect x="2" y="2" class="st2" width="147" height="122.5"/>
				<path class="st3" d="M147.5,3.5V123H3.5V3.5H147.5 M150.5,0.5H0.5v150h150V0.5L150.5,0.5z"/>
			</g>
		</g>
		<g>
			<g>
				<rect x="13" y="13.4" class="st3" width="28.9" height="3"/>
			</g>
			<g>
				<rect x="71.7" y="13.4" class="st3" width="66.4" height="3"/>
			</g>
			<g>
				<rect x="50.9" y="13.4" class="st3" width="12.4" height="3"/>
			</g>
		</g>
		<g>
			<g>
				<rect x="122.7" y="110.2" class="st3" width="15.4" height="3"/>
			</g>
			<g>
				<rect x="13" y="110.2" class="st3" width="35.2" height="3"/>
			</g>
			<g>
				<rect x="101" y="110.2" class="st3" width="13.4" height="3"/>
			</g>
		</g>
		<g>
			<g>
				<g>
					<path class="st3" d="M41.3,54.2l-17-14.6c-0.5-0.4-0.2-1.1,0.4-1.2L47,35.8c0.1,0,0.1,0.1,0.1,0.1l-5.5,18.2
						C41.5,54.2,41.4,54.2,41.3,54.2z"/>
					<path class="st4" d="M41.4,55.7c-0.4,0-0.8-0.1-1-0.4l-17-14.6c-0.7-0.6-0.9-1.5-0.7-2.3s1-1.4,1.8-1.5l23.1-2.7l0.6,0.7
						c0.3,0.4,0.5,1,0.3,1.5l-5.8,19l-0.8,0.3C41.7,55.7,41.5,55.7,41.4,55.7z M26.7,39.7l14,12L45,37.5L26.7,39.7z"/>
				</g>
				<g>
					<path class="st3" d="M116.5,57l3.3,1c5.1,1.6,8,7,6.4,12.1l0,0c-1.6,5.1-7,8-12.1,6.4L41.6,54.3c0,0-0.1-0.1-0.1-0.1l5.6-18.3
						c0,0,0.1-0.1,0.1-0.1l31.3,9.5L116.5,57z"/>
					<path class="st4" d="M117,78.4c-1.1,0-2.2-0.2-3.3-0.5L40.5,55.5l-0.3-0.6c-0.2-0.4-0.2-0.8-0.1-1.2l5.8-18.9l0.6-0.3
						c0.4-0.2,0.8-0.3,1.2-0.1l72.6,22.2c5.9,1.8,9.2,8.1,7.4,13.9C126.2,75.3,121.8,78.4,117,78.4z M43.3,53.3L114.6,75
						c4.3,1.3,8.9-1.1,10.2-5.4c1.3-4.3-1.1-8.9-5.4-10.2L48.1,37.6L43.3,53.3z M48.5,36.3L48.5,36.3C48.5,36.3,48.5,36.3,48.5,36.3
						z"/>
				</g>
				<g>
					<path class="st3" d="M130.3,71.2L130.3,71.2c1.6-5.1-1.3-10.5-6.4-12.1l-8.6-2.6l-5.6,18.5l8.6,2.6
						C123.3,79.2,128.7,76.3,130.3,71.2z"/>
					<path class="st4" d="M121,79.6c-1.1,0-2.2-0.2-3.3-0.5l-10-3.1l6.5-21.4l10,3.1c2.8,0.9,5.2,2.8,6.6,5.4
						c1.4,2.6,1.7,5.6,0.8,8.5c-0.9,2.8-2.8,5.2-5.4,6.6C124.6,79.2,122.8,79.6,121,79.6z M111.5,74.1l7.2,2.2
						c2.1,0.6,4.3,0.4,6.2-0.6c1.9-1,3.3-2.7,4-4.8l0,0c0.6-2.1,0.4-4.3-0.6-6.2c-1-1.9-2.7-3.3-4.8-4l-7.2-2.2L111.5,74.1z"/>
				</g>
				<g>
					<g>
						<path class="st2" d="M63,92.2l-0.3-10.8c0-0.5-0.3-0.9-0.7-1.2c-0.3-0.2-7.1-5-5.9-18.4l6.1,1.8c0.1,0,0.3,0.1,0.4,0.1
							c0.3,0,0.5-0.1,0.7-0.2c0.4-0.2,0.6-0.5,0.7-0.9l1-3.8c0,0,0-0.1,0-0.1c0.1-0.5,4.2-16.9,6.4-25.5c0.4-1.3,1.6-2.3,3.1-2.3
							c0.3,0,0.6,0,0.8,0.1c0.8,0.2,1.5,0.8,1.9,1.5c0.4,0.7,0.5,1.6,0.3,2.4l-0.7,2.5c-0.2,0.7,0.1,1.4,0.8,1.8
							c0.2,0.1,0.4,0.2,0.7,0.2c0.5,0,0.9-0.2,1.2-0.6c0.6-0.8,1.6-1.3,2.6-1.3c0.3,0,0.6,0,0.8,0.1c0.8,0.2,1.5,0.8,1.9,1.5
							c0.4,0.7,0.5,1.6,0.3,2.4l-0.4,1.6c-0.2,0.7,0.1,1.4,0.8,1.8c0.2,0.1,0.4,0.2,0.7,0.2c0.5,0,0.9-0.2,1.2-0.6
							c0.6-0.8,1.6-1.3,2.6-1.3c0.3,0,0.6,0,0.8,0.1c1.7,0.5,2.7,2.2,2.2,3.9L92.8,48c-0.2,0.7,0.1,1.4,0.8,1.7
							c0.2,0.1,0.4,0.2,0.7,0.2c0.4,0,0.9-0.2,1.2-0.6c0.6-0.8,1.6-1.2,2.5-1.2c0.3,0,0.6,0,0.8,0.1c0.8,0.2,1.5,0.8,1.9,1.5
							c0.4,0.7,0.5,1.6,0.3,2.4l-6.1,22.1c0,0.1-0.1,0.2-0.1,0.3c0,0.1-0.1,0.2-0.1,0.3c0,0.2-1.1,5-5.8,7.3
							c-0.5,0.3-0.9,0.8-0.9,1.3v8.7C88,92.2,63,92.2,63,92.2z"/>
						<path class="st3" d="M74.6,32.4L74.6,32.4c0.2,0,0.3,0,0.4,0.1c0.9,0.2,1.4,1.2,1.2,2.1l-0.7,2.5c-0.4,1.4,0.3,2.8,1.6,3.5
							c0.4,0.2,0.9,0.3,1.3,0.3c0.9,0,1.8-0.4,2.4-1.2c0.3-0.4,0.8-0.7,1.4-0.7c0.2,0,0.3,0,0.4,0.1c0.9,0.2,1.4,1.2,1.2,2.1
							l-0.4,1.6c-0.4,1.4,0.3,2.9,1.6,3.5c0.4,0.2,0.9,0.3,1.3,0.3c0.9,0,1.8-0.4,2.4-1.2c0.3-0.4,0.8-0.7,1.4-0.7
							c0.2,0,0.3,0,0.4,0.1c0.4,0.1,0.8,0.4,1,0.8c0.2,0.4,0.3,0.8,0.2,1.3l-0.3,0.9c-0.4,1.4,0.3,2.8,1.5,3.5
							c0.4,0.2,0.9,0.3,1.3,0.3c0.9,0,1.8-0.4,2.4-1.2c0.3-0.4,0.8-0.7,1.3-0.7c0.2,0,0.3,0,0.4,0.1c0.9,0.2,1.4,1.2,1.2,2.1
							l-6.2,22.1c0,0.1,0,0.1-0.1,0.2c-0.1,0.2-0.1,0.3-0.2,0.5c0,0.2-0.9,4.3-5,6.2c-1.1,0.5-1.7,1.6-1.7,2.7v7.2h-22l-0.2-9.3
							c0-1-0.5-1.9-1.3-2.4c-0.3-0.2-5.8-4.2-5.4-15.2l4.3,1.3c0.3,0.1,0.6,0.1,0.9,0.1c0.5,0,1-0.1,1.5-0.4
							c0.7-0.4,1.2-1.1,1.4-1.9l1-3.8c0,0,0-0.1,0-0.1c0.2-0.9,4.7-18.6,6.4-25.5C73.1,32.9,73.8,32.4,74.6,32.4 M74.6,29.4
							c-2.1,0-3.9,1.4-4.5,3.4c0,0-6.4,25.4-6.4,25.6l-1,3.8l-7.8-2.4c-2.2,16,6.4,21.6,6.4,21.6l0.3,12.3h28V83.5
							c5.6-2.7,6.6-8.4,6.6-8.4l0,0c0.1-0.2,0.1-0.3,0.2-0.5l6.2-22.1c0.7-2.5-0.8-5.1-3.3-5.8l0,0c-0.4-0.1-0.8-0.2-1.3-0.2
							c-1.4,0-2.8,0.7-3.7,1.8l0.3-0.9c0.7-2.5-0.8-5.1-3.3-5.8c-0.4-0.1-0.8-0.2-1.2-0.2c-1.5,0-2.9,0.7-3.8,2l0.4-1.6
							c0.7-2.5-0.8-5.1-3.3-5.8C82.9,36,82.5,36,82.1,36c-1.5,0-2.9,0.7-3.8,1.9l0.7-2.5c0.7-2.5-0.8-5.1-3.3-5.8l0,0
							C75.4,29.5,75,29.4,74.6,29.4L74.6,29.4z"/>
					</g>
					<rect x="58.4" y="92.5" class="st3" width="33.6" height="46"/>
					<g>
						<polygon class="st4" points="93.5,128.1 90.5,128.1 90.5,94 59.9,94 59.9,123.1 56.9,123.1 56.9,91 93.5,91 						"/>
					</g>
					<g>
						<rect x="56.9" y="128.3" class="st4" width="3" height="10.1"/>
					</g>
				</g>
			</g>
			<g>
				
					<rect x="70.6" y="48.5" transform="matrix(0.2773 -0.9608 0.9608 0.2773 6.0233 108.0971)" class="st3" width="8.6" height="3"/>
			</g>
			<g>
				<rect x="78" y="53.6" transform="matrix(0.2564 -0.9666 0.9666 0.2564 7.9818 120.515)" class="st3" width="8.6" height="3"/>
			</g>
			<g>
				
					<rect x="86.2" y="58.2" transform="matrix(0.2595 -0.9657 0.9657 0.2595 9.3787 131.6785)" class="st3" width="8.6" height="3"/>
			</g>
		</g>
	</g>
</g>
<g id="Layer_5" class="st0">
	<g class="st1">
		<g>
			<g>
				<rect x="2" y="2" class="st2" width="147" height="122.5"/>
				<path class="st3" d="M147.5,3.5V123H3.5V3.5H147.5 M150.5,0.5H0.5v150h150V0.5L150.5,0.5z"/>
			</g>
		</g>
		<g>
			<g>
				<rect x="13" y="13.4" class="st3" width="28.9" height="3"/>
			</g>
			<g>
				<rect x="71.7" y="13.4" class="st3" width="66.4" height="3"/>
			</g>
			<g>
				<rect x="50.9" y="13.4" class="st3" width="12.4" height="3"/>
			</g>
		</g>
		<g>
			<g>
				<rect x="108.2" y="110.2" class="st3" width="29.9" height="3"/>
			</g>
		</g>
		<g>
			<path class="st2" d="M84.5,69.7H38.7c-7,0-12.7,5.7-12.7,12.7v45.3h26.5l-0.2,0l9.3,9.3l0-9.3h22.9c7,0,12.7-5.7,12.7-12.7V82.4
				C97.2,75.4,91.5,69.7,84.5,69.7z"/>
			<g>
				<path class="st4" d="M63.1,140.8l-11.5-11.5h-5.6v-3h6.8l7.2,7.2v-7.2h24.5c6.2,0,11.3-5.1,11.3-11.3V82.3
					c0-6.2-5.1-11.3-11.3-11.3H38.6c-6.2,0-11.3,5.1-11.3,11.3V123h-3V82.3c0-7.9,6.4-14.3,14.3-14.3h45.9c7.9,0,14.3,6.4,14.3,14.3
					v32.7c0,7.9-6.4,14.3-14.3,14.3H63.1L63.1,140.8z"/>
			</g>
			<g>
				<rect x="33.3" y="126.3" class="st4" width="6.1" height="3.1"/>
			</g>
			<g>
				<rect x="34.5" y="83.7" class="st3" width="30.9" height="5.3"/>
				<rect x="34.5" y="95.9" class="st3" width="43.7" height="5.3"/>
				<rect x="34.5" y="108.2" class="st3" width="43.7" height="5.3"/>
				<rect x="84.4" y="108.2" class="st3" width="5.3" height="5.3"/>
			</g>
			<g>
				<path class="st3" d="M128.4,60.4c0-16.1-14-29.1-31.3-29.1c-17.3,0-31.3,13-31.3,29.1s14,29.1,31.3,29.1c4,0,7.8-0.7,11.3-1.9
					l8.3,8.3V83.2C123.8,77.8,128.4,69.6,128.4,60.4z"/>
				<path class="st4" d="M118.2,99.6L108,89.3c-3.5,1.1-7.1,1.7-10.9,1.7c-18.1,0-32.8-13.8-32.8-30.6S79,29.8,97.1,29.8
					s32.8,13.7,32.8,30.6c0,9.1-4.3,17.6-11.7,23.5V99.6z M108.8,85.9l6.4,6.4v-9.9l0.6-0.4c7.1-5.3,11.1-13.1,11.1-21.5
					c0-15.2-13.4-27.6-29.8-27.6S67.3,45.2,67.3,60.4s13.4,27.6,29.8,27.6c3.7,0,7.3-0.6,10.8-1.9L108.8,85.9z"/>
			</g>
			<g>
				<g>
					<path class="st4" d="M106.2,68.2c-1,0-1.9-0.8-1.9-1.9v-4.5c0-1.7,1.2-3.1,2.8-3.5c2.1-0.5,3.4-2.3,3.3-4.4
						c-0.1-2.1-1.8-3.8-3.9-3.9c-1.2-0.1-2.3,0.3-3.2,1.1c-0.9,0.8-1.3,1.9-1.3,3.1c0,1-0.8,1.9-1.9,1.9s-1.9-0.8-1.9-1.9
						c0-2.2,0.9-4.3,2.5-5.8c1.6-1.5,3.8-2.3,6-2.1c4,0.3,7.1,3.5,7.4,7.4c0.3,3.9-2.3,7.4-6.1,8.3v4.4
						C108.1,67.4,107.3,68.2,106.2,68.2z"/>
					<path class="st4" d="M106.2,75.7c-0.5,0-1-0.2-1.3-0.6c-0.3-0.3-0.6-0.8-0.6-1.3s0.2-1,0.6-1.3c0.3-0.3,0.8-0.6,1.3-0.6
						s1,0.2,1.3,0.6c0.3,0.3,0.6,0.8,0.6,1.3s-0.2,1-0.6,1.3C107.2,75.5,106.7,75.7,106.2,75.7z"/>
				</g>
				<g>
					<path class="st4" d="M88,53.7c1,0,1.9,0.8,1.9,1.9v4.5c0,1.7-1.2,3.1-2.8,3.5C85,64,83.6,65.9,83.8,68c0.1,2.1,1.8,3.8,3.9,3.9
						c1.2,0.1,2.3-0.3,3.2-1.1c0.9-0.8,1.3-1.9,1.3-3.1c0-1,0.8-1.9,1.9-1.9s1.9,0.8,1.9,1.9c0,2.2-0.9,4.3-2.5,5.8
						c-1.6,1.5-3.8,2.3-6,2.1c-4-0.3-7.1-3.5-7.4-7.4c-0.3-3.9,2.3-7.4,6.1-8.3v-4.4C86.1,54.5,86.9,53.7,88,53.7z"/>
					<path class="st4" d="M88,46.2c0.5,0,1,0.2,1.3,0.5c0.3,0.3,0.6,0.8,0.6,1.3s-0.2,1-0.6,1.3C88.9,49.8,88.5,50,88,50
						s-1-0.2-1.3-0.5c-0.3-0.3-0.6-0.8-0.6-1.3s0.2-1,0.6-1.3C87,46.4,87.5,46.2,88,46.2z"/>
				</g>
			</g>
		</g>
	</g>
</g>
<g id="Layer_6" class="st0">
	<g class="st1">
		<g>
			<g>
				<rect x="2" y="2" class="st2" width="147" height="122.5"/>
				<path class="st3" d="M147.5,3.5V123H3.5V3.5H147.5 M150.5,0.5H0.5v150h150V0.5L150.5,0.5z"/>
			</g>
		</g>
		<g>
			<circle class="st4" cx="40.4" cy="138.2" r="5"/>
			<path class="st4" d="M32.7,138.2c0-0.5,0-1,0.2-1.5H13v3h19.8C32.8,139.2,32.7,138.7,32.7,138.2z"/>
			<path class="st4" d="M47.9,136.7c0.1,0.5,0.2,1,0.2,1.5s0,1-0.2,1.5H138v-3H47.9z"/>
		</g>
		<g>
			<g>
				<rect x="13" y="13.4" class="st3" width="28.9" height="3"/>
			</g>
			<g>
				<rect x="71.7" y="13.4" class="st3" width="66.4" height="3"/>
			</g>
			<g>
				<rect x="50.9" y="13.4" class="st3" width="12.4" height="3"/>
			</g>
		</g>
		<g>
			<g>
				<rect x="109.2" y="110.2" class="st3" width="28.9" height="3"/>
			</g>
			<g>
				<rect x="13" y="110.2" class="st3" width="66.4" height="3"/>
			</g>
			<g>
				<rect x="87.7" y="110.2" class="st3" width="12.4" height="3"/>
			</g>
		</g>
		<g>
			<g>
				<circle class="st3" cx="75.5" cy="63.3" r="32.5"/>
				<path class="st4" d="M75.5,97.2c-18.7,0-33.9-15.2-33.9-33.9s15.2-33.9,33.9-33.9s33.9,15.2,33.9,33.9S94.2,97.2,75.5,97.2z
					 M75.5,32.2c-17.2,0-31.1,14-31.1,31.1s14,31.1,31.1,31.1s31.1-13.9,31.1-31.1S92.7,32.2,75.5,32.2z"/>
			</g>
			<polygon class="st2" points="66.3,46.4 95.6,63.3 66.3,80.1 			"/>
		</g>
	</g>
</g>
<g>
	<g>
		<path class="st4" d="M127.9,24.9c-0.9-2.2-2.6-4-4.8-5L81.6,1.8c-2.2-1-4.7-1-6.9-0.1c-2.2,0.9-4,2.6-5,4.8L56.2,37.6
			c-1,2.2-1,4.7-0.1,6.9c0.9,2.2,2.6,4,4.8,5l9,3.9l-3.4,7.7c-0.4,1-0.3,2.2,0.4,3c0.7,0.9,1.8,1.2,2.9,1L87.3,61l15.1,6.6
			c1.2,0.5,2.4,0.8,3.6,0.8c1.1,0,2.2-0.2,3.3-0.6c2.2-0.9,4-2.6,5-4.8l13.5-31.1C128.8,29.6,128.8,27.1,127.9,24.9z"/>
		<g>
			<path class="st2" d="M83.2,43l1.2,0.5L88,35l-1.2-0.5c-0.7-0.3-1-1-0.7-1.7l1.2-2.8c0.3-0.7,1-1,1.7-0.7l6.7,2.8
				c0.7,0.3,1,1,0.7,1.7l-5.2,12.6l1.2,0.5c0.7,0.3,1,1,0.7,1.7l-1.2,2.8c-0.3,0.7-1,1-1.7,0.7l-9-3.8c-0.7-0.3-1-1-0.7-1.7l1.2-2.8
				C81.8,43.1,82.6,42.8,83.2,43z M98.6,18.9c-2.4-1-5.1,0.1-6.1,2.5c-1,2.4,0.1,5.1,2.5,6.1c2.4,1,5.1-0.1,6.1-2.5
				C102.1,22.6,100.9,19.9,98.6,18.9z"/>
		</g>
	</g>
	<g>
		<g>
			<path class="st3" d="M21.4,104.7c0,0-3.1-14.5-4.4-20c-1.1-4.5-6.4-7.8-9.1-11.3c-1.3-1.7-2.7-3.8-2.4-6.1c0.2-1.3,1-2.5,1.5-3.7
				c0.7-1.8,1.3-3.6,1.6-5.5C8.9,56,9,53.8,8.8,51.8l-6-23.9c-0.5-2.1,0.2-4.3,2-5.5C5.9,21.6,7,21.5,8,21.7c1.7,0.3,3,1.7,3.5,3.4
				l5.2,18.2c5.9-5.7,10.2-0.3,10.2-0.3c7.1-2.6,10.7,4.1,10.7,4.1c16.7,5.2,10.2,23.4,5.4,32.2c-0.1,0.2-0.1,0.5-0.1,0.7l4.2,18.7
				L21.4,104.7z"/>
			<path class="st4" d="M21.4,105.9c-0.2,0-0.5-0.1-0.7-0.2c-0.3-0.2-0.5-0.5-0.6-0.8c0-0.1-3.1-14.6-4.4-20
				c-0.6-2.6-3.1-4.9-5.4-7.1c-1.3-1.2-2.5-2.4-3.5-3.7c-1.4-1.8-3-4.3-2.6-7c0.2-1.1,0.6-2.1,1.1-2.9c0.2-0.4,0.4-0.7,0.5-1.1
				c0.7-1.7,1.2-3.4,1.5-5.2c0.4-2.2,0.4-4.2,0.2-5.9L1.6,28.2C1,25.6,2,22.8,4.1,21.3c1.2-0.9,2.7-1.2,4.1-0.9
				c2.1,0.4,3.8,2.1,4.4,4.3l4.7,16.4c1.7-1.2,3.5-1.8,5.3-1.7c2.2,0.1,3.8,1.3,4.6,2.1c5.6-1.7,9.6,1.9,11.2,4.5
				c4.9,1.6,8.3,4.5,10,8.6c3.6,8.9-1.8,20.5-4.3,25.1l4.2,18.7c0.2,0.7-0.3,1.3-0.9,1.5l-25.6,6C21.6,105.9,21.5,105.9,21.4,105.9z
				 M7.1,22.9c-0.6,0-1.1,0.2-1.6,0.5c-1.3,0.9-1.9,2.6-1.4,4.2l6,23.9c0,0.1,0,0.1,0,0.2c0.2,2,0.2,4.3-0.2,6.7
				c-0.3,2-0.9,3.9-1.6,5.8C8,64.5,7.7,65,7.5,65.4c-0.4,0.7-0.7,1.4-0.8,2.1c-0.3,1.8,1,3.7,2.1,5.1c0.9,1.1,2,2.2,3.3,3.4
				c2.6,2.5,5.3,5,6.1,8.4c1.1,4.5,3.4,15.2,4.2,18.8l23.2-5.5l-4-17.5c-0.1-0.5,0-1.1,0.2-1.6c1.8-3.3,7.5-14.9,4.2-23.1
				c-1.4-3.5-4.4-6-8.8-7.4c-0.3-0.1-0.6-0.3-0.7-0.6c-0.1-0.2-3.2-5.7-9.2-3.5c-0.5,0.2-1.1,0-1.4-0.4c0,0-1.4-1.7-3.5-1.8
				c-1.6-0.1-3.2,0.7-4.9,2.3c-0.3,0.3-0.8,0.4-1.2,0.3c-0.4-0.1-0.8-0.4-0.9-0.9l-5.2-18.2c-0.4-1.3-1.4-2.3-2.5-2.5
				C7.5,22.9,7.3,22.9,7.1,22.9z"/>
		</g>
		<g>
			<path class="st4" d="M36.8,68c-0.1,0-0.3,0-0.4,0c-0.1,0-0.1,0-0.2,0c-0.2,0-1.8-0.4-2.9-2.4c-1.9-3.5-1-9.8,2.7-18.7
				c0.3-0.6,1-0.9,1.6-0.7c0.6,0.3,0.9,1,0.7,1.6c-4.4,10.5-3.7,14.8-2.9,16.4c0.4,0.9,1,1.2,1.2,1.2c1.1,0,2-0.3,2.6-0.9
				c1.1-1.1,1.5-3.3,1.3-6.2C40.5,57.6,41,57,41.7,57c0.7-0.1,1.3,0.5,1.3,1.1c0.3,3.8-0.4,6.5-2,8.2C40,67.4,38.6,68,36.8,68z"/>
		</g>
		<g>
			<path class="st4" d="M29.8,65.7c-3,0-5.6-2.3-6.1-5.3c-0.5-3.1-0.5-8.6,1.7-16.9c0.2-0.7,0.9-1.1,1.5-0.9
				c0.7,0.2,1.1,0.9,0.9,1.5c-2.1,7.9-2,13-1.6,15.9c0.3,2,2.1,3.4,4,3.2c1.4-0.2,2.5-0.6,2.5-0.6c0.6-0.3,1.4,0.1,1.6,0.7
				c0.3,0.6-0.1,1.4-0.7,1.6c-0.1,0-1.4,0.6-3.1,0.8C30.3,65.7,30.1,65.7,29.8,65.7z"/>
		</g>
		<g>
			<path class="st4" d="M8.9,54.2c-0.4,0-0.9-0.2-1.1-0.6c-0.3-0.6-0.1-1.4,0.5-1.7c11.7-6.5,16.8-1.7,17-1.4c0.5,0.5,0.5,1.3,0,1.8
				c-0.5,0.5-1.3,0.5-1.8,0c0,0-4.1-3.7-14,1.9C9.3,54.2,9.1,54.2,8.9,54.2z"/>
		</g>
		<g>
			<path class="st4" d="M18.8,62c-1.8,0-3.8-0.6-5.9-2.2c-0.6-0.4-0.7-1.2-0.3-1.8s1.2-0.7,1.8-0.3c5,3.8,8.4,0.1,8.7-0.4
				c0.4-0.5,1.2-0.6,1.8-0.2c0.5,0.4,0.6,1.2,0.2,1.8C24,60.4,21.7,62,18.8,62z"/>
		</g>
		<g>
			<path class="st4" d="M13.8,69.9c-0.4,0-0.8-0.2-1-0.5c-0.4-0.6-0.3-1.3,0.3-1.7c4.3-3.1,5.2-7,5.2-7c0.1-0.7,0.8-1.1,1.5-1
				c0.7,0.1,1.1,0.8,1,1.5c0,0.2-1,4.8-6.2,8.5C14.3,69.8,14,69.9,13.8,69.9z"/>
		</g>
		<g>
			<path class="st4" d="M14.5,51.7c0,0-0.1,0-0.1,0c-0.7-0.1-1.2-0.7-1.1-1.4c0.4-4.6,2.2-7.6,2.3-7.7c0.4-0.6,1.1-0.8,1.7-0.4
				c0.6,0.4,0.8,1.1,0.4,1.7c0,0.1-1.6,2.7-1.9,6.7C15.7,51.2,15.2,51.7,14.5,51.7z"/>
		</g>
		<path class="st4" d="M53.7,107.4l-4.4-17.3c-0.2-0.6-0.6-1.2-1.1-1.5c-0.6-0.3-1.2-0.4-1.9-0.3l-28,7.2c-1.3,0.3-2.1,1.7-1.8,3
			l4.4,17.2c1.1,4.4,3.9,8.1,7.8,10.4c2.7,1.6,5.6,2.4,8.6,2.4c1.4,0,2.8-0.2,4.3-0.5C50.5,125.7,56,116.5,53.7,107.4z"/>
	</g>
</g>
</svg>
