<?xml version="1.0" encoding="utf-8"?>
<!-- Generator: Adobe Illustrator 23.0.6, SVG Export Plug-In . SVG Version: 6.00 Build 0)  -->
<svg version="1.1" id="Layer_1" xmlns="http://www.w3.org/2000/svg" xmlns:xlink="http://www.w3.org/1999/xlink" x="0px" y="0px"
	 viewBox="0 0 151 151" style="enable-background:new 0 0 151 151;" xml:space="preserve">
<style type="text/css">
	.st0{fill:#A0EB58;}
	.st1{fill:none;stroke:#64A028;stroke-width:3;stroke-linecap:round;stroke-miterlimit:10;}
	.st2{fill:#EBF3FC;}
	.st3{fill:#99C5F1;}
	.st4{fill:#006EDC;}
	.st5{fill:#6A757D;}
	.st6{fill:#96FA32;}
	.st7{fill:#5AAA00;}
	.st8{display:none;}
	.st9{display:inline;}
	.st10{fill:#FFD796;}
	.st11{fill:#FFBC50;}
	.st12{fill:#FF9628;}
	.st13{fill:#FF7B8B;}
	.st14{fill:#FF5A6E;}
	.st15{fill:#AB5BD3;}
	.st16{fill:#9632C8;}
	.st17{fill:#FFB4B4;}
</style>
<g>
	<g>
		<g id="XMLID_7_">
			<g>
				<path class="st0" d="M123,118.6c0.7,0.7,1,1.6,1,2.4c0,1.8-1.4,3.6-3.6,3.6H77.5c-2.1,0-3.6-1.7-3.6-3.6c0-0.8,0.3-1.7,1-2.4
					c2.2-2.3,6.2-5.8,6.2-17.2c0-8.6,6-15.6,14.2-17.3c0,0,0.1,0,0.1-0.1v-2.3c0-2.2,2-3.9,4.2-3.5c1.7,0.3,2.9,1.9,2.9,3.7V84
					c0,0,0,0.1,0.1,0.1c8.2,1.7,14.2,8.7,14.2,17.3C116.8,112.8,120.8,116.2,123,118.6z"/>
				<path class="st0" d="M106,131.2C106,131.2,106.1,131.2,106,131.2c0,4-3.1,7.1-7.1,7.1c-3.9,0-7.1-3.1-7.1-7c0,0,0-0.1,0.1-0.1
					H106z"/>
			</g>
			<g>
				<path class="st1" d="M98.9,138.3c3.9,0,7.1-3.1,7.1-7c0,0,0-0.1-0.1-0.1H91.9c0,0-0.1,0-0.1,0.1C91.9,135.2,95,138.3,98.9,138.3
					z"/>
				<path class="st1" d="M123,118.6c-2.2-2.3-6.2-5.8-6.2-17.2c0-8.6-6-15.6-14.2-17.3c0,0-0.1,0-0.1-0.1v-2.1
					c0-1.8-1.2-3.4-2.9-3.7c-2.3-0.4-4.2,1.3-4.2,3.5V84c0,0,0,0.1-0.1,0.1c-8.2,1.7-14.2,8.7-14.2,17.3c0,11.4-4,14.9-6.2,17.2
					c-0.7,0.7-1,1.6-1,2.4c0,1.8,1.4,3.6,3.6,3.6h42.8c2.1,0,3.6-1.7,3.6-3.6C124,120.1,123.7,119.3,123,118.6z"/>
			</g>
		</g>
		<g>
			<g>
				<g>
					<rect x="2" y="1.9" class="st2" width="147" height="122.5"/>
					<path class="st3" d="M147.5,3.4v119.5H3.5V3.4H147.5 M150.5,0.4H0.5v150h150V0.4L150.5,0.4z"/>
				</g>
			</g>
			<g>
				<g>
					<rect x="13" y="13.3" class="st3" width="28.9" height="3"/>
				</g>
				<g>
					<rect x="71.7" y="13.3" class="st3" width="66.4" height="3"/>
				</g>
				<g>
					<rect x="50.9" y="13.3" class="st3" width="12.4" height="3"/>
				</g>
			</g>
		</g>
		<g>
			<path class="st3" d="M88.9,137.4H37.1c-5.6,0-10.1-4.5-10.1-10.1V49.9c0-5.6,4.5-10.1,10.1-10.1H99v87.5
				C99,132.9,94.5,137.4,88.9,137.4z"/>
			<g>
				<path class="st4" d="M73.1,139.7H33c-3.3,0-7.4-4.3-7.4-9.4V47.8c0-5.8,4.7-10.5,10.5-10.5h64.4v33.4h-3V40.3H36
					c-4.1,0-7.5,3.3-7.5,7.5v82.5c0,3.6,2.9,6.4,4.4,6.4h40.1V139.7z"/>
			</g>
			<g>
				<path class="st5" d="M48.8,37.3v-0.6c0-3.9-3.2-7-7-7c-3.9,0-7,3.2-7,7v21.7c0,3.9,3.2,7,7,7c3.9,0,7-3.2,7-7V48
					c0-0.8-0.7-1.5-1.5-1.5s-1.5,0.7-1.5,1.5v10.5c0,2.2-1.8,4-4,4c-2.2,0-4-1.8-4-4V36.7c0-2.2,1.8-4,4-4c2.2,0,4,1.8,4,4v0.6
					L48.8,37.3z"/>
			</g>
			<g>
				<rect x="79.1" y="136.9" class="st4" width="5.4" height="2.7"/>
			</g>
			<g id="XMLID_6_">
				<g>
					<path class="st6" d="M123,118.5c0.7,0.7,1,1.6,1,2.4c0,1.8-1.4,3.6-3.6,3.6H77.5c-2.1,0-3.6-1.7-3.6-3.6c0-0.8,0.3-1.7,1-2.4
						c2.2-2.3,6.2-5.8,6.2-17.2c0-8.7,6-15.6,14.2-17.3c0,0,0.1,0,0.1-0.1v-2.3c0-2.2,2-3.9,4.2-3.5c1.7,0.3,2.9,1.9,2.9,3.7v2.1
						c0,0,0,0.1,0.1,0.1c8.2,1.7,14.2,8.7,14.2,17.3C116.8,112.7,120.8,116.2,123,118.5z"/>
					<path class="st6" d="M106,131.2C106,131.2,106.1,131.2,106,131.2c0,4-3.1,7.2-7.1,7.2c-3.9,0-7.1-3.1-7.1-7.1
						c0,0,0-0.1,0.1-0.1H106z"/>
				</g>
				<g>
					<g>
						<path class="st7" d="M98.9,139.8c-4.7,0-8.6-3.8-8.6-8.5c0-0.9,0.7-1.6,1.6-1.6H106c0.9,0,1.6,0.7,1.6,1.6
							C107.5,136,103.7,139.8,98.9,139.8z M93.5,132.7c0.7,2.4,2.9,4.2,5.4,4.2c2.6,0,4.8-1.8,5.4-4.2H93.5z"/>
					</g>
					<g>
						<path class="st7" d="M120.4,126H77.5c-2.8,0-5.1-2.3-5.1-5.1c0-1.3,0.5-2.5,1.4-3.5l0.4-0.5c2.1-2.2,5.4-5.6,5.4-15.7
							c0-8.7,5.8-16.2,14.3-18.5v-1.1c0-1.5,0.7-2.9,1.8-3.9c1.2-1,2.7-1.4,4.2-1.1c2.4,0.4,4.2,2.6,4.2,5.2v0.9
							c8.5,2.3,14.3,9.8,14.3,18.5c0,10.1,3.2,13.5,5.4,15.7l0.4,0.5c0.9,1,1.4,2.2,1.4,3.5C125.4,123.8,123.2,126,120.4,126z
							 M95.5,85.5c-7.6,1.7-12.9,8.2-12.9,15.8c0,11.3-3.9,15.4-6.2,17.8l-0.4,0.4c-0.5,0.5-0.6,1-0.6,1.4c0,1,0.8,2.1,2.1,2.1h42.8
							c1.3,0,2.1-1.1,2.1-2.1c0-0.4-0.1-0.9-0.6-1.4l0,0l-0.4-0.4c-2.3-2.4-6.2-6.5-6.2-17.8c0-7.7-5.3-14.2-13-15.8
							c-0.7-0.1-1.3-0.8-1.3-1.6v-2.1c0-1.1-0.7-2.1-1.7-2.2c-0.6-0.1-1.2,0-1.7,0.4c-0.5,0.4-0.7,1-0.7,1.6v3.8L95.5,85.5z"/>
					</g>
				</g>
			</g>
			<g>
				<rect x="35.8" y="83.9" class="st2" width="24.4" height="5.3"/>
				<rect x="35.8" y="72.2" class="st2" width="34.9" height="5.3"/>
				<rect x="35.8" y="95.6" class="st2" width="24.4" height="5.3"/>
				<g>
					<rect x="35.8" y="107.4" class="st2" width="24.4" height="5.3"/>
					<rect x="65.4" y="107.4" class="st2" width="5.3" height="5.3"/>
				</g>
			</g>
		</g>
	</g>
	<g>
		<g>
			<path class="st7" d="M128.9,89.5c-0.7,0-1.3-0.4-1.4-1.1c-2.1-7.6-8.1-13.4-15.8-15.1c-0.8-0.2-1.3-1-1.1-1.8
				c0.2-0.8,1-1.3,1.8-1.1c8.8,2,15.7,8.6,18.1,17.3c0.2,0.8-0.3,1.6-1,1.8C129.2,89.5,129.1,89.5,128.9,89.5z"/>
		</g>
		<g>
			<path class="st7" d="M121.6,90.9c-0.7,0-1.3-0.4-1.4-1.1c-1.3-4.6-4.9-8-9.5-9.1c-0.8-0.2-1.3-1-1.1-1.8c0.2-0.8,1-1.3,1.8-1.1
				c5.7,1.3,10.2,5.6,11.7,11.2c0.2,0.8-0.3,1.6-1,1.8C121.9,90.9,121.7,90.9,121.6,90.9z"/>
		</g>
	</g>
</g>
<g id="Layer_3" class="st8">
	<g class="st9">
		<g>
			<polyline class="st3" points="150.5,123.9 150.5,150.4 0.5,150.4 0.5,123.9 			"/>
			<g>
				<rect x="2" y="1.9" class="st2" width="147" height="122.5"/>
				<path class="st3" d="M147.5,3.4v119.5H3.5V3.4H147.5 M150.5,0.4H0.5v150h150V0.4L150.5,0.4z"/>
			</g>
		</g>
		<g>
			<g>
				<rect x="13" y="13.3" class="st3" width="28.9" height="3"/>
			</g>
			<g>
				<rect x="71.7" y="13.3" class="st3" width="66.4" height="3"/>
			</g>
			<g>
				<rect x="50.9" y="13.3" class="st3" width="12.4" height="3"/>
			</g>
		</g>
		<g>
			<g>
				<rect x="122.7" y="110.1" class="st3" width="15.4" height="3"/>
			</g>
			<g>
				<rect x="13" y="110.1" class="st3" width="35.2" height="3"/>
			</g>
			<g>
				<rect x="100.9" y="110.1" class="st3" width="13.4" height="3"/>
			</g>
		</g>
		<g>
			<g>
				<g>
					<path class="st10" d="M41.3,54.1l-17-14.6c-0.5-0.4-0.2-1.1,0.4-1.2l22.3-2.6c0.1,0,0.1,0.1,0.1,0.1L41.5,54
						C41.5,54.1,41.4,54.1,41.3,54.1z"/>
					<path class="st11" d="M41.4,55.6c-0.4,0-0.8-0.1-1-0.4l-17-14.6c-0.7-0.6-0.9-1.5-0.7-2.3s1-1.4,1.8-1.5l23.1-2.7l0.6,0.7
						c0.3,0.4,0.5,1,0.3,1.5l-5.8,19l-0.8,0.3C41.7,55.6,41.5,55.6,41.4,55.6z M26.7,39.6l14,12L45,37.4L26.7,39.6z"/>
				</g>
				<g>
					<path class="st11" d="M116.5,56.9l3.3,1c5.1,1.6,8,7,6.4,12.1l0,0c-1.6,5.1-7,8-12.1,6.4L41.5,54.2c0,0-0.1-0.1-0.1-0.1
						l5.6-18.3c0,0,0.1-0.1,0.1-0.1l31.3,9.5L116.5,56.9z"/>
					<path class="st12" d="M117,78.3c-1.1,0-2.2-0.2-3.3-0.5L40.5,55.5l-0.3-0.6C40,54.5,39.9,54,40,53.6l5.8-18.9l0.6-0.3
						c0.4-0.2,0.8-0.3,1.2-0.1l72.6,22.2c5.9,1.8,9.2,8.1,7.4,13.9C126.2,75.2,121.8,78.3,117,78.3z M43.3,53.2l71.3,21.8
						c4.3,1.3,8.9-1.1,10.2-5.4c1.3-4.3-1.1-8.9-5.4-10.2L48.1,37.6L43.3,53.2z M48.5,36.2L48.5,36.2C48.5,36.2,48.5,36.2,48.5,36.2
						z"/>
				</g>
				<g>
					<path class="st13" d="M130.3,71.2L130.3,71.2c1.6-5.1-1.3-10.5-6.4-12.1l-8.6-2.6L109.6,75l8.6,2.6
						C123.3,79.2,128.7,76.3,130.3,71.2z"/>
					<path class="st14" d="M121,79.5c-1.1,0-2.2-0.2-3.3-0.5l-10-3.1l6.5-21.4l10,3.1c2.8,0.9,5.2,2.8,6.6,5.4
						c1.4,2.6,1.7,5.6,0.8,8.5c-0.9,2.8-2.8,5.2-5.4,6.6C124.6,79.1,122.8,79.5,121,79.5z M111.5,74l7.2,2.2
						c2.1,0.6,4.3,0.4,6.2-0.6c1.9-1,3.3-2.7,4-4.8l0,0c0.6-2.1,0.4-4.3-0.6-6.2c-1-1.9-2.7-3.3-4.8-4l-7.2-2.2L111.5,74z"/>
				</g>
				<g>
					<g>
						<path class="st2" d="M63,92.1l-0.3-10.8c0-0.5-0.3-0.9-0.7-1.2c-0.3-0.2-7.1-5-5.9-18.4l6.1,1.8c0.1,0,0.3,0.1,0.4,0.1
							c0.3,0,0.5-0.1,0.7-0.2c0.4-0.2,0.6-0.5,0.7-0.9l1-3.8c0,0,0-0.1,0-0.1c0.1-0.5,4.2-16.9,6.4-25.5c0.4-1.3,1.6-2.3,3.1-2.3
							c0.3,0,0.6,0,0.8,0.1c1.7,0.5,2.7,2.2,2.2,3.9l-0.7,2.5c-0.2,0.7,0.1,1.4,0.8,1.8c0.2,0.1,0.4,0.2,0.7,0.2
							c0.5,0,0.9-0.2,1.2-0.6c0.6-0.8,1.6-1.3,2.6-1.3c0.3,0,0.6,0,0.8,0.1c0.8,0.2,1.5,0.8,1.9,1.5c0.4,0.7,0.5,1.6,0.3,2.4
							l-0.4,1.6c-0.2,0.7,0.1,1.4,0.8,1.8c0.2,0.1,0.4,0.2,0.7,0.2c0.5,0,0.9-0.2,1.2-0.6C88,43.5,88.9,43,90,43
							c0.3,0,0.6,0,0.8,0.1c0.8,0.2,1.5,0.8,1.9,1.5c0.4,0.7,0.5,1.6,0.3,2.4l-0.3,0.9c-0.2,0.7,0.1,1.4,0.8,1.7
							c0.2,0.1,0.4,0.2,0.7,0.2c0.4,0,0.9-0.2,1.2-0.6c0.6-0.8,1.6-1.2,2.5-1.2c0.3,0,0.6,0,0.8,0.1c1.7,0.5,2.7,2.2,2.2,3.9
							l-6.2,22.1c0,0.1-0.1,0.2-0.1,0.3c0,0.1-0.1,0.2-0.1,0.3c0,0.2-1,5-5.8,7.3c-0.5,0.3-0.9,0.8-0.9,1.3v8.7L63,92.1L63,92.1z"/>
						<path class="st3" d="M74.5,32.3L74.5,32.3c0.2,0,0.3,0,0.4,0.1c0.9,0.2,1.4,1.2,1.2,2.1L75.4,37c-0.4,1.4,0.3,2.8,1.6,3.5
							c0.4,0.2,0.9,0.3,1.3,0.3c0.9,0,1.8-0.4,2.4-1.2c0.3-0.4,0.8-0.7,1.4-0.7c0.2,0,0.3,0,0.4,0.1c0.9,0.2,1.4,1.2,1.2,2.1
							l-0.4,1.6c-0.4,1.4,0.3,2.9,1.6,3.5c0.4,0.2,0.9,0.3,1.3,0.3c0.9,0,1.8-0.4,2.4-1.2c0.3-0.4,0.8-0.7,1.4-0.7
							c0.2,0,0.3,0,0.4,0.1c0.4,0.1,0.8,0.4,1,0.8c0.2,0.4,0.3,0.8,0.2,1.3l-0.3,0.9c-0.4,1.4,0.3,2.8,1.5,3.5
							c0.4,0.2,0.9,0.3,1.3,0.3c0.9,0,1.8-0.4,2.4-1.2c0.3-0.4,0.8-0.7,1.3-0.7c0.2,0,0.3,0,0.4,0.1c0.9,0.2,1.4,1.2,1.2,2.1
							l-6.2,22.1c0,0.1,0,0.1-0.1,0.2c-0.1,0.2-0.1,0.3-0.2,0.5c0,0.2-0.9,4.3-5,6.2c-1.1,0.5-1.7,1.6-1.7,2.7v7.2H64.4l-0.2-9.3
							c0-1-0.5-1.9-1.3-2.4c-0.1,0-5.7-4.1-5.4-15.2l4.3,1.3c0.3,0.1,0.6,0.1,0.9,0.1c0.5,0,1-0.1,1.5-0.4c0.7-0.4,1.2-1.1,1.4-1.9
							l1-3.8c0,0,0-0.1,0-0.1c0.2-0.9,4.7-18.6,6.4-25.5C73.1,32.8,73.8,32.3,74.5,32.3 M74.5,29.3c-2.1,0-3.9,1.4-4.5,3.4
							c0,0-6.4,25.4-6.4,25.6l-1,3.8l-7.8-2.4c-2.2,16,6.4,21.6,6.4,21.6l0.3,12.3h28V83.4c5.6-2.7,6.6-8.4,6.6-8.4l0,0
							c0.1-0.2,0.1-0.3,0.2-0.5l6.2-22.1c0.7-2.5-0.8-5.1-3.3-5.8l0,0c-0.4-0.1-0.8-0.2-1.3-0.2c-1.4,0-2.8,0.7-3.7,1.8l0.3-0.9
							c0.7-2.5-0.8-5.1-3.3-5.8c-0.4-0.1-0.8-0.2-1.2-0.2c-1.5,0-2.9,0.7-3.8,2l0.4-1.6c0.7-2.5-0.8-5.1-3.3-5.8
							c-0.4-0.1-0.8-0.2-1.2-0.2c-1.5,0-2.9,0.7-3.8,1.9l0.7-2.5c0.7-2.5-0.8-5.1-3.3-5.8l0,0C75.4,29.4,74.9,29.3,74.5,29.3
							L74.5,29.3z"/>
					</g>
					<rect x="58.4" y="92.4" class="st3" width="33.6" height="46"/>
					<g>
						<polygon class="st4" points="93.5,128 90.5,128 90.5,93.9 59.9,93.9 59.9,123 56.9,123 56.9,90.9 93.5,90.9 						"/>
					</g>
					<g>
						<rect x="56.9" y="128.3" class="st4" width="3" height="10.1"/>
					</g>
				</g>
			</g>
			<g>
				<rect x="70.5" y="48.5" transform="matrix(0.2773 -0.9608 0.9608 0.2773 6.0811 108.019)" class="st3" width="8.6" height="3"/>
			</g>
			<g>
				<rect x="78" y="53.5" transform="matrix(0.2564 -0.9666 0.9666 0.2564 8.0395 120.4352)" class="st3" width="8.6" height="3"/>
			</g>
			<g>
				<rect x="86.2" y="58.1" transform="matrix(0.2595 -0.9657 0.9657 0.2595 9.441 131.6102)" class="st3" width="8.6" height="3"/>
			</g>
		</g>
	</g>
</g>
<g class="st8">
	<g class="st9">
		<g>
			<g>
				<rect x="2" y="1.9" class="st2" width="147" height="122.5"/>
				<path class="st3" d="M147.5,3.4v119.5H3.5V3.4H147.5 M150.5,0.4H0.5v150h150V0.4L150.5,0.4z"/>
			</g>
		</g>
		<g>
			<g>
				<rect x="13" y="13.3" class="st3" width="28.9" height="3"/>
			</g>
			<g>
				<rect x="71.7" y="13.3" class="st3" width="66.4" height="3"/>
			</g>
			<g>
				<rect x="50.9" y="13.3" class="st3" width="12.4" height="3"/>
			</g>
		</g>
		<g>
			<g>
				<rect x="108.2" y="110.1" class="st3" width="29.9" height="3"/>
			</g>
		</g>
		<g>
			<path class="st3" d="M84.4,69.6H38.7c-7,0-12.7,5.7-12.7,12.7v45.3h26.5l-0.2,0l9.3,9.3l0-9.3h22.9c7,0,12.7-5.7,12.7-12.7V82.3
				C97.2,75.3,91.5,69.6,84.4,69.6z"/>
			<g>
				<path class="st4" d="M63.1,140.7l-11.5-11.5H46v-3h6.8l7.2,7.2v-7.2h24.5c6.2,0,11.3-5.1,11.3-11.3V82.3
					c0-6.2-5.1-11.3-11.3-11.3H38.6c-6.2,0-11.3,5.1-11.3,11.3v40.7h-3V82.3c0-7.9,6.4-14.3,14.3-14.3h45.9
					c7.9,0,14.3,6.4,14.3,14.3V115c0,7.9-6.4,14.3-14.3,14.3H63.1L63.1,140.7z"/>
			</g>
			<g>
				<rect x="33.3" y="126.2" class="st4" width="6.1" height="3.1"/>
			</g>
			<g>
				<rect x="34.5" y="83.6" class="st2" width="30.9" height="5.3"/>
				<rect x="34.5" y="95.9" class="st2" width="43.7" height="5.3"/>
				<rect x="34.5" y="108.1" class="st2" width="43.7" height="5.3"/>
				<rect x="84.4" y="108.1" class="st2" width="5.3" height="5.3"/>
			</g>
			<g>
				<path class="st15" d="M128.4,60.4c0-16.1-14-29.1-31.3-29.1c-17.3,0-31.3,13-31.3,29.1s14,29.1,31.3,29.1c4,0,7.8-0.7,11.3-1.9
					l8.3,8.3V83.1C123.8,77.7,128.4,69.6,128.4,60.4z"/>
				<path class="st16" d="M118.2,99.5l-10.2-10.2c-3.5,1.1-7.1,1.7-10.9,1.7C79,91,64.3,77.2,64.3,60.3S79,29.7,97.1,29.7
					s32.8,13.7,32.8,30.6c0,9.1-4.3,17.6-11.7,23.5V99.5z M108.7,85.8l6.4,6.4v-9.9l0.6-0.4c7.1-5.3,11.1-13.1,11.1-21.5
					c0-15.2-13.4-27.6-29.8-27.6S67.3,45.1,67.3,60.4C67.3,75.6,80.7,88,97.1,88c3.7,0,7.3-0.6,10.8-1.9L108.7,85.8z"/>
			</g>
			<g>
				<g>
					<path class="st17" d="M106.2,68.2c-1,0-1.9-0.8-1.9-1.9v-4.5c0-1.7,1.2-3.1,2.8-3.5c2.1-0.5,3.4-2.3,3.3-4.4
						c-0.1-2.1-1.8-3.8-3.9-3.9c-1.2-0.1-2.3,0.3-3.2,1.1c-0.9,0.8-1.3,1.9-1.3,3.1c0,1-0.8,1.9-1.9,1.9s-1.9-0.8-1.9-1.9
						c0-2.2,0.9-4.3,2.5-5.8c1.6-1.5,3.8-2.3,6-2.1c4,0.3,7.1,3.5,7.4,7.4c0.3,3.9-2.3,7.4-6.1,8.3v4.4
						C108.1,67.3,107.2,68.2,106.2,68.2z"/>
					<path class="st17" d="M106.2,75.6c-0.5,0-1-0.2-1.3-0.6c-0.3-0.3-0.6-0.8-0.6-1.3s0.2-1,0.6-1.3c0.3-0.3,0.8-0.6,1.3-0.6
						s1,0.2,1.3,0.6c0.3,0.3,0.6,0.8,0.6,1.3s-0.2,1-0.6,1.3C107.2,75.4,106.7,75.6,106.2,75.6z"/>
				</g>
				<g>
					<path class="st17" d="M87.9,53.6c1,0,1.9,0.8,1.9,1.9V60c0,1.7-1.2,3.1-2.8,3.5c-2.1,0.5-3.4,2.3-3.3,4.4
						c0.1,2.1,1.8,3.8,3.9,3.9c1.2,0.1,2.3-0.3,3.2-1.1c0.9-0.8,1.3-1.9,1.3-3.1c0-1,0.8-1.9,1.9-1.9s1.9,0.8,1.9,1.9
						c0,2.2-0.9,4.3-2.5,5.8c-1.6,1.5-3.8,2.3-6,2.1c-4-0.3-7.1-3.5-7.4-7.4c-0.3-3.9,2.3-7.4,6.1-8.3v-4.4
						C86.1,54.4,86.9,53.6,87.9,53.6z"/>
					<path class="st17" d="M87.9,46.1c0.5,0,1,0.2,1.3,0.5c0.3,0.3,0.6,0.8,0.6,1.3s-0.2,1-0.6,1.3c-0.3,0.3-0.8,0.5-1.3,0.5
						s-1-0.2-1.3-0.5c-0.3-0.3-0.6-0.8-0.6-1.3s0.2-1,0.6-1.3C86.9,46.3,87.4,46.1,87.9,46.1z"/>
				</g>
			</g>
		</g>
	</g>
</g>
<g id="Layer_4" class="st8">
	<g class="st9">
		<g>
			<polyline class="st3" points="150.5,124 150.5,150.5 0.5,150.5 0.5,124 			"/>
			<g>
				<rect x="2" y="2" class="st2" width="147" height="122.5"/>
				<path class="st3" d="M147.5,3.5V123H3.5V3.5H147.5 M150.5,0.5H0.5v150h150V0.5L150.5,0.5z"/>
			</g>
		</g>
		<g>
			<g>
				<rect x="13" y="13.4" class="st3" width="28.9" height="3"/>
			</g>
			<g>
				<rect x="71.7" y="13.4" class="st3" width="66.4" height="3"/>
			</g>
			<g>
				<rect x="50.9" y="13.4" class="st3" width="12.4" height="3"/>
			</g>
		</g>
		<g>
			<g>
				<rect x="122.7" y="110.2" class="st3" width="15.4" height="3"/>
			</g>
			<g>
				<rect x="13" y="110.2" class="st3" width="35.2" height="3"/>
			</g>
			<g>
				<rect x="101" y="110.2" class="st3" width="13.4" height="3"/>
			</g>
		</g>
		<g>
			<g>
				<g>
					<path class="st3" d="M41.3,54.2l-17-14.6c-0.5-0.4-0.2-1.1,0.4-1.2L47,35.8c0.1,0,0.1,0.1,0.1,0.1l-5.5,18.2
						C41.5,54.2,41.4,54.2,41.3,54.2z"/>
					<path class="st4" d="M41.4,55.7c-0.4,0-0.8-0.1-1-0.4l-17-14.6c-0.7-0.6-0.9-1.5-0.7-2.3s1-1.4,1.8-1.5l23.1-2.7l0.6,0.7
						c0.3,0.4,0.5,1,0.3,1.5l-5.8,19l-0.8,0.3C41.7,55.7,41.5,55.7,41.4,55.7z M26.7,39.7l14,12L45,37.5L26.7,39.7z"/>
				</g>
				<g>
					<path class="st3" d="M116.5,57l3.3,1c5.1,1.6,8,7,6.4,12.1l0,0c-1.6,5.1-7,8-12.1,6.4L41.6,54.3c0,0-0.1-0.1-0.1-0.1l5.6-18.3
						c0,0,0.1-0.1,0.1-0.1l31.3,9.5L116.5,57z"/>
					<path class="st4" d="M117,78.4c-1.1,0-2.2-0.2-3.3-0.5L40.5,55.5l-0.3-0.6c-0.2-0.4-0.2-0.8-0.1-1.2l5.8-18.9l0.6-0.3
						c0.4-0.2,0.8-0.3,1.2-0.1l72.6,22.2c5.9,1.8,9.2,8.1,7.4,13.9C126.2,75.3,121.8,78.4,117,78.4z M43.3,53.3L114.6,75
						c4.3,1.3,8.9-1.1,10.2-5.4c1.3-4.3-1.1-8.9-5.4-10.2L48.1,37.6L43.3,53.3z M48.5,36.3L48.5,36.3C48.5,36.3,48.5,36.3,48.5,36.3
						z"/>
				</g>
				<g>
					<path class="st3" d="M130.3,71.2L130.3,71.2c1.6-5.1-1.3-10.5-6.4-12.1l-8.6-2.6l-5.6,18.5l8.6,2.6
						C123.3,79.2,128.7,76.3,130.3,71.2z"/>
					<path class="st4" d="M121,79.6c-1.1,0-2.2-0.2-3.3-0.5l-10-3.1l6.5-21.4l10,3.1c2.8,0.9,5.2,2.8,6.6,5.4
						c1.4,2.6,1.7,5.6,0.8,8.5c-0.9,2.8-2.8,5.2-5.4,6.6C124.6,79.2,122.8,79.6,121,79.6z M111.5,74.1l7.2,2.2
						c2.1,0.6,4.3,0.4,6.2-0.6c1.9-1,3.3-2.7,4-4.8l0,0c0.6-2.1,0.4-4.3-0.6-6.2c-1-1.9-2.7-3.3-4.8-4l-7.2-2.2L111.5,74.1z"/>
				</g>
				<g>
					<g>
						<path class="st2" d="M63,92.2l-0.3-10.8c0-0.5-0.3-0.9-0.7-1.2c-0.3-0.2-7.1-5-5.9-18.4l6.1,1.8c0.1,0,0.3,0.1,0.4,0.1
							c0.3,0,0.5-0.1,0.7-0.2c0.4-0.2,0.6-0.5,0.7-0.9l1-3.8c0,0,0-0.1,0-0.1c0.1-0.5,4.2-16.9,6.4-25.5c0.4-1.3,1.6-2.3,3.1-2.3
							c0.3,0,0.6,0,0.8,0.1c0.8,0.2,1.5,0.8,1.9,1.5c0.4,0.7,0.5,1.6,0.3,2.4l-0.7,2.5c-0.2,0.7,0.1,1.4,0.8,1.8
							c0.2,0.1,0.4,0.2,0.7,0.2c0.5,0,0.9-0.2,1.2-0.6c0.6-0.8,1.6-1.3,2.6-1.3c0.3,0,0.6,0,0.8,0.1c0.8,0.2,1.5,0.8,1.9,1.5
							c0.4,0.7,0.5,1.6,0.3,2.4l-0.4,1.6c-0.2,0.7,0.1,1.4,0.8,1.8c0.2,0.1,0.4,0.2,0.7,0.2c0.5,0,0.9-0.2,1.2-0.6
							c0.6-0.8,1.6-1.3,2.6-1.3c0.3,0,0.6,0,0.8,0.1c1.7,0.5,2.7,2.2,2.2,3.9L92.8,48c-0.2,0.7,0.1,1.4,0.8,1.7
							c0.2,0.1,0.4,0.2,0.7,0.2c0.4,0,0.9-0.2,1.2-0.6c0.6-0.8,1.6-1.2,2.5-1.2c0.3,0,0.6,0,0.8,0.1c0.8,0.2,1.5,0.8,1.9,1.5
							c0.4,0.7,0.5,1.6,0.3,2.4l-6.1,22.1c0,0.1-0.1,0.2-0.1,0.3c0,0.1-0.1,0.2-0.1,0.3c0,0.2-1.1,5-5.8,7.3
							c-0.5,0.3-0.9,0.8-0.9,1.3v8.7C88,92.2,63,92.2,63,92.2z"/>
						<path class="st3" d="M74.6,32.4L74.6,32.4c0.2,0,0.3,0,0.4,0.1c0.9,0.2,1.4,1.2,1.2,2.1l-0.7,2.5c-0.4,1.4,0.3,2.8,1.6,3.5
							c0.4,0.2,0.9,0.3,1.3,0.3c0.9,0,1.8-0.4,2.4-1.2c0.3-0.4,0.8-0.7,1.4-0.7c0.2,0,0.3,0,0.4,0.1c0.9,0.2,1.4,1.2,1.2,2.1
							l-0.4,1.6c-0.4,1.4,0.3,2.9,1.6,3.5c0.4,0.2,0.9,0.3,1.3,0.3c0.9,0,1.8-0.4,2.4-1.2c0.3-0.4,0.8-0.7,1.4-0.7
							c0.2,0,0.3,0,0.4,0.1c0.4,0.1,0.8,0.4,1,0.8c0.2,0.4,0.3,0.8,0.2,1.3l-0.3,0.9c-0.4,1.4,0.3,2.8,1.5,3.5
							c0.4,0.2,0.9,0.3,1.3,0.3c0.9,0,1.8-0.4,2.4-1.2c0.3-0.4,0.8-0.7,1.3-0.7c0.2,0,0.3,0,0.4,0.1c0.9,0.2,1.4,1.2,1.2,2.1
							l-6.2,22.1c0,0.1,0,0.1-0.1,0.2c-0.1,0.2-0.1,0.3-0.2,0.5c0,0.2-0.9,4.3-5,6.2c-1.1,0.5-1.7,1.6-1.7,2.7v7.2h-22l-0.2-9.3
							c0-1-0.5-1.9-1.3-2.4c-0.3-0.2-5.8-4.2-5.4-15.2l4.3,1.3c0.3,0.1,0.6,0.1,0.9,0.1c0.5,0,1-0.1,1.5-0.4
							c0.7-0.4,1.2-1.1,1.4-1.9l1-3.8c0,0,0-0.1,0-0.1c0.2-0.9,4.7-18.6,6.4-25.5C73.1,32.9,73.8,32.4,74.6,32.4 M74.6,29.4
							c-2.1,0-3.9,1.4-4.5,3.4c0,0-6.4,25.4-6.4,25.6l-1,3.8l-7.8-2.4c-2.2,16,6.4,21.6,6.4,21.6l0.3,12.3h28V83.5
							c5.6-2.7,6.6-8.4,6.6-8.4l0,0c0.1-0.2,0.1-0.3,0.2-0.5l6.2-22.1c0.7-2.5-0.8-5.1-3.3-5.8l0,0c-0.4-0.1-0.8-0.2-1.3-0.2
							c-1.4,0-2.8,0.7-3.7,1.8l0.3-0.9c0.7-2.5-0.8-5.1-3.3-5.8c-0.4-0.1-0.8-0.2-1.2-0.2c-1.5,0-2.9,0.7-3.8,2l0.4-1.6
							c0.7-2.5-0.8-5.1-3.3-5.8C82.9,36,82.5,36,82.1,36c-1.5,0-2.9,0.7-3.8,1.9l0.7-2.5c0.7-2.5-0.8-5.1-3.3-5.8l0,0
							C75.4,29.5,75,29.4,74.6,29.4L74.6,29.4z"/>
					</g>
					<rect x="58.4" y="92.5" class="st3" width="33.6" height="46"/>
					<g>
						<polygon class="st4" points="93.5,128.1 90.5,128.1 90.5,94 59.9,94 59.9,123.1 56.9,123.1 56.9,91 93.5,91 						"/>
					</g>
					<g>
						<rect x="56.9" y="128.3" class="st4" width="3" height="10.1"/>
					</g>
				</g>
			</g>
			<g>
				
					<rect x="70.6" y="48.5" transform="matrix(0.2773 -0.9608 0.9608 0.2773 6.0233 108.0971)" class="st3" width="8.6" height="3"/>
			</g>
			<g>
				<rect x="78" y="53.6" transform="matrix(0.2564 -0.9666 0.9666 0.2564 7.9818 120.515)" class="st3" width="8.6" height="3"/>
			</g>
			<g>
				
					<rect x="86.2" y="58.2" transform="matrix(0.2595 -0.9657 0.9657 0.2595 9.3787 131.6785)" class="st3" width="8.6" height="3"/>
			</g>
		</g>
	</g>
</g>
<g id="Layer_5" class="st8">
	<g class="st9">
		<g>
			<g>
				<rect x="2" y="2" class="st2" width="147" height="122.5"/>
				<path class="st3" d="M147.5,3.5V123H3.5V3.5H147.5 M150.5,0.5H0.5v150h150V0.5L150.5,0.5z"/>
			</g>
		</g>
		<g>
			<g>
				<rect x="13" y="13.4" class="st3" width="28.9" height="3"/>
			</g>
			<g>
				<rect x="71.7" y="13.4" class="st3" width="66.4" height="3"/>
			</g>
			<g>
				<rect x="50.9" y="13.4" class="st3" width="12.4" height="3"/>
			</g>
		</g>
		<g>
			<g>
				<rect x="108.2" y="110.2" class="st3" width="29.9" height="3"/>
			</g>
		</g>
		<g>
			<path class="st2" d="M84.5,69.7H38.7c-7,0-12.7,5.7-12.7,12.7v45.3h26.5l-0.2,0l9.3,9.3l0-9.3h22.9c7,0,12.7-5.7,12.7-12.7V82.4
				C97.2,75.4,91.5,69.7,84.5,69.7z"/>
			<g>
				<path class="st4" d="M63.1,140.8l-11.5-11.5h-5.6v-3h6.8l7.2,7.2v-7.2h24.5c6.2,0,11.3-5.1,11.3-11.3V82.3
					c0-6.2-5.1-11.3-11.3-11.3H38.6c-6.2,0-11.3,5.1-11.3,11.3V123h-3V82.3c0-7.9,6.4-14.3,14.3-14.3h45.9c7.9,0,14.3,6.4,14.3,14.3
					v32.7c0,7.9-6.4,14.3-14.3,14.3H63.1L63.1,140.8z"/>
			</g>
			<g>
				<rect x="33.3" y="126.3" class="st4" width="6.1" height="3.1"/>
			</g>
			<g>
				<rect x="34.5" y="83.7" class="st3" width="30.9" height="5.3"/>
				<rect x="34.5" y="95.9" class="st3" width="43.7" height="5.3"/>
				<rect x="34.5" y="108.2" class="st3" width="43.7" height="5.3"/>
				<rect x="84.4" y="108.2" class="st3" width="5.3" height="5.3"/>
			</g>
			<g>
				<path class="st3" d="M128.4,60.4c0-16.1-14-29.1-31.3-29.1c-17.3,0-31.3,13-31.3,29.1s14,29.1,31.3,29.1c4,0,7.8-0.7,11.3-1.9
					l8.3,8.3V83.2C123.8,77.8,128.4,69.6,128.4,60.4z"/>
				<path class="st4" d="M118.2,99.6L108,89.3c-3.5,1.1-7.1,1.7-10.9,1.7c-18.1,0-32.8-13.8-32.8-30.6S79,29.8,97.1,29.8
					s32.8,13.7,32.8,30.6c0,9.1-4.3,17.6-11.7,23.5V99.6z M108.8,85.9l6.4,6.4v-9.9l0.6-0.4c7.1-5.3,11.1-13.1,11.1-21.5
					c0-15.2-13.4-27.6-29.8-27.6S67.3,45.2,67.3,60.4s13.4,27.6,29.8,27.6c3.7,0,7.3-0.6,10.8-1.9L108.8,85.9z"/>
			</g>
			<g>
				<g>
					<path class="st4" d="M106.2,68.2c-1,0-1.9-0.8-1.9-1.9v-4.5c0-1.7,1.2-3.1,2.8-3.5c2.1-0.5,3.4-2.3,3.3-4.4
						c-0.1-2.1-1.8-3.8-3.9-3.9c-1.2-0.1-2.3,0.3-3.2,1.1c-0.9,0.8-1.3,1.9-1.3,3.1c0,1-0.8,1.9-1.9,1.9s-1.9-0.8-1.9-1.9
						c0-2.2,0.9-4.3,2.5-5.8c1.6-1.5,3.8-2.3,6-2.1c4,0.3,7.1,3.5,7.4,7.4c0.3,3.9-2.3,7.4-6.1,8.3v4.4
						C108.1,67.4,107.3,68.2,106.2,68.2z"/>
					<path class="st4" d="M106.2,75.7c-0.5,0-1-0.2-1.3-0.6c-0.3-0.3-0.6-0.8-0.6-1.3s0.2-1,0.6-1.3c0.3-0.3,0.8-0.6,1.3-0.6
						s1,0.2,1.3,0.6c0.3,0.3,0.6,0.8,0.6,1.3s-0.2,1-0.6,1.3C107.2,75.5,106.7,75.7,106.2,75.7z"/>
				</g>
				<g>
					<path class="st4" d="M88,53.7c1,0,1.9,0.8,1.9,1.9v4.5c0,1.7-1.2,3.1-2.8,3.5C85,64,83.6,65.9,83.8,68c0.1,2.1,1.8,3.8,3.9,3.9
						c1.2,0.1,2.3-0.3,3.2-1.1c0.9-0.8,1.3-1.9,1.3-3.1c0-1,0.8-1.9,1.9-1.9s1.9,0.8,1.9,1.9c0,2.2-0.9,4.3-2.5,5.8
						c-1.6,1.5-3.8,2.3-6,2.1c-4-0.3-7.1-3.5-7.4-7.4c-0.3-3.9,2.3-7.4,6.1-8.3v-4.4C86.1,54.5,86.9,53.7,88,53.7z"/>
					<path class="st4" d="M88,46.2c0.5,0,1,0.2,1.3,0.5c0.3,0.3,0.6,0.8,0.6,1.3s-0.2,1-0.6,1.3C88.9,49.8,88.5,50,88,50
						s-1-0.2-1.3-0.5c-0.3-0.3-0.6-0.8-0.6-1.3s0.2-1,0.6-1.3C87,46.4,87.5,46.2,88,46.2z"/>
				</g>
			</g>
		</g>
	</g>
</g>
<g id="Layer_6" class="st8">
	<g class="st9">
		<g>
			<g>
				<rect x="2" y="2" class="st2" width="147" height="122.5"/>
				<path class="st3" d="M147.5,3.5V123H3.5V3.5H147.5 M150.5,0.5H0.5v150h150V0.5L150.5,0.5z"/>
			</g>
		</g>
		<g>
			<circle class="st4" cx="40.4" cy="138.2" r="5"/>
			<path class="st4" d="M32.7,138.2c0-0.5,0-1,0.2-1.5H13v3h19.8C32.8,139.2,32.7,138.7,32.7,138.2z"/>
			<path class="st4" d="M47.9,136.7c0.1,0.5,0.2,1,0.2,1.5s0,1-0.2,1.5H138v-3H47.9z"/>
		</g>
		<g>
			<g>
				<rect x="13" y="13.4" class="st3" width="28.9" height="3"/>
			</g>
			<g>
				<rect x="71.7" y="13.4" class="st3" width="66.4" height="3"/>
			</g>
			<g>
				<rect x="50.9" y="13.4" class="st3" width="12.4" height="3"/>
			</g>
		</g>
		<g>
			<g>
				<rect x="109.2" y="110.2" class="st3" width="28.9" height="3"/>
			</g>
			<g>
				<rect x="13" y="110.2" class="st3" width="66.4" height="3"/>
			</g>
			<g>
				<rect x="87.7" y="110.2" class="st3" width="12.4" height="3"/>
			</g>
		</g>
		<g>
			<g>
				<circle class="st3" cx="75.5" cy="63.3" r="32.5"/>
				<path class="st4" d="M75.5,97.2c-18.7,0-33.9-15.2-33.9-33.9s15.2-33.9,33.9-33.9s33.9,15.2,33.9,33.9S94.2,97.2,75.5,97.2z
					 M75.5,32.2c-17.2,0-31.1,14-31.1,31.1s14,31.1,31.1,31.1s31.1-13.9,31.1-31.1S92.7,32.2,75.5,32.2z"/>
			</g>
			<polygon class="st2" points="66.3,46.4 95.6,63.3 66.3,80.1 			"/>
		</g>
	</g>
</g>
</svg>
