<?xml version="1.0" encoding="utf-8"?>
<!-- Generator: Adobe Illustrator 23.0.3, SVG Export Plug-In . SVG Version: 6.00 Build 0)  -->
<svg version="1.1" id="Layer_1" xmlns="http://www.w3.org/2000/svg" xmlns:xlink="http://www.w3.org/1999/xlink" x="0px" y="0px"
	 viewBox="0 0 206.2 206.2" style="enable-background:new 0 0 206.2 206.2;" xml:space="preserve">
<style type="text/css">
	.st0{display:none;}
	.st1{display:inline;}
	.st2{fill:#EBF3FC;}
	.st3{fill:#99C5F1;}
	.st4{fill:#006EDC;}
	.st5{fill:#6ADBB8;}
	.st6{fill:#00C08B;}
	.st7{fill:#AB5BD3;}
	.st8{fill:#9632C8;}
	.st9{fill:#FFB4B4;}
	.st10{opacity:0.25;}
</style>
<g class="st0">
	<g class="st1">
		<g>
			<g>
				<rect x="25.1" y="39.2" class="st2" width="147" height="122.5"/>
				<path class="st3" d="M170.6,40.7v119.5h-144V40.7H170.6 M173.6,37.7h-150v150h150V37.7L173.6,37.7z"/>
			</g>
		</g>
		<g>
			<circle class="st4" cx="63.4" cy="175.4" r="5"/>
			<path class="st4" d="M55.8,175.4c0-0.5,0-1,0.2-1.5H36.1v3h19.8C55.8,176.4,55.8,175.9,55.8,175.4z"/>
			<path class="st4" d="M71,173.9c0.1,0.5,0.2,1,0.2,1.5s-0.1,1-0.2,1.5h90.1v-3H71z"/>
		</g>
		<g>
			<g>
				<rect x="36" y="50.6" class="st3" width="28.9" height="3"/>
			</g>
			<g>
				<rect x="94.8" y="50.6" class="st3" width="66.4" height="3"/>
			</g>
			<g>
				<rect x="74" y="50.6" class="st3" width="12.4" height="3"/>
			</g>
		</g>
		<g>
			<g>
				<rect x="132.2" y="147.3" class="st3" width="28.9" height="3"/>
			</g>
			<g>
				<rect x="36" y="147.3" class="st3" width="66.4" height="3"/>
			</g>
			<g>
				<rect x="110.8" y="147.3" class="st3" width="12.4" height="3"/>
			</g>
		</g>
		<g>
			<g>
				<circle class="st5" cx="98.6" cy="100.4" r="32.5"/>
				<path class="st6" d="M98.6,134.3c-18.7,0-33.9-15.2-33.9-33.9s15.2-33.9,33.9-33.9s33.9,15.2,33.9,33.9S117.3,134.3,98.6,134.3z
					 M98.6,69.3c-17.2,0-31.1,14-31.1,31.1s14,31.1,31.1,31.1s31.1-13.9,31.1-31.1S115.7,69.3,98.6,69.3z"/>
			</g>
			<polygon class="st2" points="89.4,83.5 118.6,100.4 89.4,117.3 			"/>
		</g>
	</g>
</g>
<g class="st0">
	<g class="st1">
		<g>
			<g>
				<rect x="25.1" y="39.2" class="st2" width="147" height="122.5"/>
				<path class="st3" d="M170.6,40.7v119.5h-144V40.7H170.6 M173.6,37.7h-150v150h150V37.7L173.6,37.7z"/>
			</g>
		</g>
		<g>
			<g>
				<rect x="36" y="50.6" class="st3" width="28.9" height="3"/>
			</g>
			<g>
				<rect x="94.8" y="50.6" class="st3" width="66.4" height="3"/>
			</g>
			<g>
				<rect x="74" y="50.6" class="st3" width="12.4" height="3"/>
			</g>
		</g>
		<g>
			<g>
				<rect x="131.2" y="147.3" class="st3" width="29.9" height="3"/>
			</g>
		</g>
		<g>
			<path class="st3" d="M107.5,106.9H61.8c-7,0-12.7,5.7-12.7,12.7v45.3h26.5l-0.2,0l9.3,9.3l0-9.3h22.9c7,0,12.7-5.7,12.7-12.7
				v-32.6C120.2,112.6,114.5,106.9,107.5,106.9z"/>
			<g>
				<path class="st4" d="M86.1,178l-11.5-11.5h-5.6v-3h6.8l7.2,7.2v-7.2h24.5c6.2,0,11.3-5.1,11.3-11.3v-32.7
					c0-6.2-5.1-11.3-11.3-11.3H61.7c-6.2,0-11.3,5.1-11.3,11.3v40.7h-3v-40.7c0-7.9,6.4-14.3,14.3-14.3h45.9
					c7.9,0,14.3,6.4,14.3,14.3v32.7c0,7.9-6.4,14.3-14.3,14.3H86.2L86.1,178z"/>
			</g>
			<g>
				<rect x="56.4" y="163.5" class="st4" width="6.1" height="3.1"/>
			</g>
			<g>
				<rect x="57.6" y="120.8" class="st2" width="30.9" height="5.3"/>
				<rect x="57.6" y="133.1" class="st2" width="43.7" height="5.3"/>
				<rect x="57.6" y="145.4" class="st2" width="43.7" height="5.3"/>
				<rect x="107.5" y="145.4" class="st2" width="5.3" height="5.3"/>
			</g>
			<g>
				<path class="st7" d="M151.4,97.6c0-16.1-14-29.1-31.3-29.1c-17.3,0-31.3,13.1-31.3,29.1s14,29.1,31.3,29.1c4,0,7.8-0.7,11.3-1.9
					l8.3,8.3v-12.8C146.9,115,151.4,106.8,151.4,97.6z"/>
				<path class="st8" d="M141.2,136.7L131,126.5c-3.5,1.1-7.1,1.7-10.9,1.7c-18.1,0-32.8-13.8-32.8-30.6s14.7-30.6,32.8-30.6
					s32.8,13.7,32.8,30.6c0,9.1-4.3,17.6-11.7,23.5V136.7z M131.8,123.1l6.4,6.4v-9.9l0.6-0.4c7.1-5.3,11.1-13.1,11.1-21.5
					c0-15.2-13.4-27.6-29.8-27.6S90.4,82.4,90.4,97.6c0,15.2,13.4,27.6,29.8,27.6c3.7,0,7.3-0.6,10.8-1.9L131.8,123.1z"/>
			</g>
			<g>
				<g>
					<path class="st9" d="M129.3,105.4c-1,0-1.9-0.8-1.9-1.9V99c0-1.7,1.2-3.1,2.8-3.5c2.1-0.5,3.4-2.3,3.3-4.4
						c-0.1-2.1-1.8-3.8-3.9-3.9c-1.2-0.1-2.3,0.3-3.2,1.1c-0.9,0.8-1.3,1.9-1.3,3.1c0,1-0.8,1.9-1.9,1.9s-1.9-0.8-1.9-1.9
						c0-2.2,0.9-4.3,2.5-5.8c1.6-1.5,3.8-2.3,6-2.1c4,0.3,7.1,3.5,7.4,7.4c0.3,3.9-2.3,7.4-6.1,8.3v4.4
						C131.2,104.5,130.3,105.4,129.3,105.4z"/>
					<path class="st9" d="M129.3,112.9c-0.5,0-1-0.2-1.3-0.6c-0.3-0.3-0.6-0.8-0.6-1.3s0.2-1,0.6-1.3c0.3-0.3,0.8-0.6,1.3-0.6
						s1,0.2,1.3,0.6c0.3,0.3,0.6,0.8,0.6,1.3s-0.2,1-0.6,1.3C130.2,112.7,129.8,112.9,129.3,112.9z"/>
				</g>
				<g>
					<path class="st9" d="M111,90.8c1,0,1.9,0.8,1.9,1.9v4.5c0,1.7-1.2,3.1-2.8,3.5c-2.1,0.5-3.4,2.3-3.3,4.4
						c0.1,2.1,1.8,3.8,3.9,3.9c1.2,0.1,2.3-0.3,3.2-1.1c0.9-0.8,1.3-1.9,1.3-3.1c0-1,0.8-1.9,1.9-1.9s1.9,0.8,1.9,1.9
						c0,2.2-0.9,4.3-2.5,5.8c-1.6,1.5-3.8,2.3-6,2.1c-4-0.3-7.1-3.5-7.4-7.4c-0.3-3.9,2.3-7.4,6.1-8.3v-4.4
						C109.1,91.7,110,90.8,111,90.8z"/>
					<path class="st9" d="M111,83.3c0.5,0,1,0.2,1.3,0.6c0.3,0.3,0.6,0.8,0.6,1.3s-0.2,1-0.6,1.3c-0.3,0.3-0.8,0.5-1.3,0.5
						s-1-0.2-1.3-0.5c-0.3-0.3-0.6-0.8-0.6-1.3s0.2-1,0.6-1.3C110,83.5,110.5,83.3,111,83.3z"/>
				</g>
			</g>
		</g>
	</g>
</g>
<g id="Layer_4" class="st0">
	<g class="st1">
		<g>
			<polyline class="st3" points="173.6,161.2 173.6,187.7 23.6,187.7 23.6,161.2 			"/>
			<g>
				<rect x="25.1" y="39.2" class="st2" width="147" height="122.5"/>
				<path class="st3" d="M170.6,40.7v119.5h-144V40.7H170.6 M173.6,37.7h-150v150h150V37.7L173.6,37.7z"/>
			</g>
		</g>
		<g>
			<g>
				<rect x="36.1" y="50.6" class="st3" width="28.9" height="3"/>
			</g>
			<g>
				<rect x="94.8" y="50.6" class="st3" width="66.4" height="3"/>
			</g>
			<g>
				<rect x="74" y="50.6" class="st3" width="12.4" height="3"/>
			</g>
		</g>
		<g>
			<g>
				<rect x="145.7" y="147.4" class="st3" width="15.4" height="3"/>
			</g>
			<g>
				<rect x="36.1" y="147.4" class="st3" width="35.2" height="3"/>
			</g>
			<g>
				<rect x="124" y="147.4" class="st3" width="13.4" height="3"/>
			</g>
		</g>
		<g>
			<g>
				<g>
					<path class="st3" d="M64.4,91.4l-17-14.6c-0.5-0.4-0.2-1.1,0.4-1.2L70,73c0.1,0,0.1,0.1,0.1,0.1l-5.6,18.2
						C64.6,91.4,64.5,91.4,64.4,91.4z"/>
					<path class="st4" d="M64.5,92.9c-0.4,0-0.8-0.1-1-0.4l-17-14.6c-0.7-0.6-0.9-1.5-0.7-2.3s1-1.4,1.8-1.5l23.1-2.7l0.6,0.7
						c0.3,0.4,0.5,1,0.3,1.5l-5.8,19l-0.8,0.3C64.8,92.9,64.6,92.9,64.5,92.9z M49.8,76.9l14,12l4.3-14.1L49.8,76.9z"/>
				</g>
				<g>
					<path class="st3" d="M139.6,94.2l3.3,1c5.1,1.6,8,7,6.4,12.1l0,0c-1.6,5.1-7,8-12.1,6.4L64.6,91.5c-0.1,0-0.1-0.1-0.1-0.1
						l5.6-18.3c0,0,0.1-0.1,0.1-0.1l31.3,9.5L139.6,94.2z"/>
					<path class="st4" d="M140.1,115.6c-1.1,0-2.2-0.2-3.3-0.5L63.6,92.8l-0.3-0.6C63,91.8,63,91.4,63.1,91l5.8-18.9l0.6-0.3
						c0.4-0.2,0.8-0.3,1.2-0.1l72.6,22.2c5.9,1.8,9.2,8.1,7.4,13.9C149.3,112.5,144.9,115.6,140.1,115.6z M66.4,90.5l71.3,21.8
						c4.3,1.3,8.9-1.1,10.2-5.4c1.3-4.3-1.1-8.9-5.4-10.2L71.2,74.9L66.4,90.5z M71.6,73.5L71.6,73.5C71.6,73.5,71.6,73.5,71.6,73.5
						z"/>
				</g>
				<g>
					<path class="st3" d="M153.4,108.5L153.4,108.5c1.6-5.1-1.3-10.5-6.4-12.1l-8.6-2.6l-5.6,18.5l8.6,2.6
						C146.4,116.5,151.8,113.6,153.4,108.5z"/>
					<path class="st4" d="M144.1,116.8c-1.1,0-2.2-0.2-3.3-0.5l-10-3.1l6.5-21.4l10,3.1c2.8,0.9,5.2,2.8,6.6,5.4
						c1.4,2.6,1.7,5.6,0.8,8.5c-0.9,2.8-2.8,5.2-5.4,6.6C147.7,116.4,145.9,116.8,144.1,116.8z M134.6,111.3l7.2,2.2
						c2.1,0.6,4.3,0.4,6.2-0.6c1.9-1,3.3-2.7,4-4.8l0,0c0.6-2.1,0.4-4.3-0.6-6.2c-1-1.9-2.7-3.3-4.8-4l-7.2-2.2L134.6,111.3z"/>
				</g>
				<g>
					<g>
						<path class="st2" d="M86,129.4l-0.3-10.8c0-0.5-0.3-0.9-0.7-1.2c-0.3-0.2-7.1-5-5.9-18.4l6.1,1.8c0.1,0,0.3,0.1,0.4,0.1
							c0.3,0,0.5-0.1,0.7-0.2c0.4-0.2,0.6-0.5,0.7-0.9l1-3.8c0,0,0-0.1,0-0.1c0.1-0.5,4.2-16.9,6.4-25.5c0.4-1.3,1.6-2.3,3.1-2.3
							c0.3,0,0.6,0,0.8,0.1c0.8,0.2,1.5,0.8,1.9,1.5c0.4,0.7,0.5,1.6,0.3,2.4l-0.7,2.5c-0.2,0.7,0.1,1.4,0.8,1.8
							c0.2,0.1,0.4,0.2,0.7,0.2c0.5,0,0.9-0.2,1.2-0.6c0.6-0.8,1.6-1.3,2.6-1.3c0.3,0,0.6,0,0.8,0.1c0.8,0.2,1.5,0.8,1.9,1.5
							c0.4,0.7,0.5,1.6,0.3,2.4l-0.4,1.6c-0.2,0.7,0.1,1.4,0.8,1.8c0.2,0.1,0.4,0.2,0.7,0.2c0.5,0,0.9-0.2,1.2-0.6
							c0.6-0.8,1.6-1.3,2.6-1.3c0.3,0,0.6,0,0.8,0.1c1.7,0.5,2.7,2.2,2.2,3.9l-0.3,0.9c-0.2,0.7,0.1,1.4,0.8,1.7
							c0.2,0.1,0.4,0.2,0.7,0.2c0.4,0,0.9-0.2,1.2-0.6c0.6-0.8,1.6-1.2,2.5-1.2c0.3,0,0.6,0,0.8,0.1c0.8,0.2,1.5,0.8,1.9,1.5
							c0.4,0.7,0.5,1.6,0.3,2.4l-6.1,22.1c0,0.1-0.1,0.2-0.1,0.3c0,0.1-0.1,0.2-0.1,0.3c0,0.2-1.1,5-5.8,7.3
							c-0.5,0.3-0.9,0.8-0.9,1.3v8.7C111.1,129.4,86,129.4,86,129.4z"/>
						<path class="st3" d="M97.6,69.6L97.6,69.6c0.2,0,0.3,0,0.4,0.1c0.9,0.2,1.4,1.2,1.2,2.1l-0.7,2.5c-0.4,1.4,0.3,2.8,1.6,3.5
							c0.4,0.2,0.9,0.3,1.3,0.3c0.9,0,1.8-0.4,2.4-1.2c0.3-0.4,0.8-0.7,1.4-0.7c0.2,0,0.3,0,0.4,0.1c0.9,0.2,1.4,1.2,1.2,2.1
							l-0.4,1.6c-0.4,1.4,0.3,2.9,1.6,3.5c0.4,0.2,0.9,0.3,1.3,0.3c0.9,0,1.8-0.4,2.4-1.2c0.3-0.4,0.8-0.7,1.4-0.7
							c0.2,0,0.3,0,0.4,0.1c0.4,0.1,0.8,0.4,1,0.8s0.3,0.8,0.2,1.3l-0.3,0.9c-0.4,1.4,0.3,2.8,1.5,3.5c0.4,0.2,0.9,0.3,1.3,0.3
							c0.9,0,1.8-0.4,2.4-1.2c0.3-0.4,0.8-0.7,1.3-0.7c0.2,0,0.3,0,0.4,0.1c0.9,0.2,1.4,1.2,1.2,2.1l-6.2,22.1c0,0.1,0,0.1-0.1,0.2
							c-0.1,0.2-0.1,0.3-0.2,0.5c0,0.2-0.9,4.3-5,6.2c-1.1,0.5-1.7,1.6-1.7,2.7v7.2h-22l-0.2-9.3c0-1-0.5-1.9-1.3-2.4
							c-0.3-0.2-5.8-4.2-5.4-15.2l4.3,1.3c0.3,0.1,0.6,0.1,0.9,0.1c0.5,0,1-0.1,1.5-0.4c0.7-0.4,1.2-1.1,1.4-1.9l1-3.8
							c0,0,0-0.1,0-0.1c0.2-0.9,4.7-18.6,6.4-25.5C96.2,70.1,96.9,69.6,97.6,69.6 M97.6,66.6c-2.1,0-3.9,1.4-4.5,3.4
							c0,0-6.4,25.4-6.4,25.6l-1,3.8l-7.8-2.4c-2.2,16,6.4,21.6,6.4,21.6l0.3,12.3h28v-10.2c5.6-2.7,6.6-8.4,6.6-8.4l0,0
							c0.1-0.2,0.1-0.3,0.2-0.5l6.2-22.1c0.7-2.5-0.8-5.1-3.3-5.8l0,0c-0.4-0.1-0.8-0.2-1.3-0.2c-1.4,0-2.8,0.7-3.7,1.8l0.3-0.9
							c0.7-2.5-0.8-5.1-3.3-5.8c-0.4-0.1-0.8-0.2-1.2-0.2c-1.5,0-2.9,0.7-3.8,1.9l0.4-1.6c0.7-2.5-0.8-5.1-3.3-5.8
							c-0.4-0.1-0.8-0.2-1.3-0.2c-1.5,0-2.9,0.7-3.8,1.9l0.7-2.5c0.7-2.5-0.8-5.1-3.3-5.8l0,0C98.5,66.7,98,66.6,97.6,66.6
							L97.6,66.6z"/>
					</g>
					<rect x="81.5" y="129.7" class="st3" width="33.6" height="46"/>
					<g>
						<polygon class="st4" points="116.6,165.3 113.6,165.3 113.6,131.2 83,131.2 83,160.3 80,160.3 80,128.2 116.6,128.2 						"/>
					</g>
					<g>
						<rect x="80" y="165.6" class="st4" width="3" height="10.1"/>
					</g>
				</g>
			</g>
			<g>
				
					<rect x="93.6" y="85.8" transform="matrix(0.2773 -0.9608 0.9608 0.2773 -13.0714 157.1736)" class="st3" width="8.6" height="3"/>
			</g>
			<g>
				
					<rect x="101.1" y="90.8" transform="matrix(0.2564 -0.9666 0.9666 0.2564 -10.8461 170.5032)" class="st3" width="8.6" height="3"/>
			</g>
			<g>
				
					<rect x="109.3" y="95.5" transform="matrix(0.2595 -0.9657 0.9657 0.2595 -9.4901 181.5314)" class="st3" width="8.6" height="3"/>
			</g>
		</g>
	</g>
</g>
<g id="Layer_5" class="st0">
	<g class="st1">
		<g>
			<g>
				<rect x="25.1" y="39.2" class="st2" width="147" height="122.5"/>
				<path class="st3" d="M170.6,40.7v119.5h-144V40.7H170.6 M173.6,37.7h-150v150h150V37.7L173.6,37.7z"/>
			</g>
		</g>
		<g>
			<g>
				<rect x="36.1" y="50.6" class="st3" width="28.9" height="3"/>
			</g>
			<g>
				<rect x="94.8" y="50.6" class="st3" width="66.4" height="3"/>
			</g>
			<g>
				<rect x="74" y="50.6" class="st3" width="12.4" height="3"/>
			</g>
		</g>
		<g>
			<g>
				<rect x="131.3" y="147.4" class="st3" width="29.9" height="3"/>
			</g>
		</g>
		<g>
			<path class="st2" d="M107.5,107H61.8c-7,0-12.7,5.7-12.7,12.7V165h26.5l-0.2,0l9.3,9.3l0-9.3h22.9c7,0,12.7-5.7,12.7-12.7v-32.6
				C120.2,112.6,114.6,107,107.5,107z"/>
			<g>
				<path class="st4" d="M86.2,178l-11.5-11.5h-5.6v-3h6.8l7.2,7.2v-7.2h24.5c6.2,0,11.3-5.1,11.3-11.3v-32.7
					c0-6.2-5.1-11.3-11.3-11.3H61.7c-6.2,0-11.3,5.1-11.3,11.3v40.7h-3v-40.7c0-7.9,6.4-14.3,14.3-14.3h45.9
					c7.9,0,14.3,6.4,14.3,14.3v32.7c0,7.9-6.4,14.3-14.3,14.3H86.2L86.2,178z"/>
			</g>
			<g>
				<rect x="56.4" y="163.5" class="st4" width="6.1" height="3.1"/>
			</g>
			<g>
				<rect x="57.6" y="120.9" class="st3" width="30.9" height="5.3"/>
				<rect x="57.6" y="133.2" class="st3" width="43.7" height="5.3"/>
				<rect x="57.6" y="145.4" class="st3" width="43.7" height="5.3"/>
				<rect x="107.5" y="145.4" class="st3" width="5.3" height="5.3"/>
			</g>
			<g>
				<path class="st3" d="M151.5,97.7c0-16.1-14-29.1-31.3-29.1c-17.3,0-31.3,13.1-31.3,29.1s14,29.1,31.3,29.1c4,0,7.8-0.7,11.3-1.9
					l8.3,8.3v-12.8C146.9,115,151.5,106.9,151.5,97.7z"/>
				<path class="st4" d="M141.3,136.8L131,126.6c-3.5,1.1-7.1,1.7-10.9,1.7c-18.1,0-32.8-13.8-32.8-30.6S102.1,67,120.2,67
					S153,80.8,153,97.7c0,9.1-4.3,17.6-11.7,23.5V136.8z M131.8,123.1l6.4,6.4v-9.9l0.6-0.4c7.1-5.3,11.1-13.1,11.1-21.5
					c0-15.2-13.4-27.6-29.8-27.6S90.4,82.4,90.4,97.7s13.4,27.6,29.8,27.6c3.7,0,7.3-0.6,10.8-1.9L131.8,123.1z"/>
			</g>
			<g>
				<g>
					<path class="st4" d="M129.3,105.5c-1,0-1.9-0.8-1.9-1.9V99c0-1.7,1.2-3.1,2.8-3.5c2.1-0.5,3.4-2.3,3.3-4.4
						c-0.1-2.1-1.8-3.8-3.9-3.9c-1.2-0.1-2.3,0.3-3.2,1.1c-0.9,0.8-1.3,1.9-1.3,3.1c0,1-0.8,1.9-1.9,1.9s-1.9-0.8-1.9-1.9
						c0-2.2,0.9-4.3,2.5-5.8c1.6-1.5,3.8-2.3,6-2.1c4,0.3,7.1,3.5,7.4,7.4c0.3,3.9-2.3,7.4-6.1,8.3v4.4
						C131.2,104.6,130.3,105.5,129.3,105.5z"/>
					<path class="st4" d="M129.3,112.9c-0.5,0-1-0.2-1.3-0.6c-0.3-0.3-0.6-0.8-0.6-1.3s0.2-1,0.6-1.3c0.4-0.3,0.8-0.6,1.3-0.6
						s1,0.2,1.3,0.6c0.4,0.3,0.6,0.8,0.6,1.3s-0.2,1-0.6,1.3C130.3,112.7,129.8,112.9,129.3,112.9z"/>
				</g>
				<g>
					<path class="st4" d="M111,90.9c1,0,1.9,0.8,1.9,1.9v4.5c0,1.7-1.2,3.1-2.8,3.5c-2.1,0.5-3.4,2.3-3.3,4.4
						c0.1,2.1,1.8,3.8,3.9,3.9c1.2,0.1,2.3-0.3,3.2-1.1c0.9-0.8,1.3-1.9,1.3-3.1c0-1,0.8-1.9,1.9-1.9s1.9,0.8,1.9,1.9
						c0,2.2-0.9,4.3-2.5,5.8c-1.6,1.5-3.8,2.3-6,2.1c-4-0.3-7.1-3.5-7.4-7.4c-0.3-3.9,2.3-7.4,6.1-8.3v-4.4
						C109.1,91.7,110,90.9,111,90.9z"/>
					<path class="st4" d="M111,83.4c0.5,0,1,0.2,1.3,0.6c0.3,0.3,0.6,0.8,0.6,1.3s-0.2,1-0.6,1.3c-0.3,0.3-0.8,0.5-1.3,0.5
						s-1-0.2-1.3-0.5c-0.3-0.3-0.6-0.8-0.6-1.3s0.2-1,0.6-1.3C110,83.6,110.5,83.4,111,83.4z"/>
				</g>
			</g>
		</g>
	</g>
</g>
<g id="Layer_6" class="st0">
	<g class="st1">
		<g>
			<g>
				<rect x="25.1" y="39.2" class="st2" width="147" height="122.5"/>
				<path class="st3" d="M170.6,40.7v119.5h-144V40.7H170.6 M173.6,37.7h-150v150h150V37.7L173.6,37.7z"/>
			</g>
		</g>
		<g>
			<circle class="st4" cx="63.5" cy="175.4" r="5"/>
			<path class="st4" d="M55.8,175.4c0-0.5,0-1,0.2-1.5H36.1v3h19.8C55.8,176.5,55.8,176,55.8,175.4z"/>
			<path class="st4" d="M71,173.9c0.1,0.5,0.2,1,0.2,1.5s0,1-0.2,1.5h90.1v-3H71z"/>
		</g>
		<g>
			<g>
				<rect x="36.1" y="50.6" class="st3" width="28.9" height="3"/>
			</g>
			<g>
				<rect x="94.8" y="50.6" class="st3" width="66.4" height="3"/>
			</g>
			<g>
				<rect x="74" y="50.6" class="st3" width="12.4" height="3"/>
			</g>
		</g>
		<g>
			<g>
				<rect x="132.3" y="147.4" class="st3" width="28.9" height="3"/>
			</g>
			<g>
				<rect x="36.1" y="147.4" class="st3" width="66.4" height="3"/>
			</g>
			<g>
				<rect x="110.8" y="147.4" class="st3" width="12.4" height="3"/>
			</g>
		</g>
		<g>
			<g>
				<circle class="st3" cx="98.6" cy="100.5" r="32.5"/>
				<path class="st4" d="M98.6,134.4c-18.7,0-33.9-15.2-33.9-33.9s15.2-33.9,33.9-33.9s33.9,15.2,33.9,33.9S117.3,134.4,98.6,134.4z
					 M98.6,69.4c-17.2,0-31.1,14-31.1,31.1s14,31.1,31.1,31.1s31.1-13.9,31.1-31.1S115.8,69.4,98.6,69.4z"/>
			</g>
			<polygon class="st2" points="89.4,83.6 118.6,100.5 89.4,117.4 			"/>
		</g>
	</g>
</g>
<g>
	<g>
		<circle class="st2" cx="103.9" cy="103.4" r="85.9"/>
	</g>
	<g>
		<g class="st10">
			<g>
				<path class="st3" d="M114.5,58.6l53.6-54.2c3.9-3.1,9.6-1.2,11,3.5l23.9,81.5c1.4,4.6-2.3,9.1-7.1,8.8l-73.9-14.3
					c-2.9-0.2-5.3-2.2-6.1-4.9l-3.8-13C111.4,63.3,112.3,60.4,114.5,58.6z"/>
			</g>
			<g>
				
					<rect x="46.3" y="76" transform="matrix(0.9595 -0.2818 0.2818 0.9595 -20.6082 24.294)" class="st2" width="55.7" height="15.6"/>
				<path class="st4" d="M48.6,101l-5.2-17.8l56.3-16.5l5.2,17.8L48.6,101z M47.1,85.2l3.5,12.1l50.6-14.9l-3.5-12.1L47.1,85.2z"/>
			</g>
			<path class="st4" d="M111.7,79.5l-3.6-12.4c-0.3-1.1-1-2-2-2.5s-2.1-0.7-3.2-0.3l-2.4,0.7c-2.2,0.7-3.5,3-2.9,5.2l3.6,12.4
				c0.3,1.1,1,2,2,2.5c0.6,0.3,1.3,0.5,2,0.5c0.4,0,0.8-0.1,1.2-0.2l2.4-0.7v0C111.1,84.1,112.4,81.7,111.7,79.5z"/>
			<g>
				<path class="st2" d="M106.1,65.7l4.8-3.8c1.5-1,3.9-1.1,4.2-0.1l5.6,18.5c0.3,1-1.8,2.2-3.6,2.1l-6.3-0.6L106.1,65.7z"/>
				<path class="st4" d="M117.2,83.8c-0.1,0-0.2,0-0.2,0l-7.4-0.7l-5.3-18l5.6-4.4c1.5-1,3.5-1.4,4.9-0.9c0.8,0.3,1.4,0.8,1.6,1.6
					l5.6,18.4c0.2,0.7,0,1.5-0.5,2.2C120.7,83.1,118.9,83.8,117.2,83.8z M111.9,80.3l5.3,0.5c0.7,0,1.5-0.3,1.9-0.6l-5.4-17.7
					c-0.4,0-1.3,0.1-2,0.5l-4,3.1L111.9,80.3z M113.6,62.2C113.6,62.2,113.6,62.2,113.6,62.2L113.6,62.2z"/>
			</g>
			<g>
				<path class="st3" d="M31.5,84.5l11.8-3.5c0,0,0.1-5.4,3.1-6.3l22.1-6.5c2.5-0.7,5.2-0.8,7.7-0.1c2.7,0.7,6.2,1.8,9,3.1
					c3.3,1.5,2.9,6.5-0.7,7.2c-0.1,0-0.1,0-0.2,0c-0.5,0.1-1,0.1-1.5,0l-10.7-2.5c0,0-0.8,7.9-7.3,11.3l-2.4,19.1
					c0,0-8.2-1.4-11.3-5.5l-13.6,4L31.5,84.5z"/>
				<path class="st4" d="M62.4,107.7c-0.1,0-0.1,0-0.2,0c-0.3-0.1-7.9-1.4-11.5-5.3l-12.8,3.8c-0.7,0.2-1.4-0.2-1.6-0.8l-6-20.3
					c-0.1-0.3-0.1-0.7,0.1-1s0.4-0.5,0.7-0.6l10.9-3.2c0.2-1.8,0.9-5.7,4-6.6l22.1-6.5c2.7-0.8,5.7-0.8,8.4-0.1
					c2.6,0.7,6.2,1.8,9.2,3.2c2,0.9,3.2,3,3,5.2c-0.2,2.2-1.8,3.9-3.9,4.3l-0.2,0c-0.7,0.1-1.4,0.1-2.1-0.1l-9.4-2.2
					c-0.5,2.5-2.2,7.7-7.2,10.6l-2.3,18.4c0,0.3-0.2,0.6-0.5,0.8C62.9,107.6,62.7,107.7,62.4,107.7z M51.1,99.6c0.4,0,0.8,0.2,1,0.5
					c2.1,2.8,6.9,4.2,9.2,4.8l2.2-17.7c0.1-0.4,0.3-0.8,0.7-1c5.8-3,6.6-10.2,6.6-10.3c0-0.4,0.2-0.7,0.5-0.9c0.3-0.2,0.7-0.3,1-0.2
					l10.7,2.5c0.3,0.1,0.7,0.1,1,0l0.2,0c1.3-0.3,1.8-1.3,1.9-2.2c0.1-0.9-0.2-2.1-1.5-2.7c-2.8-1.3-6.3-2.3-8.8-3
					c-2.3-0.6-4.8-0.6-7.1,0.1L46.8,76c-1.8,0.5-2.2,4-2.2,5.1c0,0.5-0.4,1-0.9,1.2l-10.6,3.1l5.3,17.9l12.4-3.6
					C50.9,99.6,51,99.6,51.1,99.6z"/>
			</g>
			<g>
				<path class="st3" d="M65.6,106.1L65.6,106.1c-1.5,1-3.6,0.6-4.6-0.9l-6.7-10.1c-1-1.5-0.6-3.6,0.9-4.6l0,0
					c1.5-1,3.6-0.6,4.6,0.9l6.7,10.1C67.5,103,67.1,105.1,65.6,106.1z"/>
				<path class="st4" d="M63.8,107.9c-0.3,0-0.6,0-0.9-0.1c-1.2-0.2-2.2-0.9-2.9-1.9l-6.7-10.1c-0.7-1-0.9-2.2-0.7-3.4
					s0.9-2.2,1.9-2.9c1-0.7,2.2-0.9,3.4-0.7c1.2,0.2,2.2,0.9,2.9,1.9l6.7,10.1c0.7,1,0.9,2.2,0.7,3.4s-0.9,2.2-1.9,2.9l0,0
					C65.5,107.7,64.7,107.9,63.8,107.9z M65.6,106.1L65.6,106.1L65.6,106.1z M57,91.2c-0.4,0-0.8,0.1-1.1,0.3
					c-0.5,0.3-0.8,0.8-0.9,1.3c-0.1,0.5,0,1.1,0.3,1.5l6.8,10.1c0.3,0.5,0.8,0.8,1.3,0.9c0.5,0.1,1.1,0,1.5-0.3l0,0
					c0.5-0.3,0.8-0.8,0.9-1.3s0-1.1-0.3-1.5l-6.8-10.1c-0.3-0.5-0.8-0.8-1.3-0.9C57.3,91.2,57.1,91.2,57,91.2z"/>
			</g>
			<g>
				<path class="st3" d="M71.9,103.7L71.9,103.7c-1.5,1-3.6,0.6-4.6-0.9l-6.7-10.1c-1-1.5-0.6-3.6,0.9-4.6l0,0
					c1.5-1,3.6-0.6,4.6,0.9l6.7,10.1C73.9,100.6,73.5,102.7,71.9,103.7z"/>
				<path class="st4" d="M70.1,105.5c-0.3,0-0.6,0-0.9-0.1c-1.2-0.2-2.2-0.9-2.9-1.9l-6.7-10.1c-1.4-2.1-0.8-4.9,1.3-6.3
					c2.1-1.4,4.9-0.8,6.3,1.3l6.8,10.1c0.7,1,0.9,2.2,0.7,3.4c-0.2,1.2-0.9,2.2-1.9,2.9l0,0C71.9,105.2,71,105.5,70.1,105.5z
					 M63.3,88.8c-0.4,0-0.8,0.1-1.1,0.3c-0.9,0.6-1.2,1.9-0.6,2.9l6.7,10.1c0.3,0.5,0.8,0.8,1.3,0.9c0.5,0.1,1.1,0,1.5-0.3
					c0,0,0,0,0,0c0.5-0.3,0.8-0.8,0.9-1.3c0.1-0.5,0-1.1-0.3-1.5l-6.8-10.1C64.7,89.1,64,88.8,63.3,88.8z"/>
			</g>
			<g>
				<path class="st3" d="M78.6,101.3L78.6,101.3c-1.5,1-3.5,1.1-4.5-0.5l-6.7-10.1c-1-1.5-0.6-3.6,0.9-4.6h0c1.5-1,3.6-0.6,4.6,0.9
					l6.7,9.6C80.6,98.2,80.1,100.2,78.6,101.3z"/>
				<path class="st4" d="M76.4,103.2c-1.3,0-2.6-0.6-3.3-1.7l-6.7-10.1c-1.4-2.1-0.8-4.9,1.3-6.3c2.1-1.4,4.9-0.8,6.3,1.3l6.7,9.6
					c0.7,1,0.9,2.2,0.7,3.4c-0.2,1.2-0.9,2.2-1.9,2.9l0,0C78.4,102.9,77.4,103.2,76.4,103.2z M78.6,101.3L78.6,101.3L78.6,101.3z
					 M70.1,86.8c-0.4,0-0.8,0.1-1.1,0.3c-0.9,0.6-1.2,1.9-0.6,2.9l6.7,10.1c0.7,1,2,0.6,2.8,0.1l0,0c0.9-0.6,1.2-1.9,0.6-2.9
					l-6.7-9.6C71.4,87.1,70.8,86.8,70.1,86.8z"/>
			</g>
			<g>
				<path class="st3" d="M85.4,99.3L85.4,99.3c-1.5,1-3.5,1.1-4.5-0.5l-5.3-7.9c-1-1.5-0.6-3.6,0.9-4.6l0,0c1.5-1,3.6-0.6,4.6,0.9
					l5.2,7.5C87.3,96.2,86.9,98.3,85.4,99.3z"/>
				<path class="st4" d="M83.1,101.3c-1.3,0-2.6-0.6-3.3-1.7l-5.3-7.9c-0.7-1-0.9-2.2-0.7-3.4c0.2-1.2,0.9-2.2,1.9-2.9
					c2.1-1.4,4.9-0.8,6.3,1.3l5.2,7.5c0.7,1,0.9,2.2,0.7,3.4c-0.2,1.2-0.9,2.2-1.9,2.9l0,0C85.1,100.9,84.1,101.3,83.1,101.3z
					 M85.4,99.3L85.4,99.3L85.4,99.3z M78.3,87c-0.4,0-0.8,0.1-1.1,0.3c-0.9,0.6-1.2,1.9-0.6,2.9l5.3,7.9c0.7,1,2,0.6,2.8,0.1l0,0
					c0.9-0.6,1.2-1.9,0.6-2.9l-5.2-7.5C79.7,87.3,79,87,78.3,87z"/>
			</g>
			<path class="st4" d="M35,78.3L4.6,87.5c-1.6,0.5-2.5,2.2-2,3.7l7.4,24.6c0.2,0.8,0.7,1.4,1.5,1.8c0.4,0.2,0.9,0.4,1.4,0.4
				c0.3,0,0.6,0,0.9-0.1l30.4-9.2L35,78.3z"/>
		</g>
		<g class="st10">
			<g>
				<path class="st3" d="M121.5,125l74.3-16.9c4.9-0.5,8.8,4.1,7.4,8.8l-23.5,81.5c-1.3,4.6-6.8,6.5-10.7,3.6l-54.6-51.7
					c-2.3-1.7-3.3-4.7-2.5-7.4l3.8-13C116.4,127.2,118.7,125.3,121.5,125z"/>
			</g>
			<g>
				
					<rect x="46.2" y="116.8" transform="matrix(0.9608 0.2774 -0.2774 0.9608 37.4535 -15.6381)" class="st2" width="55.6" height="15.5"/>
				<path class="st4" d="M99.6,141.6l-56.3-16.3l5.1-17.8l56.3,16.3L99.6,141.6z M47,123.3l50.6,14.6l3.5-12.1l-50.6-14.6L47,123.3z
					"/>
			</g>
			<path class="st4" d="M108.6,123.5l-2.4-0.7c-1.1-0.3-2.2-0.2-3.2,0.4c-1,0.5-1.7,1.4-2,2.5L97.5,138c-0.3,1.1-0.2,2.2,0.4,3.2
				c0.5,1,1.4,1.7,2.5,2l2.4,0.7c0.4,0.1,0.8,0.2,1.2,0.2c1.8,0,3.5-1.2,4-3l3.6-12.4C112.1,126.4,110.9,124.1,108.6,123.5z"/>
			<g>
				<path class="st2" d="M110.6,126.4l6.1-0.6c1.8-0.1,3.8,1.1,3.6,2.1l-5.2,18.6c-0.3,1-2.7,0.9-4.2-0.1l-5-3.9L110.6,126.4z"/>
				<path class="st4" d="M113.5,148.6c-1.2,0-2.5-0.4-3.5-1.1l-5.8-4.6l5.2-18l7.1-0.7c1.8-0.1,3.7,0.7,4.7,1.9
					c0.5,0.7,0.7,1.4,0.5,2.2l-5.2,18.5c-0.2,0.7-0.8,1.3-1.6,1.6C114.5,148.6,114,148.6,113.5,148.6z M107.7,141.9l4.2,3.3
					c0.6,0.4,1.5,0.5,1.9,0.5l5-17.8c-0.3-0.3-1.2-0.6-1.9-0.6l-5,0.5L107.7,141.9z M118.8,127.5
					C118.8,127.5,118.8,127.5,118.8,127.5L118.8,127.5z"/>
			</g>
			<g>
				<path class="st3" d="M37.7,102.3l11.8,3.4c0,0,2.9-4.5,6-3.6l22.1,6.4c2.5,0.7,4.8,2.2,6.6,4.1c1.9,2.1,4.2,4.9,5.9,7.4
					c2,3.1-1,7-4.5,5.7c-0.1,0-0.1-0.1-0.2-0.1c-0.5-0.2-0.9-0.5-1.3-0.9l-7.7-7.8c0,0-4.9,6.3-12.2,5.6L52,137.3
					c0,0-6.1-5.6-6.6-10.7l-13.6-3.9L37.7,102.3z"/>
				<path class="st4" d="M52,138.5c-0.3,0-0.6-0.1-0.8-0.3c-0.3-0.2-5.9-5.4-6.8-10.7l-12.8-3.7c-0.7-0.2-1-0.9-0.9-1.5l5.9-20.3
					c0.1-0.3,0.3-0.6,0.6-0.7c0.3-0.2,0.6-0.2,1-0.1l10.9,3.2c1.1-1.5,3.8-4.3,6.9-3.4l22.1,6.4c2.7,0.8,5.2,2.3,7.1,4.5
					c1.8,2,4.3,4.9,6,7.6c1.2,1.9,1.1,4.2-0.3,6c-1.4,1.7-3.6,2.3-5.6,1.6l-0.2-0.1c-0.6-0.3-1.2-0.7-1.7-1.1l-6.8-6.9
					c-1.8,1.8-6,5.3-11.7,5.1l-11.8,14.3C52.7,138.3,52.4,138.5,52,138.5C52,138.5,52,138.5,52,138.5z M33.4,121.8l12.4,3.6
					c0.5,0.1,0.9,0.6,0.9,1.1c0.3,3.4,3.6,7.3,5.2,9l11.4-13.7c0.3-0.3,0.7-0.5,1.1-0.4c6.5,0.6,11.1-5.1,11.1-5.1
					c0.2-0.3,0.6-0.5,0.9-0.5c0.4,0,0.7,0.1,1,0.4l7.7,7.8c0.2,0.3,0.5,0.5,0.9,0.6l0.2,0.1c1.2,0.5,2.3-0.1,2.8-0.8
					c0.6-0.7,0.9-1.9,0.2-3.1c-1.7-2.6-4.1-5.4-5.8-7.3c-1.6-1.8-3.7-3.1-6-3.7l-22.1-6.4c-1.8-0.5-4,2.1-4.6,3.1
					c-0.3,0.5-0.9,0.7-1.4,0.5l-10.6-3.1L33.4,121.8z"/>
			</g>
			<g>
				<path class="st3" d="M54.8,138.8L54.8,138.8c-1.8,0-3.3-1.4-3.4-3.2l-0.3-12.1c0-1.8,1.4-3.3,3.2-3.4h0c1.8,0,3.3,1.4,3.4,3.2
					l0.3,12.1C58.1,137.2,56.6,138.7,54.8,138.8z"/>
				<path class="st4" d="M54.7,140c-2.5,0-4.5-2-4.6-4.5l-0.3-12.1c0-1.2,0.4-2.4,1.3-3.3c0.8-0.9,2-1.4,3.2-1.4
					c1.2,0,2.4,0.4,3.3,1.3s1.4,2,1.4,3.2l0.3,12.1c0,1.2-0.4,2.4-1.3,3.3c-0.8,0.9-2,1.4-3.2,1.4l0,0C54.8,140,54.8,140,54.7,140z
					 M54.8,138.8L54.8,138.8L54.8,138.8z M54.5,121.3C54.4,121.3,54.4,121.3,54.5,121.3c-0.6,0-1.1,0.2-1.5,0.6
					c-0.4,0.4-0.6,0.9-0.6,1.5l0.3,12.1c0,1.1,0.9,2,2.1,2c0,0,0,0,0,0l0,0c1.1,0,2-1,2-2.1l-0.3-12.1c0-0.5-0.2-1.1-0.6-1.4
					C55.5,121.5,55,121.3,54.5,121.3z"/>
			</g>
			<g>
				<path class="st3" d="M61.5,140.1L61.5,140.1c-1.8,0-3.3-1.4-3.4-3.2l-0.3-12.1c0-1.8,1.4-3.3,3.2-3.4h0c1.8,0,3.3,1.4,3.4,3.2
					l0.3,12.1C64.7,138.5,63.3,140.1,61.5,140.1z"/>
				<path class="st4" d="M61.4,141.4c-1.2,0-2.3-0.4-3.1-1.3c-0.9-0.8-1.4-2-1.4-3.2l-0.3-12.1c0-1.2,0.4-2.4,1.3-3.3
					c0.8-0.9,2-1.4,3.2-1.4c2.5-0.1,4.6,1.9,4.7,4.5l0.3,12.1c0,1.2-0.4,2.4-1.3,3.3s-2,1.4-3.2,1.4
					C61.5,141.4,61.4,141.4,61.4,141.4z M61.1,122.6C61.1,122.6,61.1,122.6,61.1,122.6c-1.2,0-2.1,1-2.1,2.1l0.3,12.1
					c0,0.5,0.2,1.1,0.6,1.4c0.4,0.4,0.9,0.6,1.5,0.6c0.5,0,1.1-0.2,1.4-0.6s0.6-0.9,0.6-1.5l-0.3-12.1
					C63.1,123.5,62.2,122.6,61.1,122.6z"/>
			</g>
			<g>
				<path class="st3" d="M68.4,141.6L68.4,141.6c-1.8,0-3.5-1-3.6-2.8l-0.3-12.1c0-1.8,1.4-3.3,3.2-3.4h0c1.8,0,3.3,1.4,3.4,3.2
					l0.5,11.7C71.7,140.1,70.2,141.6,68.4,141.6z"/>
				<path class="st4" d="M68.3,142.9c-2.6,0-4.7-1.7-4.7-4l-0.3-12.1c-0.1-2.5,1.9-4.6,4.5-4.7c2.5-0.1,4.6,1.9,4.7,4.5l0.5,11.7
					c0,1.2-0.4,2.4-1.3,3.3c-0.8,0.9-2,1.4-3.2,1.4l0,0C68.4,142.9,68.3,142.9,68.3,142.9z M68.4,141.6L68.4,141.6L68.4,141.6z
					 M67.8,124.6C67.8,124.6,67.8,124.6,67.8,124.6c-0.6,0-1.1,0.2-1.5,0.6c-0.4,0.4-0.6,0.9-0.6,1.5l0.3,12.1
					c0,1.2,1.4,1.6,2.3,1.6l0,0c1.1,0,2-1,2-2.1l-0.5-11.7C69.9,125.5,69,124.6,67.8,124.6z"/>
			</g>
			<g>
				<path class="st3" d="M75.1,143.6L75.1,143.6c-1.8,0-3.5-1-3.6-2.8l-0.2-9.5c0-1.8,1.4-3.3,3.2-3.4h0c1.8,0,3.3,1.4,3.4,3.2
					l0.4,9.1C78.4,142,77,143.5,75.1,143.6z"/>
				<path class="st4" d="M75,144.8c-2.6,0-4.7-1.7-4.7-4l-0.2-9.5c-0.1-2.5,1.9-4.6,4.5-4.7c1.2,0,2.4,0.4,3.3,1.3
					c0.9,0.8,1.4,2,1.4,3.2l0.4,9.1c0,1.2-0.4,2.4-1.3,3.3c-0.8,0.9-2,1.4-3.2,1.4l0,0C75.1,144.8,75.1,144.8,75,144.8z M74.7,129.1
					C74.7,129.1,74.7,129.1,74.7,129.1c-1.2,0-2.1,1-2.1,2.1l0.2,9.5c0,1.2,1.4,1.6,2.3,1.6c0.5,0,1.1-0.2,1.4-0.6
					c0.4-0.4,0.6-0.9,0.6-1.5l-0.4-9.1c0-0.6-0.2-1.1-0.6-1.5C75.7,129.3,75.2,129.1,74.7,129.1z"/>
			</g>
			<path class="st4" d="M43.2,99.3c-0.2-0.3-0.4-0.5-0.8-0.6l-29.1-8.2c-1.5-0.4-3,0.4-3.4,1.9l-7,24.7c-0.2,0.7-0.1,1.5,0.2,2.1
				c0.4,0.6,1,1.1,1.7,1.3l29.1,8.2c0.1,0,0.2,0,0.3,0c0.5,0,1-0.4,1.2-0.9l7.8-27.6C43.4,100,43.4,99.6,43.2,99.3z"/>
		</g>
		<g>
			<g>
				<path class="st3" d="M124.1,91l69.7-38.5c4.8-1.9,10,1.6,10,6.7v88.7c0,5-5,8.5-9.7,6.7l-69.8-36.1c-2.8-1-4.7-3.7-4.7-6.7V97.6
					C119.6,94.7,121.4,92,124.1,91z"/>
			</g>
			<g>
				<g>
					<g>
						<path class="st4" d="M181.5,114.1c-1.5,0-2.8-1.3-2.8-2.8v-6.7c0-2.5,1.7-4.7,4.2-5.2c3-0.7,5.1-3.4,4.9-6.6
							c-0.2-3.1-2.7-5.6-5.8-5.8c-1.8-0.1-3.4,0.5-4.7,1.7c-1.3,1.2-2,2.8-2,4.6c0,1.5-1.3,2.8-2.8,2.8s-2.8-1.3-2.8-2.8
							c0-3.3,1.4-6.4,3.8-8.7c2.4-2.3,5.6-3.4,8.9-3.2c5.9,0.4,10.6,5.1,11,11c0.4,5.8-3.4,11-9,12.4v6.5
							C184.3,112.9,183,114.1,181.5,114.1z"/>
					</g>
					<g>
						<path class="st4" d="M181.5,125.2c-0.7,0-1.5-0.3-2-0.8c-0.5-0.5-0.8-1.2-0.8-2c0-0.7,0.3-1.5,0.8-2s1.2-0.8,2-0.8
							s1.5,0.3,2,0.8c0.5,0.5,0.8,1.2,0.8,2c0,0.7-0.3,1.5-0.8,2C182.9,124.9,182.2,125.2,181.5,125.2z"/>
					</g>
				</g>
				<g>
					<g>
						<path class="st4" d="M157.7,92.5c1.5,0,2.8,1.3,2.8,2.8v6.7c0,2.5-1.7,4.7-4.2,5.2c-3,0.7-5.1,3.4-4.9,6.6
							c0.2,3.1,2.7,5.6,5.8,5.8c1.8,0.1,3.4-0.5,4.7-1.7c1.3-1.2,2-2.8,2-4.6c0-1.5,1.3-2.8,2.8-2.8c1.5,0,2.8,1.3,2.8,2.8
							c0,3.3-1.4,6.4-3.8,8.7c-2.4,2.3-5.6,3.4-8.9,3.2c-5.9-0.4-10.6-5.1-11-11c-0.4-5.8,3.4-11,9-12.4v-6.5
							C154.9,93.7,156.1,92.5,157.7,92.5z"/>
					</g>
					<g>
						<path class="st4" d="M157.7,81.4c0.7,0,1.5,0.3,2,0.8c0.5,0.5,0.8,1.2,0.8,2c0,0.7-0.3,1.5-0.8,2c-0.5,0.5-1.2,0.8-2,0.8
							c-0.7,0-1.5-0.3-2-0.8c-0.5-0.5-0.8-1.2-0.8-2c0-0.7,0.3-1.5,0.8-2C156.2,81.7,156.9,81.4,157.7,81.4z"/>
					</g>
				</g>
			</g>
			<g>
				<rect x="47.2" y="96.2" class="st2" width="58.2" height="16.2"/>
				<path class="st4" d="M106.9,113.9H45.7V94.7h61.2V113.9z M48.7,110.9h55.2V97.7H48.7V110.9z"/>
			</g>
			<g>
				<path class="st4" d="M110.8,113.9h-2.6c-1.6,0-2.8-1.3-2.8-2.8V97.6c0-1.6,1.3-2.8,2.8-2.8h2.6c1.6,0,2.8,1.3,2.8,2.8V111
					C113.6,112.6,112.3,113.9,110.8,113.9z"/>
				<path class="st4" d="M110.8,115.4h-2.6c-2.4,0-4.3-1.9-4.3-4.3V97.6c0-2.4,1.9-4.3,4.3-4.3h2.6c2.4,0,4.3,1.9,4.3,4.3V111
					C115.1,113.4,113.2,115.4,110.8,115.4z M108.2,96.2c-0.7,0-1.3,0.6-1.3,1.3V111c0,0.7,0.6,1.3,1.3,1.3h2.6
					c0.7,0,1.3-0.6,1.3-1.3V97.6c0-0.7-0.6-1.3-1.3-1.3H108.2z"/>
			</g>
			<g>
				<path class="st2" d="M113.6,95.5l5.9-2.4c1.8-0.6,4.2,0,4.2,1.1l0.2,20.1c0,1.1-2.4,1.7-4.2,1.1l-6.1-2.5V95.5z"/>
				<path class="st4" d="M121.2,117.2c-0.7,0-1.4-0.1-2-0.3l-7.1-2.9V94.5l6.9-2.8c1.8-0.6,3.9-0.4,5.2,0.5c0.7,0.5,1.1,1.2,1.1,2
					l0.2,20.1c0,0.8-0.4,1.5-1.1,2C123.5,116.9,122.4,117.2,121.2,117.2z M115.1,112l5.2,2.1c0.8,0.3,1.7,0.1,2.1-0.1l-0.2-19.4
					c-0.4-0.2-1.4-0.3-2.2-0.1l-4.9,2V112z M122.2,94.2C122.2,94.3,122.2,94.3,122.2,94.2L122.2,94.2z"/>
			</g>
			<g>
				<path class="st3" d="M33.4,92.5h12.8c0,0,1.6-5.4,5-5.4h24c2.7,0,5.4,0.8,7.8,2.2c2.5,1.5,5.7,3.7,8.1,5.7c2.9,2.5,1,7.3-2.8,7
					c-0.1,0-0.1,0-0.2,0c-0.5-0.1-1.1-0.2-1.5-0.5l-10-5.6c0,0-3.1,7.7-10.7,9.1l-8,18.4c0,0-7.8-3.8-9.7-8.9H33.4V92.5z"/>
				<path class="st4" d="M57.9,124.7c-0.2,0-0.4,0-0.6-0.1c-0.3-0.2-7.5-3.7-10-8.7h-14c-0.7,0-1.3-0.6-1.3-1.3V92.5
					c0-0.7,0.6-1.3,1.3-1.3h11.9c0.7-1.7,2.6-5.4,5.9-5.4h24c3,0,5.9,0.8,8.4,2.4c2.4,1.5,5.7,3.7,8.3,5.9c1.8,1.5,2.3,3.9,1.4,6
					c-0.9,2.1-2.9,3.4-5.1,3.2l-0.3,0c-0.7-0.1-1.4-0.3-2-0.6l-8.8-5c-1.3,2.3-4.5,7.1-10.3,8.5L59,124c-0.1,0.3-0.4,0.6-0.7,0.7
					C58.2,124.7,58,124.7,57.9,124.7z M34.6,113.4h13.6c0.5,0,1,0.3,1.2,0.8c1.3,3.4,5.8,6.3,7.9,7.6l7.4-17.1
					c0.2-0.4,0.5-0.7,0.9-0.7c6.8-1.3,9.7-8.3,9.7-8.4c0.1-0.3,0.4-0.6,0.7-0.7c0.3-0.1,0.7-0.1,1,0.1l10,5.6
					c0.3,0.2,0.7,0.3,1.1,0.3l0.2,0c1.4,0.1,2.3-0.8,2.6-1.6c0.4-0.9,0.4-2.2-0.7-3.2c-2.4-2.1-5.7-4.2-7.9-5.6
					c-2.1-1.3-4.6-2-7.1-2h-24c-2,0-3.4,3.3-3.8,4.5c-0.2,0.5-0.6,0.9-1.2,0.9H34.6V113.4z"/>
			</g>
			<g>
				<path class="st3" d="M61.2,124.1L61.2,124.1c-1.8,0.6-3.8-0.4-4.3-2.3L53,109.8c-0.6-1.8,0.4-3.8,2.3-4.3l0,0
					c1.8-0.6,3.8,0.4,4.3,2.3l3.8,12.1C64,121.6,63,123.6,61.2,124.1z"/>
				<path class="st4" d="M60.1,125.5c-0.7,0-1.5-0.2-2.2-0.5c-1.1-0.6-1.9-1.6-2.3-2.8l-3.8-12.1c-0.4-1.2-0.3-2.5,0.3-3.6
					c0.6-1.1,1.6-1.9,2.8-2.3c1.2-0.4,2.5-0.3,3.6,0.3c1.1,0.6,1.9,1.6,2.3,2.8l3.8,12.1c0.4,1.2,0.3,2.5-0.3,3.6
					c-0.6,1.1-1.6,1.9-2.8,2.3C61.1,125.5,60.6,125.5,60.1,125.5z M56.3,106.5c-0.2,0-0.4,0-0.7,0.1c-0.6,0.2-1,0.6-1.3,1.1
					c-0.3,0.5-0.3,1.1-0.2,1.7l3.8,12.1c0.2,0.6,0.6,1,1.1,1.3c0.5,0.3,1.1,0.3,1.7,0.2c1.2-0.4,1.8-1.6,1.4-2.8l-3.8-12.1
					C58.2,107.2,57.3,106.5,56.3,106.5z"/>
			</g>
			<g>
				<path class="st3" d="M68.2,123.6L68.2,123.6c-1.8,0.6-3.8-0.4-4.3-2.3l-3.8-12.1c-0.6-1.8,0.4-3.8,2.3-4.3l0,0
					c1.8-0.6,3.8,0.4,4.3,2.3l3.8,12.1C71.1,121,70.1,123,68.2,123.6z"/>
				<path class="st4" d="M67.2,125c-0.7,0-1.5-0.2-2.2-0.5c-1.1-0.6-1.9-1.6-2.3-2.8l-3.8-12.1c-0.8-2.5,0.6-5.1,3.1-5.9
					c2.5-0.8,5.1,0.6,5.9,3.1l3.8,12.1c0.4,1.2,0.3,2.5-0.3,3.6c-0.6,1.1-1.6,1.9-2.8,2.3l0,0C68.2,124.9,67.7,125,67.2,125z
					 M63.4,106c-0.2,0-0.4,0-0.7,0.1c-1.2,0.4-1.8,1.6-1.4,2.8l3.8,12.1c0.2,0.6,0.6,1,1.1,1.3c0.5,0.3,1.1,0.3,1.7,0.2c0,0,0,0,0,0
					c0.6-0.2,1-0.6,1.3-1.1c0.3-0.5,0.3-1.1,0.2-1.7l-3.8-12.1C65.2,106.6,64.3,106,63.4,106z"/>
			</g>
			<g>
				<path class="st3" d="M75.7,123.1L75.7,123.1c-1.8,0.6-3.8,0-4.4-1.8l-3.8-12.1c-0.6-1.8,0.4-3.8,2.3-4.3l0,0
					c1.8-0.6,3.8,0.4,4.3,2.3l3.9,11.6C78.5,120.6,77.5,122.5,75.7,123.1z"/>
				<path class="st4" d="M74.3,124.6c-0.6,0-1.2-0.1-1.7-0.3c-1.2-0.4-2.1-1.4-2.5-2.6l-3.8-12.1c-0.4-1.2-0.3-2.5,0.3-3.6
					c0.6-1.1,1.6-1.9,2.8-2.3c2.5-0.8,5.1,0.6,5.9,3.1l3.9,11.6c0.4,1.2,0.3,2.5-0.3,3.6c-0.6,1.1-1.6,1.9-2.8,2.3
					C75.4,124.5,74.9,124.6,74.3,124.6z M70.7,106c-0.2,0-0.4,0-0.7,0.1c-0.6,0.2-1,0.6-1.3,1.1c-0.3,0.5-0.3,1.1-0.2,1.7l3.8,12.1
					c0.1,0.5,0.5,0.8,1,1c0.5,0.2,1.2,0.2,1.9,0c0.6-0.2,1-0.6,1.3-1.1c0.3-0.5,0.3-1.1,0.2-1.7l-3.9-11.6
					C72.6,106.6,71.7,106,70.7,106z"/>
			</g>
			<g>
				<path class="st3" d="M83,123.1L83,123.1c-1.8,0.6-3.8,0-4.4-1.8l-2.9-9.5c-0.6-1.8,0.4-3.8,2.3-4.3h0c1.8-0.6,3.8,0.4,4.3,2.3
					l3,9C85.8,120.6,84.8,122.5,83,123.1z"/>
				<path class="st4" d="M81.6,124.6c-0.6,0-1.2-0.1-1.7-0.3c-1.2-0.4-2.1-1.4-2.5-2.6l-2.9-9.5c-0.4-1.2-0.3-2.5,0.3-3.6
					c0.6-1.1,1.6-1.9,2.8-2.3c1.2-0.4,2.5-0.3,3.6,0.3c1.1,0.6,1.9,1.6,2.3,2.8l3,9c0.4,1.2,0.3,2.5-0.3,3.6
					c-0.6,1.1-1.6,1.9-2.8,2.3C82.8,124.5,82.2,124.6,81.6,124.6z M78.9,108.6c-0.2,0-0.4,0-0.7,0.1c-0.6,0.2-1,0.6-1.3,1.1
					c-0.3,0.5-0.3,1.1-0.2,1.7l2.9,9.5c0.1,0.5,0.5,0.8,1,1c0.5,0.2,1.2,0.2,1.9,0c1.2-0.4,1.8-1.6,1.4-2.8l-3-9
					c-0.2-0.6-0.6-1-1.1-1.3C79.6,108.7,79.3,108.6,78.9,108.6z"/>
			</g>
			<path class="st4" d="M38.7,87.3L5.5,87.6c-1.7,0-3.1,1.4-3.1,3.1l0.1,26.8c0,0.8,0.3,1.6,0.9,2.2c0.6,0.6,1.3,0.9,2.2,0.9
				c0,0,0,0,0,0l33.1-0.3L38.7,87.3z"/>
		</g>
	</g>
</g>
</svg>
