<?xml version="1.0" encoding="utf-8"?><svg id="anima_ico_2" image-rendering="optimizeQuality" baseProfile="basic" version="1.1" x="0px" y="0px" width="156" height="168" xmlns="http://www.w3.org/2000/svg" xmlns:xlink="http://www.w3.org/1999/xlink"><defs><g id="Symbol-5" overflow="visible"><path fill="#9DB9D9" stroke="none" d="M42.7 42.7Q50 35.35 50 25 50 14.65 42.7 7.35 35.35 0 25 0 14.65 0 7.35 7.35 0 14.65 0 25 0 35.35 7.35 42.7 14.65 50 25 50 35.35 50 42.7 42.7Z"/><path fill="#ECF3FC" stroke="none" d="M40.05 17.45Q40.05 16.8 39.6 16.35L37.45 14.25Q37.05 13.8 36.4 13.8 35.8 13.8 35.35 14.25L21.2 28.35 14.65 21.75Q14.2 21.3 13.6 21.3 12.95 21.3 12.5 21.75L10.4 23.9Q9.95 24.3 9.95 24.95 9.95 25.6 10.4 26L20.15 35.8Q20.6 36.25 21.25 36.25 21.85 36.25 22.3 35.8L39.6 18.5Q40.05 18.05 40.05 17.45Z"/></g><g id="Symbol-6" overflow="visible"><path fill="#9DB9D9" stroke="none" d="M7.4 .15Q7.15 -.1 6.85 .15L3.05 3.95 1.3 2.2Q1.05 1.85 .75 2.2L.15 2.75Q-.1 3.05 .15 3.3L2.75 5.95Q3.1 6.2 3.35 5.95L7.95 1.3Q8.3 1.05 7.95 .75L7.4 .15Z"/></g></defs><g id="Scene-1" overflow="visible"><g id="Symbol-7" transform="translate(11.55 33.45)" opacity="0"><animate attributeName="opacity" repeatCount="indefinite" dur="8.333s" keyTimes="0;.056;.88;.996;1" values="0;1;1;0;0"/><path fill="#9DB9D9" stroke="none" d="M106.75 2.65Q104.1 0 100.4 0L9 0Q5.3 0 2.65 2.65 0 5.3 0 9L0 100.4Q0 104.1 2.65 106.75 5.3 109.4 9 109.4L100.4 109.4Q104.1 109.4 106.75 106.75 109.4 104.1 109.4 100.4L109.4 9Q109.4 5.3 106.75 2.65M100.4 2Q103.3 2 105.35 4.05 107.4 6.1 107.4 9L107.4 24.6 2 24.6 2 9Q2 6.1 4.05 4.05 6.1 2 9 2L100.4 2M9 107.4Q6.1 107.4 4.05 105.35 2 103.3 2 100.4L2 26.6 107.4 26.6 107.4 100.4Q107.4 103.3 105.35 105.35 103.3 107.4 100.4 107.4L9 107.4Z"/><path fill="#9DB9D9" stroke="none" d="M41.3 16.7Q42.3 15.7 42.3 14.25 42.3 12.8 41.3 11.75 40.25 10.75 38.8 10.75 37.35 10.75 36.3 11.75 35.3 12.8 35.3 14.25 35.3 15.7 36.3 16.7 37.35 17.75 38.8 17.75 40.25 17.75 41.3 16.7Z"/><path fill="#9DB9D9" stroke="none" d="M27.95 16.7Q28.95 15.7 28.95 14.25 28.95 12.8 27.95 11.75 26.9 10.75 25.45 10.75 24 10.75 23 11.75 21.95 12.8 21.95 14.25 21.95 15.7 23 16.7 24.05 17.75 25.45 17.75 26.9 17.75 27.95 16.7Z"/><path fill="#9DB9D9" stroke="none" d="M14.65 16.7Q15.7 15.7 15.7 14.25 15.7 12.8 14.65 11.75 13.65 10.75 12.2 10.75 10.75 10.75 9.7 11.75 8.7 12.8 8.7 14.25 8.7 15.7 9.7 16.7 10.75 17.75 12.2 17.75 13.65 17.75 14.65 16.7Z"/><path fill="#9DB9D9" stroke="none" d="M14.8 41.9Q14.8 44.2 16.45 45.8 18.05 47.4 20.3 47.4 22.6 47.4 24.2 45.8 25.8 44.2 25.8 41.9 25.8 39.6 24.2 38 22.6 36.4 20.3 36.4 18.05 36.4 16.45 38 14.8 39.6 14.8 41.9M17.2 48.8L16.45 48.8Q14.1 48.8 12.4 50.5 10.7 52.15 10.7 54.55L10.7 56.35Q10.7 57.2 11.3 57.8 11.9 58.4 12.75 58.4L27.9 58.4Q28.75 58.4 29.35 57.8 29.95 57.2 29.95 56.35L29.95 54.55Q29.95 52.15 28.25 50.5 26.55 48.8 24.15 48.8L23.45 48.8Q21.9 49.45 20.3 49.45 18.75 49.45 17.2 48.8Z"/><path fill="#9DB9D9" stroke="none" d="M71.8 46.05L71.8 40.05 36.35 40.05 36.35 46.05 71.8 46.05Z"/><path fill="#9DB9D9" stroke="none" d="M36.4 52.4L36.4 58.4 54.15 58.4 54.15 52.4 36.4 52.4Z"/><path fill="#9DB9D9" stroke="none" d="M97.95 79.4L97.95 73.4 36.35 73.4 36.35 79.4 97.95 79.4Z"/><path fill="#9DB9D9" stroke="none" d="M97.95 96.4L97.95 90.4 36.35 90.4 36.35 96.4 97.95 96.4Z"/></g><g display="none"><use xlink:href="#Symbol-6" transform="matrix(.393 0 0 .393 30.55 125.8)" opacity="0"><animateTransform attributeName="transform" additive="replace" type="translate" repeatCount="indefinite" dur="8.333s" keyTimes="0;.212;.244;.276;.88;.956;1" values="32.1,126.95;32.1,126.95;32.336,127.238;32.1,126.95;32.1,126.95;32.152,127.009;32.152,127.009"/><animateTransform attributeName="transform" additive="sum" type="scale" repeatCount="indefinite" dur="8.333s" keyTimes="0;.212;.244;.276;.88;.956;1" values="1,1;1,1;2.948,2.948;1,1;1,1;.393,.393;.393,.393"/><animateTransform attributeName="transform" additive="sum" type="translate" repeatCount="indefinite" dur="8.333s" keyTimes="0;.212;.244;.276;.88;.956;1" values="-4.05,-3;-4.05,-3;-4.15,-3.15;-4.05,-3;-4.05,-3;-4.2,-3.2;-4.2,-3.2"/><animate attributeName="opacity" repeatCount="indefinite" dur="8.333s" keyTimes="0;.88;.956;1" values="1;1;0;0"/></use><animate attributeName="display" repeatCount="indefinite" dur="8.333s" keyTimes="0;.212;.96;1" values="none;inline;none;none"/></g><g display="none"><use xlink:href="#Symbol-6" transform="matrix(.444 0 0 .444 30.4 107.95)" opacity="0"><animateTransform attributeName="transform" additive="replace" type="translate" repeatCount="indefinite" dur="8.333s" keyTimes="0;.116;.148;.18;.88;.956;1" values="32.15,110.05;32.15,110.05;32.557,110.193;32.15,110.05;32.15,109.25;32.217,109.322;32.217,109.322"/><animateTransform attributeName="transform" additive="sum" type="scale" repeatCount="indefinite" dur="8.333s" keyTimes="0;.116;.148;.18;.88;.956;1" values="1,1;1,1;2.752,2.752;1,1;1,1;.444,.444;.444,.444"/><animateTransform attributeName="transform" additive="sum" type="translate" repeatCount="indefinite" dur="8.333s" keyTimes="0;.116;.148;.18;.88;.956;1" values="-4.05,-3;-4.05,-3;-4.2,-3.25;-4.05,-3;-4.05,-3;-4.2,-3.2;-4.2,-3.2"/><animate attributeName="opacity" repeatCount="indefinite" dur="8.333s" keyTimes="0;.88;.956;1" values="1;1;0;0"/></use><animate attributeName="display" repeatCount="indefinite" dur="8.333s" keyTimes="0;.116;.96;1" values="none;inline;none;none"/></g><g display="none"><use xlink:href="#Symbol-5" transform="matrix(.331 0 0 .331 111.55 39.45)" opacity="0"><animateTransform attributeName="transform" additive="replace" type="translate" repeatCount="indefinite" dur="8.333s" keyTimes="0;.336;.368;.4;.88;.924;1" values="119.848,47.748;119.848,47.748;120.074,47.924;119.921,47.821;119.848,47.748;119.852,47.802;119.852,47.802"/><animateTransform attributeName="transform" additive="sum" type="scale" repeatCount="indefinite" dur="8.333s" keyTimes="0;.336;.368;.4;.88;.924;1" values=".739,.739;.739,.739;1.169,1.169;.739,.739;.739,.739;.331,.331;.331,.331"/><animateTransform attributeName="transform" additive="sum" type="translate" repeatCount="indefinite" dur="8.333s" keyTimes="0;.336;.368;.4;.88;.924;1" values="-25.15,-25.15;-25.15,-25.15;-25.35,-25.35;-25.25,-25.25;-25.15,-25.15;-25.25,-25.4;-25.25,-25.4"/><animate attributeName="opacity" repeatCount="indefinite" dur="8.333s" keyTimes="0;.336;.368;.88;.924;1" values="0;0;1;1;0;0"/></use><animate attributeName="display" repeatCount="indefinite" dur="8.333s" keyTimes="0;.336;.928;1" values="none;inline;none;none"/></g><g display="none"><use xlink:href="#Symbol-5" transform="matrix(1.414 0 0 1.414 84.4 12.3)" opacity="0"><animateTransform attributeName="transform" additive="replace" type="translate" repeatCount="indefinite" dur="8.333s" keyTimes="0;.44;.5;.59999;.6;.664;.76799;.768;.828;1" values="119.921,47.821;119.921,47.821;120.196,48.096;120.196,48.096;119.921,47.821;120.196,48.096;120.196,48.096;119.921,47.821;120.196,48.096;120.196,48.096"/><animateTransform attributeName="transform" additive="sum" type="scale" repeatCount="indefinite" dur="8.333s" keyTimes="0;.44;.5;.59999;.6;.664;.76799;.768;.828;1" values=".739,.739;.739,.739;1.414,1.414;1.414,1.414;.739,.739;1.414,1.414;1.414,1.414;.739,.739;1.414,1.414;1.414,1.414"/><animateTransform attributeName="transform" additive="sum" type="translate" repeatCount="indefinite" dur="8.333s" keyTimes="0;.44;.5;.59999;.6;.664;.76799;.768;.828;1" values="-25.25,-25.25;-25.25,-25.25;-25.35,-25.35;-25.35,-25.35;-25.25,-25.25;-25.35,-25.35;-25.35,-25.35;-25.25,-25.25;-25.35,-25.35;-25.35,-25.35"/><animate attributeName="opacity" repeatCount="indefinite" dur="8.333s" keyTimes="0;.44;.5;.59999;.6;.664;.76799;.768;.828;1" values="1;1;0;0;1;0;0;1;0;0"/></use><animate attributeName="display" repeatCount="indefinite" dur="8.333s" keyTimes="0;.44;.832;1" values="none;inline;none;none"/></g></g></svg>