<?xml version="1.0" encoding="utf-8"?>
<!-- Generator: Adobe Illustrator 23.0.3, SVG Export Plug-In . SVG Version: 6.00 Build 0)  -->
<svg version="1.1" id="Layer_1" xmlns="http://www.w3.org/2000/svg" xmlns:xlink="http://www.w3.org/1999/xlink" x="0px" y="0px"
	 viewBox="0 0 47.9 62.9" style="enable-background:new 0 0 47.9 62.9;" xml:space="preserve">
<style type="text/css">
	.st0{fill:#006EDC;}
	.st1{fill:#99C5F1;}
	.st2{fill:#66A8EA;}
	.st3{fill:#EBF3FC;}
	.st4{display:none;}
	.st5{display:inline;}
	.st6{fill:#6ADBB8;}
	.st7{fill:#00C08B;}
	.st8{fill:#AB5BD3;}
	.st9{fill:#9632C8;}
	.st10{fill:#FFB4B4;}
</style>
<g>
	<g>
		<path class="st0" d="M47,17.1v40.7c0,2.2-1.8,4-4,4H5c-2.2,0-4-1.8-4-4V5c0-2.2,1.8-4,4-4h25.8L47,17.1z"/>
		<path class="st1" d="M47,17.1V5.1c0-2.2-1.8-4-4-4H30.8L47,17.1z"/>
		<path class="st2" d="M47,17.1H34.8c-2.2,0-4-1.8-4-4V1L47,17.1z"/>
	</g>
	<path class="st3" d="M24,23.9c-6.4,0-11.5,5.1-11.5,11.5c0,6.4,5.1,11.5,11.5,11.5c6.4,0,11.5-5.1,11.5-11.5
		C35.5,29,30.4,23.9,24,23.9z M29.3,36.3l-6.8,3.9c-0.7,0.4-1.6-0.1-1.6-0.9v-7.8c0-0.8,0.9-1.4,1.6-0.9l6.8,3.9
		C30,34.8,30,35.9,29.3,36.3z"/>
</g>
<g class="st4">
	<g class="st5">
		<g>
			<g>
				<rect x="-52.9" y="-30.7" class="st3" width="147" height="122.5"/>
				<path class="st1" d="M92.6-29.2V90.3h-144V-29.2H92.6 M95.6-32.2h-150v150h150V-32.2L95.6-32.2z"/>
			</g>
		</g>
		<g>
			<circle class="st0" cx="-14.6" cy="105.5" r="5"/>
			<path class="st0" d="M-22.3,105.5c0-0.5,0-1,0.2-1.5h-19.8v3h19.8C-22.2,106.5-22.3,106-22.3,105.5z"/>
			<path class="st0" d="M-7.1,104c0.1,0.5,0.2,1,0.2,1.5s0,1-0.2,1.5h90.1v-3H-7.1z"/>
		</g>
		<g>
			<g>
				<rect x="-42" y="-19.3" class="st1" width="28.9" height="3"/>
			</g>
			<g>
				<rect x="16.7" y="-19.3" class="st1" width="66.4" height="3"/>
			</g>
			<g>
				<rect x="-4.1" y="-19.3" class="st1" width="12.4" height="3"/>
			</g>
		</g>
		<g>
			<g>
				<rect x="54.2" y="77.4" class="st1" width="28.9" height="3"/>
			</g>
			<g>
				<rect x="-42" y="77.4" class="st1" width="66.4" height="3"/>
			</g>
			<g>
				<rect x="32.8" y="77.4" class="st1" width="12.4" height="3"/>
			</g>
		</g>
		<g>
			<g>
				<circle class="st6" cx="20.6" cy="30.5" r="32.5"/>
				<path class="st7" d="M20.6,64.4c-18.7,0-33.9-15.2-33.9-33.9S1.9-3.4,20.6-3.4s33.9,15.2,33.9,33.9S39.3,64.4,20.6,64.4z
					 M20.6-0.6c-17.2,0-31.1,14-31.1,31.1s14,31.1,31.1,31.1s31.1-13.9,31.1-31.1S37.7-0.6,20.6-0.6z"/>
			</g>
			<polygon class="st3" points="11.4,13.6 40.6,30.5 11.4,47.4 			"/>
		</g>
	</g>
</g>
<g class="st4">
	<g class="st5">
		<g>
			<g>
				<rect x="-52.9" y="-30.7" class="st3" width="147" height="122.5"/>
				<path class="st1" d="M92.6-29.2V90.3h-144V-29.2H92.6 M95.6-32.2h-150v150h150V-32.2L95.6-32.2z"/>
			</g>
		</g>
		<g>
			<g>
				<rect x="-42" y="-19.3" class="st1" width="28.9" height="3"/>
			</g>
			<g>
				<rect x="16.7" y="-19.3" class="st1" width="66.4" height="3"/>
			</g>
			<g>
				<rect x="-4.1" y="-19.3" class="st1" width="12.4" height="3"/>
			</g>
		</g>
		<g>
			<g>
				<rect x="53.2" y="77.4" class="st1" width="29.9" height="3"/>
			</g>
		</g>
		<g>
			<path class="st1" d="M29.5,37h-45.7c-7,0-12.7,5.7-12.7,12.7V95h26.5l-0.2,0l9.3,9.3l0-9.3h22.9c7,0,12.7-5.7,12.7-12.7V49.7
				C42.2,42.7,36.5,37,29.5,37z"/>
			<g>
				<path class="st0" d="M8.1,108.1L-3.3,96.6h-5.6v-3h6.8l7.2,7.2v-7.2h24.5c6.2,0,11.2-5.1,11.2-11.3V49.6
					c0-6.2-5.1-11.3-11.2-11.3h-45.9c-6.2,0-11.3,5.1-11.3,11.3v40.7h-3V49.6c0-7.9,6.4-14.3,14.3-14.3h45.9
					c7.9,0,14.2,6.4,14.2,14.3v32.7c0,7.9-6.4,14.3-14.2,14.3H8.1L8.1,108.1z"/>
			</g>
			<g>
				<rect x="-21.6" y="93.6" class="st0" width="6.1" height="3.1"/>
			</g>
			<g>
				<rect x="-20.4" y="51" class="st3" width="30.9" height="5.3"/>
				<rect x="-20.4" y="63.2" class="st3" width="43.7" height="5.3"/>
				<rect x="-20.4" y="75.5" class="st3" width="43.7" height="5.3"/>
				<rect x="29.5" y="75.5" class="st3" width="5.3" height="5.3"/>
			</g>
			<g>
				<path class="st8" d="M73.4,27.7c0-16.1-14-29.1-31.3-29.1c-17.3,0-31.3,13-31.3,29.1s14,29.1,31.3,29.1c4,0,7.8-0.7,11.3-1.9
					l8.3,8.3V50.4C68.9,45.1,73.4,36.9,73.4,27.7z"/>
				<path class="st9" d="M63.2,66.8L53,56.6c-3.5,1.1-7.1,1.7-10.9,1.7c-18.1,0-32.8-13.8-32.8-30.6S24.1-2.9,42.1-2.9
					s32.8,13.7,32.8,30.6c0,9.1-4.3,17.6-11.7,23.5V66.8z M53.8,53.2l6.4,6.4v-9.9l0.6-0.4c7.1-5.3,11.1-13.1,11.1-21.5
					c0-15.2-13.4-27.6-29.8-27.6S12.4,12.5,12.4,27.7c0,15.2,13.4,27.6,29.8,27.6c3.7,0,7.3-0.6,10.8-1.9L53.8,53.2z"/>
			</g>
			<g>
				<g>
					<path class="st10" d="M51.2,35.5c-1,0-1.9-0.8-1.9-1.9v-4.5c0-1.7,1.2-3.1,2.8-3.5c2.1-0.5,3.4-2.3,3.3-4.4
						c-0.1-2.1-1.8-3.8-3.9-3.9c-1.2-0.1-2.3,0.3-3.2,1.1c-0.9,0.8-1.3,1.9-1.3,3.1c0,1-0.8,1.9-1.9,1.9s-1.9-0.8-1.9-1.9
						c0-2.2,0.9-4.3,2.5-5.8c1.6-1.5,3.8-2.3,6-2.1c4,0.3,7.1,3.5,7.4,7.4c0.3,3.9-2.3,7.4-6.1,8.3v4.4
						C53.1,34.7,52.3,35.5,51.2,35.5z"/>
					<path class="st10" d="M51.2,43c-0.5,0-1-0.2-1.3-0.6c-0.3-0.3-0.6-0.8-0.6-1.3s0.2-1,0.6-1.3c0.3-0.3,0.8-0.6,1.3-0.6
						s1,0.2,1.3,0.6c0.3,0.3,0.6,0.8,0.6,1.3s-0.2,1-0.6,1.3C52.2,42.8,51.7,43,51.2,43z"/>
				</g>
				<g>
					<path class="st10" d="M33,20.9c1,0,1.9,0.8,1.9,1.9v4.5c0,1.7-1.2,3.1-2.8,3.5c-2.1,0.5-3.4,2.3-3.3,4.4
						c0.1,2.1,1.8,3.8,3.9,3.9c1.2,0.1,2.3-0.3,3.2-1.1c0.9-0.8,1.3-1.9,1.3-3.1c0-1,0.8-1.9,1.9-1.9S41,33.9,41,35
						c0,2.2-0.9,4.3-2.5,5.8c-1.6,1.5-3.8,2.3-6,2.1c-4-0.3-7.1-3.5-7.4-7.4c-0.3-3.9,2.3-7.4,6.1-8.3v-4.4
						C31.1,21.8,31.9,20.9,33,20.9z"/>
					<path class="st10" d="M33,13.4c0.5,0,1,0.2,1.3,0.5c0.3,0.3,0.6,0.8,0.6,1.3s-0.2,1-0.6,1.3C34,17,33.5,17.2,33,17.2
						s-1-0.2-1.3-0.5c-0.3-0.3-0.6-0.8-0.6-1.3s0.2-1,0.6-1.3C32,13.6,32.5,13.4,33,13.4z"/>
				</g>
			</g>
		</g>
	</g>
</g>
<g id="Layer_4" class="st4">
	<g class="st5">
		<g>
			<polyline class="st1" points="95.6,91.3 95.6,117.8 -54.4,117.8 -54.4,91.3 			"/>
			<g>
				<rect x="-52.9" y="-30.7" class="st3" width="147" height="122.5"/>
				<path class="st1" d="M92.6-29.2V90.3h-144V-29.2H92.6 M95.6-32.2h-150v150h150V-32.2L95.6-32.2z"/>
			</g>
		</g>
		<g>
			<g>
				<rect x="-42" y="-19.2" class="st1" width="28.9" height="3"/>
			</g>
			<g>
				<rect x="16.8" y="-19.2" class="st1" width="66.4" height="3"/>
			</g>
			<g>
				<rect x="-4" y="-19.2" class="st1" width="12.4" height="3"/>
			</g>
		</g>
		<g>
			<g>
				<rect x="67.7" y="77.5" class="st1" width="15.4" height="3"/>
			</g>
			<g>
				<rect x="-42" y="77.5" class="st1" width="35.2" height="3"/>
			</g>
			<g>
				<rect x="46" y="77.5" class="st1" width="13.4" height="3"/>
			</g>
		</g>
		<g>
			<g>
				<g>
					<path class="st1" d="M-13.6,21.5l-17-14.6c-0.5-0.4-0.2-1.1,0.4-1.2L-8,3.1c0.1,0,0.1,0.1,0.1,0.1l-5.5,18.2
						C-13.5,21.5-13.5,21.5-13.6,21.5z"/>
					<path class="st0" d="M-13.5,23c-0.4,0-0.8-0.1-1-0.4l-17-14.6c-0.7-0.6-0.9-1.5-0.7-2.3s1-1.4,1.8-1.5l23.1-2.7l0.6,0.7
						c0.3,0.4,0.5,1,0.3,1.5l-5.8,19l-0.8,0.3C-13.2,23-13.4,23-13.5,23z M-28.2,7l14,12l4.3-14.1L-28.2,7z"/>
				</g>
				<g>
					<path class="st1" d="M61.6,24.3l3.3,1c5.1,1.6,8,7,6.4,12.1l0,0c-1.6,5.1-7,8-12.1,6.4l-72.6-22.2c0,0-0.1-0.1-0.1-0.1
						l5.6-18.3c0,0,0.1-0.1,0.1-0.1l31.3,9.5L61.6,24.3z"/>
					<path class="st0" d="M62.1,45.7c-1.1,0-2.2-0.2-3.3-0.5l-73.2-22.3l-0.3-0.6c-0.2-0.4-0.2-0.8-0.1-1.2l5.8-18.9l0.6-0.3
						c0.4-0.2,0.8-0.3,1.2-0.1l72.6,22.2c5.9,1.8,9.2,8.1,7.4,13.9C71.3,42.6,66.8,45.7,62.1,45.7z M-11.6,20.6l71.3,21.8
						c4.3,1.3,8.9-1.1,10.2-5.4c1.3-4.3-1.1-8.9-5.4-10.2L-6.8,5L-11.6,20.6z M-6.4,3.6L-6.4,3.6C-6.4,3.6-6.4,3.6-6.4,3.6z"/>
				</g>
				<g>
					<path class="st1" d="M75.3,38.6L75.3,38.6c1.6-5.1-1.3-10.5-6.4-12.1l-8.6-2.6l-5.6,18.5l8.6,2.6
						C68.4,46.6,73.8,43.7,75.3,38.6z"/>
					<path class="st0" d="M66.1,46.9c-1.1,0-2.2-0.2-3.3-0.5l-10-3.1L59.3,22l10,3.1c2.8,0.9,5.2,2.8,6.6,5.4
						c1.4,2.6,1.7,5.6,0.8,8.5c-0.9,2.8-2.8,5.2-5.4,6.6C69.7,46.5,67.9,46.9,66.1,46.9z M56.5,41.4l7.2,2.2
						c2.1,0.6,4.3,0.4,6.2-0.6c1.9-1,3.3-2.7,4-4.8l0,0c0.6-2.1,0.4-4.3-0.6-6.2c-1-1.9-2.7-3.3-4.8-4l-7.2-2.2L56.5,41.4z"/>
				</g>
				<g>
					<g>
						<path class="st3" d="M8,59.6L7.8,48.8c0-0.5-0.3-0.9-0.7-1.2c-0.3-0.2-7.1-5-5.9-18.4L7.2,31c0.1,0,0.3,0.1,0.4,0.1
							c0.3,0,0.5-0.1,0.7-0.2c0.4-0.2,0.6-0.5,0.7-0.9l1-3.8c0,0,0-0.1,0-0.1c0.1-0.5,4.2-16.9,6.4-25.5c0.4-1.3,1.6-2.3,3.1-2.3
							c0.3,0,0.6,0,0.8,0.1c0.8,0.2,1.5,0.8,1.9,1.5c0.4,0.7,0.5,1.6,0.3,2.4L22,4.8c-0.2,0.7,0.1,1.4,0.8,1.8
							c0.2,0.1,0.4,0.2,0.7,0.2c0.5,0,0.9-0.2,1.2-0.6c0.6-0.8,1.6-1.3,2.6-1.3c0.3,0,0.6,0,0.8,0.1c0.8,0.2,1.5,0.8,1.9,1.5
							c0.4,0.7,0.5,1.6,0.3,2.4l-0.4,1.6c-0.2,0.7,0.1,1.4,0.8,1.8c0.2,0.1,0.4,0.2,0.7,0.2c0.5,0,0.9-0.2,1.2-0.6
							c0.6-0.8,1.6-1.3,2.6-1.3c0.3,0,0.6,0,0.8,0.1c1.7,0.5,2.7,2.2,2.2,3.9l-0.3,0.9c-0.2,0.7,0.1,1.4,0.8,1.7
							c0.2,0.1,0.4,0.2,0.7,0.2c0.4,0,0.9-0.2,1.2-0.6c0.6-0.8,1.6-1.2,2.5-1.2c0.3,0,0.6,0,0.8,0.1c0.8,0.2,1.5,0.8,1.9,1.5
							c0.4,0.7,0.5,1.6,0.3,2.4l-6.1,22.1c0,0.1-0.1,0.2-0.1,0.3c0,0.1-0.1,0.2-0.1,0.3c0,0.2-1.1,5-5.8,7.3
							c-0.5,0.3-0.9,0.8-0.9,1.3v8.7C33.1,59.6,8,59.6,8,59.6z"/>
						<path class="st1" d="M19.6-0.3L19.6-0.3c0.2,0,0.3,0,0.4,0.1C20.9,0,21.5,1,21.2,1.9l-0.7,2.5c-0.4,1.4,0.3,2.8,1.6,3.5
							c0.4,0.2,0.9,0.3,1.3,0.3c0.9,0,1.8-0.4,2.4-1.2c0.3-0.4,0.8-0.7,1.4-0.7c0.2,0,0.3,0,0.4,0.1c0.9,0.2,1.4,1.2,1.2,2.1
							l-0.4,1.6c-0.4,1.4,0.3,2.9,1.6,3.5c0.4,0.2,0.9,0.3,1.3,0.3c0.9,0,1.8-0.4,2.4-1.2c0.3-0.4,0.8-0.7,1.4-0.7
							c0.2,0,0.3,0,0.4,0.1c0.4,0.1,0.8,0.4,1,0.8c0.2,0.4,0.3,0.8,0.2,1.3L36.4,15c-0.4,1.4,0.3,2.8,1.5,3.5
							c0.4,0.2,0.9,0.3,1.3,0.3c0.9,0,1.8-0.4,2.4-1.2c0.3-0.4,0.8-0.7,1.3-0.7c0.2,0,0.3,0,0.4,0.1c0.9,0.2,1.4,1.2,1.2,2.1
							l-6.2,22.1c0,0.1,0,0.1-0.1,0.2c-0.1,0.2-0.1,0.3-0.2,0.5c0,0.2-0.9,4.3-5,6.2c-1.1,0.5-1.7,1.6-1.7,2.7v7.2h-22l-0.2-9.3
							c0-1-0.5-1.9-1.3-2.4c-0.3-0.2-5.8-4.2-5.4-15.2l4.3,1.3c0.3,0.1,0.6,0.1,0.9,0.1c0.5,0,1-0.1,1.5-0.4
							c0.7-0.4,1.2-1.1,1.4-1.9l1-3.8c0,0,0-0.1,0-0.1C11.8,25.5,16.3,7.8,18,1C18.2,0.2,18.9-0.3,19.6-0.3 M19.6-3.3
							c-2.1,0-3.9,1.4-4.5,3.4c0,0-6.4,25.4-6.4,25.6l-1,3.8l-7.8-2.4c-2.2,16,6.4,21.6,6.4,21.6l0.3,12.3h28V50.8
							c5.6-2.7,6.6-8.4,6.6-8.4l0,0c0.1-0.2,0.1-0.3,0.2-0.5l6.2-22.1c0.7-2.5-0.8-5.1-3.3-5.8l0,0c-0.4-0.1-0.8-0.2-1.3-0.2
							c-1.4,0-2.8,0.7-3.7,1.8l0.3-0.9c0.7-2.5-0.8-5.1-3.3-5.8C35.9,9,35.4,8.9,35,8.9c-1.5,0-2.9,0.7-3.8,2l0.4-1.6
							c0.7-2.5-0.8-5.1-3.3-5.8c-0.4-0.1-0.8-0.2-1.3-0.2c-1.5,0-2.9,0.7-3.8,1.9l0.7-2.5c0.7-2.5-0.8-5.1-3.3-5.8l0,0
							C20.4-3.2,20-3.3,19.6-3.3L19.6-3.3z"/>
					</g>
					<rect x="3.5" y="59.8" class="st1" width="33.6" height="46"/>
					<g>
						<polygon class="st0" points="38.5,95.5 35.5,95.5 35.5,61.3 5,61.3 5,90.4 2,90.4 2,58.3 38.5,58.3 						"/>
					</g>
					<g>
						<rect x="2" y="95.7" class="st0" width="3" height="10.1"/>
					</g>
				</g>
			</g>
			<g>
				<rect x="15.6" y="15.9" transform="matrix(0.2773 -0.9608 0.9608 0.2773 -2.3109 31.701)" class="st1" width="8.6" height="3"/>
			</g>
			<g>
				
					<rect x="23.1" y="20.9" transform="matrix(0.2564 -0.9666 0.9666 0.2564 -1.3119 43.1182)" class="st1" width="8.6" height="3"/>
			</g>
			<g>
				<rect x="31.3" y="25.6" transform="matrix(0.2595 -0.9657 0.9657 0.2595 0.2292 54.4293)" class="st1" width="8.6" height="3"/>
			</g>
		</g>
	</g>
</g>
<g id="Layer_5" class="st4">
	<g class="st5">
		<g>
			<g>
				<rect x="-52.9" y="-30.7" class="st3" width="147" height="122.5"/>
				<path class="st1" d="M92.6-29.2V90.3h-144V-29.2H92.6 M95.6-32.2h-150v150h150V-32.2L95.6-32.2z"/>
			</g>
		</g>
		<g>
			<g>
				<rect x="-42" y="-19.2" class="st1" width="28.9" height="3"/>
			</g>
			<g>
				<rect x="16.8" y="-19.2" class="st1" width="66.4" height="3"/>
			</g>
			<g>
				<rect x="-4" y="-19.2" class="st1" width="12.4" height="3"/>
			</g>
		</g>
		<g>
			<g>
				<rect x="53.2" y="77.5" class="st1" width="29.9" height="3"/>
			</g>
		</g>
		<g>
			<path class="st3" d="M29.5,37.1h-45.7c-7,0-12.7,5.7-12.7,12.7v45.3h26.5l-0.2,0l9.3,9.3l0-9.3h22.9c7,0,12.7-5.7,12.7-12.7V49.8
				C42.2,42.8,36.5,37.1,29.5,37.1z"/>
			<g>
				<path class="st0" d="M8.1,108.2L-3.3,96.7h-5.6v-3h6.8l7.2,7.2v-7.2h24.5c6.2,0,11.2-5.1,11.2-11.3V49.7
					c0-6.2-5.1-11.3-11.2-11.3h-45.9c-6.2,0-11.3,5.1-11.3,11.3v40.7h-3V49.7c0-7.9,6.4-14.3,14.3-14.3h45.9
					c7.9,0,14.2,6.4,14.2,14.3v32.7c0,7.9-6.4,14.3-14.2,14.3H8.2L8.1,108.2z"/>
			</g>
			<g>
				<rect x="-21.6" y="93.6" class="st0" width="6.1" height="3.1"/>
			</g>
			<g>
				<rect x="-20.4" y="51" class="st1" width="30.9" height="5.3"/>
				<rect x="-20.4" y="63.3" class="st1" width="43.7" height="5.3"/>
				<rect x="-20.4" y="75.6" class="st1" width="43.7" height="5.3"/>
				<rect x="29.5" y="75.6" class="st1" width="5.3" height="5.3"/>
			</g>
			<g>
				<path class="st1" d="M73.4,27.8c0-16.1-14-29.1-31.3-29.1c-17.3,0-31.3,13-31.3,29.1s14,29.1,31.3,29.1c4,0,7.8-0.7,11.3-1.9
					l8.3,8.3V50.5C68.9,45.2,73.4,37,73.4,27.8z"/>
				<path class="st0" d="M63.2,66.9L53,56.7c-3.5,1.1-7.1,1.7-10.9,1.7c-18.1,0-32.8-13.8-32.8-30.6S24.1-2.9,42.2-2.9
					s32.8,13.7,32.8,30.6c0,9.1-4.3,17.6-11.7,23.5V66.9z M53.8,53.2l6.4,6.4v-9.9l0.6-0.4c7.1-5.3,11.1-13.1,11.1-21.5
					c0-15.2-13.4-27.6-29.8-27.6S12.4,12.5,12.4,27.8s13.4,27.6,29.8,27.6c3.7,0,7.3-0.6,10.8-1.9L53.8,53.2z"/>
			</g>
			<g>
				<g>
					<path class="st0" d="M51.3,35.6c-1,0-1.9-0.8-1.9-1.9v-4.5c0-1.7,1.2-3.1,2.8-3.5c2.1-0.5,3.4-2.3,3.3-4.4
						c-0.1-2.1-1.8-3.8-3.9-3.9c-1.2-0.1-2.3,0.3-3.2,1.1c-0.9,0.8-1.3,1.9-1.3,3.1c0,1-0.8,1.9-1.9,1.9s-1.9-0.8-1.9-1.9
						c0-2.2,0.9-4.3,2.5-5.8c1.6-1.5,3.8-2.3,6-2.1c4,0.3,7.1,3.5,7.4,7.4c0.3,3.9-2.3,7.4-6.1,8.3v4.4
						C53.1,34.7,52.3,35.6,51.3,35.6z"/>
					<path class="st0" d="M51.3,43c-0.5,0-1-0.2-1.3-0.6c-0.3-0.3-0.6-0.8-0.6-1.3s0.2-1,0.6-1.3c0.3-0.3,0.8-0.6,1.3-0.6
						s1,0.2,1.3,0.6c0.3,0.3,0.6,0.8,0.6,1.3s-0.2,1-0.6,1.3C52.2,42.8,51.8,43,51.3,43z"/>
				</g>
				<g>
					<path class="st0" d="M33,21c1,0,1.9,0.8,1.9,1.9v4.5c0,1.7-1.2,3.1-2.8,3.5c-2.1,0.5-3.4,2.3-3.3,4.4c0.1,2.1,1.8,3.8,3.9,3.9
						c1.2,0.1,2.3-0.3,3.2-1.1c0.9-0.8,1.3-1.9,1.3-3.1c0-1,0.8-1.9,1.9-1.9S41,34,41,35c0,2.2-0.9,4.3-2.5,5.8
						c-1.6,1.5-3.8,2.3-6,2.1c-4-0.3-7.1-3.5-7.4-7.4c-0.3-3.9,2.3-7.4,6.1-8.3v-4.4C31.1,21.8,32,21,33,21z"/>
					<path class="st0" d="M33,13.5c0.5,0,1,0.2,1.3,0.5c0.3,0.3,0.6,0.8,0.6,1.3s-0.2,1-0.6,1.3c-0.3,0.3-0.8,0.5-1.3,0.5
						s-1-0.2-1.3-0.5c-0.3-0.3-0.6-0.8-0.6-1.3s0.2-1,0.6-1.3C32,13.7,32.5,13.5,33,13.5z"/>
				</g>
			</g>
		</g>
	</g>
</g>
<g id="Layer_6" class="st4">
	<g class="st5">
		<g>
			<g>
				<rect x="-52.9" y="-30.7" class="st3" width="147" height="122.5"/>
				<path class="st1" d="M92.6-29.2V90.3h-144V-29.2H92.6 M95.6-32.2h-150v150h150V-32.2L95.6-32.2z"/>
			</g>
		</g>
		<g>
			<circle class="st0" cx="-14.6" cy="105.6" r="5"/>
			<path class="st0" d="M-22.2,105.6c0-0.5,0-1,0.2-1.5h-19.8v3h19.8C-22.2,106.6-22.2,106.1-22.2,105.6z"/>
			<path class="st0" d="M-7,104.1c0.1,0.5,0.2,1,0.2,1.5s0,1-0.2,1.5h90.1v-3H-7z"/>
		</g>
		<g>
			<g>
				<rect x="-42" y="-19.2" class="st1" width="28.9" height="3"/>
			</g>
			<g>
				<rect x="16.8" y="-19.2" class="st1" width="66.4" height="3"/>
			</g>
			<g>
				<rect x="-4" y="-19.2" class="st1" width="12.4" height="3"/>
			</g>
		</g>
		<g>
			<g>
				<rect x="54.2" y="77.5" class="st1" width="28.9" height="3"/>
			</g>
			<g>
				<rect x="-42" y="77.5" class="st1" width="66.4" height="3"/>
			</g>
			<g>
				<rect x="32.8" y="77.5" class="st1" width="12.4" height="3"/>
			</g>
		</g>
		<g>
			<g>
				<circle class="st1" cx="20.6" cy="30.6" r="32.5"/>
				<path class="st0" d="M20.6,64.5c-18.7,0-33.9-15.2-33.9-33.9S1.9-3.3,20.6-3.3s33.9,15.2,33.9,33.9S39.3,64.5,20.6,64.5z
					 M20.6-0.5c-17.2,0-31.1,14-31.1,31.1s14,31.1,31.1,31.1s31.1-13.9,31.1-31.1S37.7-0.5,20.6-0.5z"/>
			</g>
			<polygon class="st3" points="11.4,13.7 40.6,30.6 11.4,47.5 			"/>
		</g>
	</g>
</g>
</svg>
