<?xml version="1.0" encoding="utf-8"?>
<!-- Generator: Adobe Illustrator 23.0.2, SVG Export Plug-In . SVG Version: 6.00 Build 0)  -->
<svg version="1.1" xmlns="http://www.w3.org/2000/svg" xmlns:xlink="http://www.w3.org/1999/xlink" x="0px" y="0px"
	 viewBox="0 0 151 151" style="enable-background:new 0 0 151 151;" xml:space="preserve">
<style type="text/css">
	.st0{fill:#EBF3FC;}
	.st1{fill:#99C5F1;}
	.st2{fill:#006EDC;}
	.st3{fill:#6ADBB8;}
	.st4{fill:#00C08B;}
	.st5{display:none;}
	.st6{display:inline;}
	.st7{fill:#FFD796;}
	.st8{fill:#FFBC50;}
	.st9{fill:#FF9628;}
	.st10{fill:#FF7B8B;}
	.st11{fill:#FF5A6E;}
	.st12{fill:#AB5BD3;}
	.st13{fill:#9632C8;}
	.st14{fill:#FFB4B4;}
</style>
<g id="Layer_1">
	<g>
		<g>
			<g>
				<rect x="2.01" y="1.93" class="st0" width="147" height="122.5"/>
				<path class="st1" d="M147.51,3.43v119.5h-144V3.43H147.51 M150.51,0.43h-150v150h150V0.43L150.51,0.43z"/>
			</g>
		</g>
		<g>
			<circle class="st2" cx="40.36" cy="138.13" r="5"/>
			<path class="st2" d="M32.68,138.13c0-0.51,0.05-1.01,0.15-1.5H13.01v3h19.82C32.73,139.15,32.68,138.65,32.68,138.13z"/>
			<path class="st2" d="M47.88,136.63c0.1,0.49,0.15,0.99,0.15,1.5s-0.05,1.01-0.15,1.5h90.12v-3H47.88z"/>
		</g>
		<g>
			<g>
				<rect x="12.97" y="13.33" class="st1" width="28.89" height="3"/>
			</g>
			<g>
				<rect x="71.68" y="13.33" class="st1" width="66.37" height="3"/>
			</g>
			<g>
				<rect x="50.89" y="13.33" class="st1" width="12.43" height="3"/>
			</g>
		</g>
		<g>
			<g>
				<rect x="109.16" y="110.09" class="st1" width="28.89" height="3"/>
			</g>
			<g>
				<rect x="12.97" y="110.09" class="st1" width="66.37" height="3"/>
			</g>
			<g>
				<rect x="87.7" y="110.09" class="st1" width="12.43" height="3"/>
			</g>
		</g>
		<g>
			<g>
				<circle class="st3" cx="75.51" cy="63.18" r="32.5"/>
				<path class="st4" d="M75.51,97.07c-18.69,0-33.89-15.2-33.89-33.89s15.2-33.89,33.89-33.89s33.89,15.2,33.89,33.89
					S94.2,97.07,75.51,97.07z M75.51,32.07c-17.15,0-31.11,13.95-31.11,31.11s13.95,31.11,31.11,31.11s31.11-13.95,31.11-31.11
					S92.66,32.07,75.51,32.07z"/>
			</g>
			<polygon class="st0" points="66.3,46.3 95.53,63.18 66.3,80.06 			"/>
		</g>
	</g>
</g>
<g id="Layer_3" class="st5">
	<g class="st6">
		<g>
			<polyline class="st1" points="150.51,123.89 150.51,150.43 0.51,150.43 0.51,123.89 			"/>
			<g>
				<rect x="2.01" y="1.93" class="st0" width="147" height="122.5"/>
				<path class="st1" d="M147.51,3.43v119.5h-144V3.43H147.51 M150.51,0.43h-150v150h150V0.43L150.51,0.43z"/>
			</g>
		</g>
		<g>
			<g>
				<rect x="12.97" y="13.33" class="st1" width="28.89" height="3"/>
			</g>
			<g>
				<rect x="71.68" y="13.33" class="st1" width="66.37" height="3"/>
			</g>
			<g>
				<rect x="50.89" y="13.33" class="st1" width="12.43" height="3"/>
			</g>
		</g>
		<g>
			<g>
				<rect x="122.65" y="110.09" class="st1" width="15.39" height="3"/>
			</g>
			<g>
				<rect x="12.97" y="110.09" class="st1" width="35.18" height="3"/>
			</g>
			<g>
				<rect x="100.94" y="110.09" class="st1" width="13.43" height="3"/>
			</g>
		</g>
		<g>
			<g>
				<g>
					<path class="st7" d="M41.32,54.08L24.3,39.49c-0.45-0.38-0.22-1.12,0.36-1.19l22.27-2.6c0.07-0.01,0.13,0.06,0.11,0.13
						l-5.55,18.2C41.46,54.1,41.38,54.13,41.32,54.08z"/>
					<path class="st8" d="M41.39,55.61c-0.38,0-0.75-0.13-1.04-0.39L23.32,40.63c-0.66-0.56-0.92-1.46-0.67-2.29
						s0.97-1.43,1.83-1.53l23.07-2.69l0.61,0.65c0.35,0.41,0.46,0.97,0.31,1.48l-5.8,18.99l-0.85,0.29
						C41.68,55.58,41.53,55.61,41.39,55.61z M26.7,39.57l13.97,11.97l4.3-14.11L26.7,39.57z"/>
				</g>
				<g>
					<path class="st8" d="M116.51,56.87l3.3,1.01c5.11,1.56,7.98,6.96,6.43,12.07l0,0c-1.56,5.11-6.96,7.98-12.07,6.43L41.54,54.21
						c-0.05-0.02-0.08-0.07-0.07-0.12l5.59-18.3c0.02-0.05,0.07-0.08,0.12-0.07l31.28,9.54L116.51,56.87z"/>
					<path class="st9" d="M116.99,78.3c-1.08,0-2.17-0.16-3.25-0.49L40.5,55.46l-0.35-0.6c-0.2-0.38-0.24-0.81-0.11-1.22l5.76-18.88
						l0.59-0.35c0.38-0.2,0.81-0.25,1.22-0.12l72.64,22.17c5.89,1.8,9.22,8.05,7.42,13.94C126.21,75.2,121.77,78.3,116.99,78.3z
						 M43.31,53.18l71.3,21.76c4.31,1.32,8.88-1.12,10.2-5.43c1.31-4.31-1.12-8.88-5.43-10.2l-71.3-21.76L43.31,53.18z M48.49,36.21
						l-0.01,0.02C48.49,36.22,48.49,36.21,48.49,36.21z"/>
				</g>
				<g>
					<path class="st10" d="M130.26,71.16L130.26,71.16c1.56-5.11-1.32-10.51-6.43-12.07l-8.59-2.62l-5.64,18.5l8.59,2.62
						C123.3,79.15,128.7,76.27,130.26,71.16z"/>
					<path class="st11" d="M121.02,79.51c-1.1,0-2.2-0.16-3.27-0.49l-10.02-3.06l6.52-21.37l10.02,3.06c2.85,0.87,5.2,2.8,6.6,5.43
						c1.4,2.63,1.69,5.65,0.82,8.51c-0.87,2.85-2.8,5.2-5.43,6.6C124.62,79.07,122.83,79.51,121.02,79.51z M111.47,73.97l7.15,2.18
						c2.09,0.64,4.3,0.42,6.22-0.6c1.93-1.03,3.34-2.74,3.97-4.83l0,0c0.64-2.09,0.42-4.3-0.6-6.22c-1.03-1.93-2.74-3.34-4.83-3.97
						l-7.15-2.18L111.47,73.97z"/>
				</g>
				<g>
					<g>
						<path class="st0" d="M62.95,92.14L62.7,81.35c-0.01-0.49-0.26-0.95-0.67-1.22c-0.3-0.2-7.14-5.01-5.93-18.41l6.07,1.85
							c0.14,0.04,0.29,0.07,0.44,0.07c0.25,0,0.51-0.06,0.73-0.19c0.36-0.2,0.62-0.54,0.72-0.93l0.99-3.79
							c0.01-0.05,0.02-0.09,0.03-0.14c0.11-0.46,4.23-16.87,6.39-25.48c0.37-1.34,1.64-2.3,3.07-2.3c0.28,0,0.57,0.04,0.85,0.12
							c1.69,0.47,2.69,2.23,2.22,3.92l-0.7,2.53c-0.19,0.69,0.13,1.43,0.78,1.75c0.21,0.11,0.44,0.16,0.67,0.16
							c0.46,0,0.9-0.21,1.2-0.59c0.6-0.8,1.56-1.27,2.55-1.27c0.28,0,0.57,0.04,0.84,0.12c0.82,0.23,1.5,0.76,1.92,1.51
							c0.42,0.74,0.53,1.6,0.3,2.42l-0.44,1.58c-0.19,0.7,0.14,1.44,0.79,1.75c0.21,0.1,0.43,0.15,0.65,0.15
							c0.47,0,0.92-0.22,1.21-0.62c0.6-0.83,1.57-1.33,2.59-1.33c0.28,0,0.57,0.04,0.84,0.12c0.82,0.23,1.5,0.76,1.92,1.51
							c0.42,0.74,0.53,1.6,0.3,2.42l-0.25,0.89c-0.19,0.69,0.13,1.42,0.77,1.74c0.21,0.11,0.45,0.16,0.67,0.16
							c0.45,0,0.89-0.2,1.18-0.58c0.61-0.77,1.55-1.24,2.53-1.24c0.28,0,0.57,0.04,0.84,0.12c1.69,0.47,2.69,2.23,2.22,3.92
							l-6.15,22.11c-0.03,0.12-0.07,0.22-0.11,0.33c-0.04,0.09-0.06,0.18-0.08,0.27c-0.04,0.22-1.04,5.02-5.8,7.28
							c-0.52,0.25-0.86,0.78-0.86,1.35v8.74H62.95z"/>
						<path class="st1" d="M74.53,32.32L74.53,32.32c0.15,0,0.3,0.02,0.44,0.06c0.88,0.24,1.42,1.2,1.17,2.08l-0.7,2.53
							c-0.39,1.39,0.27,2.85,1.56,3.49c0.43,0.21,0.88,0.31,1.33,0.31c0.91,0,1.81-0.42,2.39-1.19c0.32-0.43,0.83-0.68,1.36-0.68
							c0.15,0,0.3,0.02,0.44,0.06c0.88,0.24,1.42,1.2,1.17,2.08l-0.44,1.58c-0.39,1.4,0.28,2.87,1.59,3.51
							c0.42,0.2,0.86,0.3,1.3,0.3c0.94,0,1.85-0.44,2.43-1.24c0.32-0.44,0.85-0.71,1.38-0.71c0.15,0,0.3,0.02,0.44,0.06
							c0.43,0.12,0.79,0.4,1.01,0.8c0.22,0.4,0.28,0.85,0.16,1.28l-0.25,0.89c-0.38,1.38,0.26,2.84,1.54,3.48
							c0.43,0.22,0.89,0.32,1.35,0.32c0.9,0,1.78-0.41,2.37-1.15c0.32-0.41,0.83-0.66,1.34-0.66c0.15,0,0.3,0.02,0.44,0.06
							c0.88,0.24,1.42,1.2,1.17,2.08l-6.15,22.11c-0.02,0.06-0.04,0.12-0.06,0.18c-0.07,0.18-0.12,0.34-0.15,0.52
							c-0.04,0.17-0.92,4.29-4.98,6.22c-1.05,0.5-1.71,1.55-1.71,2.71v7.24H64.42l-0.22-9.32c-0.02-0.98-0.53-1.89-1.35-2.43
							c-0.06-0.04-5.73-4.13-5.37-15.17l4.25,1.3c0.29,0.09,0.58,0.13,0.88,0.13c0.51,0,1.01-0.13,1.46-0.38
							c0.71-0.4,1.23-1.07,1.44-1.86l0.99-3.79c0.01-0.04,0.02-0.07,0.03-0.11c0.21-0.9,4.66-18.62,6.39-25.48
							C73.11,32.81,73.78,32.32,74.53,32.32 M74.53,29.32c-2.05,0-3.95,1.36-4.52,3.43c0,0-6.39,25.43-6.42,25.61l-0.99,3.79
							l-7.79-2.38c-2.17,15.98,6.39,21.62,6.39,21.62l0.29,12.25h28V83.4c5.57-2.65,6.63-8.36,6.63-8.36l0,0
							c0.06-0.16,0.12-0.31,0.16-0.48l6.15-22.11c0.69-2.48-0.78-5.08-3.26-5.77h0c-0.42-0.12-0.83-0.17-1.25-0.17
							c-1.45,0-2.82,0.68-3.71,1.81l0.25-0.89c0.69-2.48-0.78-5.08-3.26-5.77c-0.41-0.12-0.83-0.17-1.24-0.17
							c-1.51,0-2.93,0.74-3.81,1.95l0.44-1.58c0.69-2.48-0.78-5.08-3.26-5.77c-0.41-0.12-0.83-0.17-1.24-0.17
							c-1.47,0-2.87,0.7-3.75,1.87l0.7-2.53c0.69-2.48-0.78-5.08-3.26-5.77h0C75.36,29.37,74.94,29.32,74.53,29.32L74.53,29.32z"/>
					</g>
					<rect x="58.39" y="92.38" class="st1" width="33.57" height="45.96"/>
					<g>
						<polygon class="st2" points="93.46,128.03 90.46,128.03 90.46,93.88 59.89,93.88 59.89,123 56.89,123 56.89,90.88 
							93.46,90.88 						"/>
					</g>
					<g>
						<rect x="56.89" y="128.26" class="st2" width="3" height="10.09"/>
					</g>
				</g>
			</g>
			<g>
				
					<rect x="70.53" y="48.47" transform="matrix(0.2773 -0.9608 0.9608 0.2773 6.0767 108.0217)" class="st1" width="8.63" height="3"/>
			</g>
			<g>
				
					<rect x="77.98" y="53.5" transform="matrix(0.2564 -0.9666 0.9666 0.2564 8.0297 120.4369)" class="st1" width="8.63" height="3"/>
			</g>
			<g>
				
					<rect x="86.23" y="58.15" transform="matrix(0.2595 -0.9657 0.9657 0.2595 9.4426 131.6088)" class="st1" width="8.63" height="3"/>
			</g>
		</g>
	</g>
</g>
<g id="Layer_2" class="st5">
	<g class="st6">
		<g>
			<g>
				<rect x="2.01" y="1.93" class="st0" width="147" height="122.5"/>
				<path class="st1" d="M147.51,3.43v119.5h-144V3.43H147.51 M150.51,0.43h-150v150h150V0.43L150.51,0.43z"/>
			</g>
		</g>
		<g>
			<g>
				<rect x="12.97" y="13.33" class="st1" width="28.89" height="3"/>
			</g>
			<g>
				<rect x="71.68" y="13.33" class="st1" width="66.37" height="3"/>
			</g>
			<g>
				<rect x="50.89" y="13.33" class="st1" width="12.43" height="3"/>
			</g>
		</g>
		<g>
			<g>
				<rect x="108.16" y="110.09" class="st1" width="29.89" height="3"/>
			</g>
		</g>
		<g>
			<path class="st1" d="M84.44,69.64H38.7c-7.02,0-12.71,5.69-12.71,12.71v45.32h26.47l-0.19,0.02l9.3,9.3l0.01-9.32h22.86
				c7.02,0,12.71-5.69,12.71-12.71V82.35C97.15,75.33,91.46,69.64,84.44,69.64z"/>
			<g>
				<path class="st2" d="M63.07,140.73l-11.46-11.48h-5.58v-3h6.82l7.22,7.23l0-7.23h24.45c6.21,0,11.25-5.05,11.25-11.25V82.27
					c0-6.21-5.05-11.25-11.25-11.25H38.61c-6.21,0-11.25,5.05-11.25,11.25v40.67h-3V82.27c0-7.86,6.39-14.25,14.25-14.25h45.91
					c7.86,0,14.25,6.39,14.25,14.25V115c0,7.86-6.39,14.25-14.25,14.25H63.08L63.07,140.73z"/>
			</g>
			<g>
				<rect x="33.3" y="126.22" class="st2" width="6.11" height="3.07"/>
			</g>
			<g>
				<rect x="34.52" y="83.61" class="st0" width="30.86" height="5.33"/>
				<rect x="34.52" y="95.87" class="st0" width="43.73" height="5.33"/>
				<rect x="34.52" y="108.13" class="st0" width="43.73" height="5.33"/>
				<rect x="84.43" y="108.13" class="st0" width="5.28" height="5.33"/>
			</g>
			<g>
				<path class="st12" d="M128.36,60.36c0-16.09-14-29.14-31.28-29.14c-17.27,0-31.28,13.05-31.28,29.14s14,29.14,31.28,29.14
					c3.97,0,7.76-0.69,11.26-1.95l8.33,8.32V83.08C123.8,77.74,128.36,69.55,128.36,60.36z"/>
				<path class="st13" d="M118.17,99.49l-10.22-10.22c-3.48,1.14-7.13,1.72-10.86,1.72c-18.07,0-32.78-13.75-32.78-30.64
					s14.7-30.64,32.78-30.64s32.78,13.74,32.78,30.64c0,9.11-4.25,17.62-11.7,23.46V99.49z M108.73,85.82l6.44,6.43v-9.92l0.6-0.45
					c7.05-5.28,11.09-13.12,11.09-21.52c0-15.24-13.36-27.64-29.78-27.64s-29.78,12.4-29.78,27.64C67.31,75.6,80.67,88,97.09,88
					c3.7,0,7.32-0.62,10.75-1.86L108.73,85.82z"/>
			</g>
			<g>
				<g>
					<path class="st14" d="M106.19,68.15c-1.04,0-1.89-0.85-1.89-1.89v-4.54c0-1.69,1.16-3.13,2.82-3.5
						c2.05-0.46,3.43-2.32,3.28-4.42c-0.14-2.08-1.82-3.76-3.91-3.91c-1.19-0.08-2.32,0.32-3.18,1.12c-0.86,0.81-1.34,1.9-1.34,3.09
						c0,1.04-0.85,1.89-1.89,1.89s-1.89-0.85-1.89-1.89c0-2.21,0.93-4.34,2.54-5.85c1.64-1.53,3.78-2.29,6.02-2.13
						c3.96,0.27,7.14,3.46,7.42,7.42c0.27,3.93-2.28,7.42-6.09,8.34v4.39C108.08,67.31,107.23,68.15,106.19,68.15z"/>
					<path class="st14" d="M106.19,75.63c-0.5,0-0.98-0.2-1.34-0.55c-0.35-0.35-0.55-0.84-0.55-1.34c0-0.5,0.2-0.98,0.55-1.34
						c0.35-0.35,0.84-0.55,1.34-0.55s0.98,0.2,1.34,0.55c0.35,0.35,0.55,0.84,0.55,1.34c0,0.5-0.2,0.98-0.55,1.34
						C107.17,75.43,106.68,75.63,106.19,75.63z"/>
				</g>
				<g>
					<path class="st14" d="M87.94,53.58c1.04,0,1.89,0.85,1.89,1.89V60c0,1.69-1.16,3.13-2.82,3.5c-2.05,0.46-3.43,2.32-3.28,4.42
						c0.14,2.08,1.82,3.76,3.91,3.91c1.19,0.08,2.32-0.32,3.18-1.12c0.86-0.81,1.34-1.9,1.34-3.09c0-1.04,0.85-1.89,1.89-1.89
						s1.89,0.85,1.89,1.89c0,2.21-0.93,4.34-2.54,5.85c-1.64,1.53-3.78,2.29-6.02,2.13c-3.96-0.27-7.14-3.46-7.42-7.42
						c-0.27-3.93,2.28-7.42,6.09-8.34v-4.39C86.05,54.42,86.89,53.58,87.94,53.58z"/>
					<path class="st14" d="M87.94,46.1c0.5,0,0.98,0.2,1.34,0.55c0.35,0.35,0.55,0.84,0.55,1.34c0,0.5-0.2,0.98-0.55,1.34
						c-0.35,0.35-0.84,0.55-1.34,0.55c-0.5,0-0.98-0.2-1.34-0.55c-0.35-0.35-0.55-0.84-0.55-1.34c0-0.5,0.2-0.98,0.55-1.34
						C86.95,46.3,87.44,46.1,87.94,46.1z"/>
				</g>
			</g>
		</g>
	</g>
</g>
<g id="Layer_4" class="st5">
	<g class="st6">
		<g>
			<polyline class="st1" points="150.53,123.97 150.53,150.5 0.53,150.5 0.53,123.97 			"/>
			<g>
				<rect x="2.03" y="2" class="st0" width="147" height="122.5"/>
				<path class="st1" d="M147.53,3.5v119.5h-144V3.5H147.53 M150.53,0.5h-150v150h150V0.5L150.53,0.5z"/>
			</g>
		</g>
		<g>
			<g>
				<rect x="12.99" y="13.41" class="st1" width="28.89" height="3"/>
			</g>
			<g>
				<rect x="71.7" y="13.41" class="st1" width="66.37" height="3"/>
			</g>
			<g>
				<rect x="50.91" y="13.41" class="st1" width="12.43" height="3"/>
			</g>
		</g>
		<g>
			<g>
				<rect x="122.67" y="110.16" class="st1" width="15.39" height="3"/>
			</g>
			<g>
				<rect x="12.99" y="110.16" class="st1" width="35.18" height="3"/>
			</g>
			<g>
				<rect x="100.96" y="110.16" class="st1" width="13.43" height="3"/>
			</g>
		</g>
		<g>
			<g>
				<g>
					<path class="st1" d="M41.34,54.16L24.32,39.57c-0.45-0.38-0.22-1.12,0.36-1.19l22.27-2.6c0.07-0.01,0.13,0.06,0.11,0.13
						l-5.55,18.2C41.48,54.18,41.4,54.2,41.34,54.16z"/>
					<path class="st2" d="M41.41,55.68c-0.38,0-0.75-0.13-1.04-0.39L23.34,40.71c-0.66-0.56-0.92-1.46-0.67-2.29
						s0.97-1.43,1.83-1.53l23.07-2.69l0.61,0.65c0.35,0.41,0.46,0.97,0.31,1.48l-5.8,18.99l-0.85,0.29
						C41.7,55.66,41.55,55.68,41.41,55.68z M26.72,39.65L40.7,51.63L45,37.52L26.72,39.65z"/>
				</g>
				<g>
					<path class="st1" d="M116.53,56.95l3.3,1.01c5.11,1.56,7.98,6.96,6.43,12.07l0,0c-1.56,5.11-6.96,7.98-12.07,6.43L41.56,54.29
						c-0.05-0.02-0.08-0.07-0.07-0.12l5.59-18.3c0.02-0.05,0.07-0.08,0.12-0.07l31.28,9.54L116.53,56.95z"/>
					<path class="st2" d="M117.01,78.37c-1.08,0-2.17-0.16-3.25-0.49L40.52,55.54l-0.35-0.6c-0.2-0.38-0.24-0.81-0.11-1.22
						l5.76-18.88l0.59-0.35c0.38-0.2,0.81-0.25,1.22-0.12l72.64,22.17c5.89,1.8,9.22,8.05,7.42,13.94
						C126.23,75.27,121.79,78.37,117.01,78.37z M43.33,53.26l71.3,21.76c4.31,1.32,8.88-1.12,10.2-5.43
						c1.31-4.31-1.12-8.88-5.43-10.2L48.1,37.63L43.33,53.26z M48.51,36.28l-0.01,0.02C48.51,36.3,48.51,36.29,48.51,36.28z"/>
				</g>
				<g>
					<path class="st1" d="M130.28,71.24L130.28,71.24c1.56-5.11-1.32-10.51-6.43-12.07l-8.59-2.62l-5.64,18.5l8.59,2.62
						C123.32,79.22,128.72,76.35,130.28,71.24z"/>
					<path class="st2" d="M121.04,79.59c-1.1,0-2.2-0.16-3.27-0.49l-10.02-3.06l6.52-21.37l10.02,3.06c2.85,0.87,5.2,2.8,6.6,5.43
						c1.4,2.63,1.69,5.65,0.82,8.51c-0.87,2.85-2.8,5.2-5.43,6.6C124.64,79.15,122.85,79.59,121.04,79.59z M111.49,74.05l7.15,2.18
						c2.09,0.64,4.3,0.42,6.22-0.6c1.93-1.03,3.34-2.74,3.97-4.83l0,0c0.64-2.09,0.42-4.3-0.6-6.22c-1.03-1.93-2.74-3.34-4.83-3.97
						l-7.15-2.18L111.49,74.05z"/>
				</g>
				<g>
					<g>
						<path class="st0" d="M62.97,92.21l-0.25-10.78c-0.01-0.49-0.26-0.95-0.67-1.22c-0.3-0.2-7.14-5.01-5.93-18.41l6.07,1.85
							c0.14,0.04,0.29,0.07,0.44,0.07c0.25,0,0.51-0.06,0.73-0.19c0.36-0.2,0.62-0.54,0.72-0.93l0.99-3.79
							c0.01-0.05,0.02-0.09,0.03-0.14c0.11-0.46,4.23-16.87,6.39-25.48c0.37-1.34,1.64-2.3,3.07-2.3c0.28,0,0.57,0.04,0.85,0.12
							c0.82,0.23,1.5,0.76,1.92,1.51c0.42,0.74,0.53,1.6,0.3,2.42l-0.7,2.53c-0.19,0.69,0.13,1.43,0.78,1.75
							c0.21,0.11,0.44,0.16,0.67,0.16c0.46,0,0.9-0.21,1.2-0.59c0.6-0.8,1.56-1.27,2.55-1.27c0.28,0,0.57,0.04,0.84,0.12
							c0.82,0.23,1.5,0.76,1.92,1.51c0.42,0.74,0.53,1.6,0.3,2.42l-0.44,1.58c-0.19,0.7,0.14,1.44,0.79,1.75
							c0.21,0.1,0.43,0.15,0.65,0.15c0.47,0,0.92-0.22,1.21-0.62c0.6-0.83,1.57-1.33,2.59-1.33c0.28,0,0.57,0.04,0.84,0.12
							c1.69,0.47,2.69,2.23,2.22,3.92L92.79,48c-0.19,0.69,0.13,1.42,0.77,1.74c0.22,0.11,0.45,0.16,0.67,0.16
							c0.45,0,0.89-0.2,1.18-0.58c0.6-0.77,1.55-1.24,2.52-1.24c0.28,0,0.57,0.04,0.84,0.12c0.82,0.23,1.5,0.76,1.92,1.51
							c0.42,0.74,0.53,1.6,0.3,2.42l-6.14,22.11c-0.03,0.11-0.07,0.22-0.11,0.33c-0.04,0.09-0.06,0.19-0.08,0.28
							c-0.04,0.18-1.09,5.03-5.8,7.27c-0.52,0.25-0.86,0.78-0.86,1.35v8.74H62.97z"/>
						<path class="st1" d="M74.55,32.39L74.55,32.39c0.15,0,0.3,0.02,0.44,0.06c0.88,0.24,1.42,1.2,1.17,2.08l-0.7,2.53
							c-0.39,1.39,0.27,2.85,1.56,3.49c0.43,0.21,0.88,0.31,1.33,0.31c0.91,0,1.81-0.42,2.39-1.19C81.07,39.25,81.57,39,82.1,39
							c0.15,0,0.3,0.02,0.44,0.06c0.88,0.24,1.42,1.2,1.17,2.08l-0.44,1.58c-0.39,1.4,0.28,2.87,1.59,3.51
							c0.42,0.2,0.86,0.3,1.3,0.3c0.94,0,1.85-0.44,2.43-1.24c0.32-0.44,0.85-0.71,1.38-0.71c0.15,0,0.3,0.02,0.44,0.06
							c0.43,0.12,0.79,0.4,1.01,0.8c0.22,0.4,0.28,0.85,0.16,1.28l-0.25,0.89c-0.38,1.38,0.26,2.84,1.54,3.48
							c0.43,0.22,0.89,0.32,1.35,0.32c0.9,0,1.78-0.41,2.37-1.15c0.32-0.41,0.83-0.66,1.34-0.66c0.15,0,0.3,0.02,0.44,0.06
							c0.88,0.24,1.42,1.2,1.17,2.08l-6.15,22.11c-0.02,0.06-0.04,0.12-0.06,0.18c-0.07,0.18-0.12,0.34-0.15,0.52
							c-0.04,0.17-0.92,4.29-4.98,6.22c-1.05,0.5-1.71,1.55-1.71,2.71v7.24H64.44l-0.22-9.32c-0.02-0.98-0.49-1.87-1.31-2.41
							c-0.26-0.18-5.79-4.19-5.41-15.19l4.25,1.3c0.29,0.09,0.58,0.13,0.88,0.13c0.51,0,1.01-0.13,1.46-0.38
							c0.71-0.4,1.23-1.07,1.44-1.86l0.99-3.79c0.01-0.04,0.02-0.07,0.03-0.11c0.21-0.89,4.66-18.62,6.39-25.48
							C73.13,32.89,73.8,32.39,74.55,32.39 M74.55,29.39c-2.05,0-3.95,1.36-4.52,3.43c0,0-6.39,25.43-6.42,25.61l-0.99,3.79
							l-7.79-2.38c-2.17,15.98,6.39,21.62,6.39,21.62l0.29,12.25h28V83.48c5.57-2.65,6.63-8.36,6.63-8.36l0,0
							c0.06-0.16,0.12-0.31,0.16-0.48l6.15-22.11c0.69-2.48-0.78-5.08-3.26-5.77h0c-0.42-0.12-0.83-0.17-1.25-0.17
							c-1.45,0-2.82,0.68-3.71,1.81l0.25-0.89c0.69-2.48-0.78-5.08-3.26-5.77c-0.41-0.12-0.83-0.17-1.24-0.17
							c-1.51,0-2.93,0.74-3.81,1.95l0.44-1.58c0.69-2.48-0.78-5.08-3.26-5.77C82.93,36.05,82.51,36,82.1,36
							c-1.47,0-2.87,0.7-3.75,1.87l0.7-2.53c0.69-2.48-0.78-5.08-3.26-5.77h0C75.38,29.45,74.96,29.39,74.55,29.39L74.55,29.39z"/>
					</g>
					<rect x="58.41" y="92.46" class="st1" width="33.57" height="45.96"/>
					<g>
						<polygon class="st2" points="93.48,128.11 90.48,128.11 90.48,93.96 59.91,93.96 59.91,123.08 56.91,123.08 56.91,90.96 
							93.48,90.96 						"/>
					</g>
					<g>
						<rect x="56.91" y="128.33" class="st2" width="3" height="10.09"/>
					</g>
				</g>
			</g>
			<g>
				
					<rect x="70.55" y="48.55" transform="matrix(0.2773 -0.9608 0.9608 0.2773 6.0173 108.0962)" class="st1" width="8.63" height="3"/>
			</g>
			<g>
				
					<rect x="78" y="53.58" transform="matrix(0.2564 -0.9666 0.9666 0.2564 7.9703 120.5131)" class="st1" width="8.63" height="3"/>
			</g>
			<g>
				
					<rect x="86.25" y="58.22" transform="matrix(0.2595 -0.9657 0.9657 0.2595 9.3832 131.6847)" class="st1" width="8.63" height="3"/>
			</g>
		</g>
	</g>
</g>
<g id="Layer_5" class="st5">
	<g class="st6">
		<g>
			<g>
				<rect x="2.03" y="2" class="st0" width="147" height="122.5"/>
				<path class="st1" d="M147.53,3.5v119.5h-144V3.5H147.53 M150.53,0.5h-150v150h150V0.5L150.53,0.5z"/>
			</g>
		</g>
		<g>
			<g>
				<rect x="12.99" y="13.41" class="st1" width="28.89" height="3"/>
			</g>
			<g>
				<rect x="71.7" y="13.41" class="st1" width="66.37" height="3"/>
			</g>
			<g>
				<rect x="50.91" y="13.41" class="st1" width="12.43" height="3"/>
			</g>
		</g>
		<g>
			<g>
				<rect x="108.18" y="110.16" class="st1" width="29.89" height="3"/>
			</g>
		</g>
		<g>
			<path class="st0" d="M84.46,69.72H38.72c-7.02,0-12.71,5.69-12.71,12.71v45.32h26.47l-0.19,0.02l9.3,9.3l0.01-9.32h22.86
				c7.02,0,12.71-5.69,12.71-12.71V82.42C97.17,75.41,91.48,69.72,84.46,69.72z"/>
			<g>
				<path class="st2" d="M63.09,140.81l-11.46-11.48h-5.58v-3h6.82l7.22,7.23l0-7.23h24.45c6.21,0,11.25-5.05,11.25-11.25V82.35
					c0-6.21-5.05-11.25-11.25-11.25H38.63c-6.21,0-11.25,5.05-11.25,11.25v40.67h-3V82.35c0-7.86,6.39-14.25,14.25-14.25h45.91
					c7.86,0,14.25,6.39,14.25,14.25v32.73c0,7.86-6.39,14.25-14.25,14.25H63.1L63.09,140.81z"/>
			</g>
			<g>
				<rect x="33.32" y="126.3" class="st2" width="6.11" height="3.07"/>
			</g>
			<g>
				<rect x="34.54" y="83.69" class="st1" width="30.86" height="5.33"/>
				<rect x="34.54" y="95.95" class="st1" width="43.73" height="5.33"/>
				<rect x="34.54" y="108.21" class="st1" width="43.73" height="5.33"/>
				<rect x="84.45" y="108.21" class="st1" width="5.28" height="5.33"/>
			</g>
			<g>
				<path class="st1" d="M128.38,60.43c0-16.09-14-29.14-31.28-29.14c-17.27,0-31.28,13.05-31.28,29.14s14,29.14,31.28,29.14
					c3.97,0,7.76-0.69,11.26-1.95l8.33,8.32V83.16C123.82,77.81,128.38,69.62,128.38,60.43z"/>
				<path class="st2" d="M118.19,99.57l-10.22-10.22c-3.48,1.14-7.13,1.72-10.86,1.72c-18.07,0-32.78-13.75-32.78-30.64
					S79.03,29.8,97.11,29.8s32.78,13.74,32.78,30.64c0,9.11-4.25,17.62-11.7,23.46V99.57z M108.75,85.89l6.44,6.43V82.4l0.6-0.45
					c7.05-5.28,11.09-13.12,11.09-21.52c0-15.24-13.36-27.64-29.78-27.64s-29.78,12.4-29.78,27.64c0,15.24,13.36,27.64,29.78,27.64
					c3.7,0,7.32-0.62,10.75-1.86L108.75,85.89z"/>
			</g>
			<g>
				<g>
					<path class="st2" d="M106.21,68.23c-1.04,0-1.89-0.85-1.89-1.89V61.8c0-1.69,1.16-3.13,2.82-3.5c2.05-0.46,3.43-2.32,3.28-4.42
						c-0.14-2.08-1.82-3.76-3.91-3.91c-1.19-0.08-2.32,0.32-3.18,1.12c-0.86,0.81-1.34,1.9-1.34,3.09c0,1.04-0.85,1.89-1.89,1.89
						c-1.04,0-1.89-0.85-1.89-1.89c0-2.21,0.93-4.34,2.54-5.85c1.64-1.53,3.78-2.29,6.02-2.13c3.96,0.27,7.14,3.46,7.42,7.42
						c0.27,3.93-2.28,7.42-6.09,8.34v4.39C108.09,67.38,107.25,68.23,106.21,68.23z"/>
					<path class="st2" d="M106.21,75.7c-0.5,0-0.98-0.2-1.34-0.55c-0.35-0.35-0.55-0.84-0.55-1.34c0-0.5,0.2-0.98,0.55-1.34
						c0.35-0.35,0.84-0.55,1.34-0.55c0.5,0,0.98,0.2,1.34,0.55c0.35,0.35,0.55,0.84,0.55,1.34c0,0.5-0.2,0.98-0.55,1.34
						C107.19,75.5,106.7,75.7,106.21,75.7z"/>
				</g>
				<g>
					<path class="st2" d="M87.96,53.65c1.04,0,1.89,0.85,1.89,1.89v4.54c0,1.69-1.16,3.13-2.82,3.5c-2.05,0.46-3.43,2.32-3.28,4.42
						c0.14,2.08,1.82,3.76,3.91,3.91c1.19,0.08,2.32-0.32,3.18-1.12c0.86-0.81,1.34-1.9,1.34-3.09c0-1.04,0.85-1.89,1.89-1.89
						s1.89,0.85,1.89,1.89c0,2.21-0.93,4.34-2.54,5.85c-1.64,1.53-3.78,2.29-6.02,2.13c-3.96-0.27-7.14-3.46-7.42-7.42
						c-0.27-3.93,2.28-7.42,6.09-8.34v-4.39C86.07,54.5,86.91,53.65,87.96,53.65z"/>
					<path class="st2" d="M87.96,46.18c0.5,0,0.98,0.2,1.34,0.55c0.35,0.35,0.55,0.84,0.55,1.34c0,0.5-0.2,0.98-0.55,1.34
						c-0.35,0.35-0.84,0.55-1.34,0.55c-0.5,0-0.98-0.2-1.34-0.55c-0.35-0.35-0.55-0.84-0.55-1.34c0-0.5,0.2-0.98,0.55-1.34
						C86.97,46.38,87.46,46.18,87.96,46.18z"/>
				</g>
			</g>
		</g>
	</g>
</g>
<g id="Layer_6" class="st5">
	<g class="st6">
		<g>
			<g>
				<rect x="2.03" y="2" class="st0" width="147" height="122.5"/>
				<path class="st1" d="M147.53,3.5v119.5h-144V3.5H147.53 M150.53,0.5h-150v150h150V0.5L150.53,0.5z"/>
			</g>
		</g>
		<g>
			<circle class="st2" cx="40.38" cy="138.21" r="5"/>
			<path class="st2" d="M32.7,138.21c0-0.51,0.05-1.01,0.15-1.5H13.03v3h19.82C32.75,139.22,32.7,138.72,32.7,138.21z"/>
			<path class="st2" d="M47.9,136.71c0.1,0.49,0.15,0.99,0.15,1.5s-0.05,1.01-0.15,1.5h90.12v-3H47.9z"/>
		</g>
		<g>
			<g>
				<rect x="12.99" y="13.41" class="st1" width="28.89" height="3"/>
			</g>
			<g>
				<rect x="71.7" y="13.41" class="st1" width="66.37" height="3"/>
			</g>
			<g>
				<rect x="50.91" y="13.41" class="st1" width="12.43" height="3"/>
			</g>
		</g>
		<g>
			<g>
				<rect x="109.18" y="110.16" class="st1" width="28.89" height="3"/>
			</g>
			<g>
				<rect x="12.99" y="110.16" class="st1" width="66.37" height="3"/>
			</g>
			<g>
				<rect x="87.72" y="110.16" class="st1" width="12.43" height="3"/>
			</g>
		</g>
		<g>
			<g>
				<circle class="st1" cx="75.53" cy="63.25" r="32.5"/>
				<path class="st2" d="M75.53,97.15c-18.69,0-33.89-15.2-33.89-33.89s15.2-33.89,33.89-33.89s33.89,15.2,33.89,33.89
					S94.22,97.15,75.53,97.15z M75.53,32.15c-17.15,0-31.11,13.95-31.11,31.11s13.95,31.11,31.11,31.11s31.11-13.95,31.11-31.11
					S92.68,32.15,75.53,32.15z"/>
			</g>
			<polygon class="st0" points="66.32,46.38 95.55,63.25 66.32,80.13 			"/>
		</g>
	</g>
</g>
</svg>
