<svg xmlns="http://www.w3.org/2000/svg" viewBox="0 0 3172.07 502.78"><defs><style>.a{fill:none;stroke:#6696c7;stroke-miterlimit:10;stroke-width:1.6px;}</style></defs><title>fondo-ilustrado</title><line class="a" x1="1184.41" y1="18.65" x2="1089" y2="18.65"/><line class="a" x1="1166.4" y1="0.8" x2="1117.88" y2="0.8"/><line class="a" x1="1089" y1="0.8" x2="1040.48" y2="0.8"/><line class="a" x1="837.48" y1="18.65" x2="754.45" y2="18.65"/><line class="a" x1="874.63" y1="18.65" x2="851.35" y2="18.65"/><line class="a" x1="899.87" y1="0.8" x2="851.35" y2="0.8"/><line class="a" x1="780.29" y1="0.8" x2="731.77" y2="0.8"/><line class="a" x1="958.66" y1="137.96" x2="923.5" y2="137.96"/><line class="a" x1="995.81" y1="137.96" x2="972.53" y2="137.96"/><line class="a" x1="1021.05" y1="120.11" x2="972.53" y2="120.11"/><line class="a" x1="943.64" y1="120.11" x2="895.12" y2="120.11"/><line class="a" x1="1357.12" y1="120.11" x2="1452.53" y2="120.11"/><line class="a" x1="1375.12" y1="137.96" x2="1423.64" y2="137.96"/><line class="a" x1="1452.53" y1="137.96" x2="1501.05" y2="137.96"/><line class="a" x1="1704.04" y1="120.11" x2="1787.07" y2="120.11"/><line class="a" x1="1666.89" y1="120.11" x2="1690.17" y2="120.11"/><line class="a" x1="1641.65" y1="137.96" x2="1690.17" y2="137.96"/><line class="a" x1="1761.24" y1="137.96" x2="1809.76" y2="137.96"/><line class="a" x1="1582.86" y1="0.8" x2="1618.02" y2="0.8"/><line class="a" x1="1545.71" y1="0.8" x2="1568.99" y2="0.8"/><line class="a" x1="1520.47" y1="18.65" x2="1568.99" y2="18.65"/><line class="a" x1="1597.88" y1="18.65" x2="1646.4" y2="18.65"/><line class="a" x1="2435.11" y1="18.65" x2="2339.7" y2="18.65"/><line class="a" x1="2417.1" y1="0.8" x2="2368.58" y2="0.8"/><line class="a" x1="2339.7" y1="0.8" x2="2291.17" y2="0.8"/><line class="a" x1="2088.18" y1="18.65" x2="2005.15" y2="18.65"/><line class="a" x1="2125.33" y1="18.65" x2="2102.05" y2="18.65"/><line class="a" x1="2150.57" y1="0.8" x2="2102.05" y2="0.8"/><line class="a" x1="2030.99" y1="0.8" x2="1982.47" y2="0.8"/><line class="a" x1="2413.9" y1="120.11" x2="2365.38" y2="120.11"/><line class="a" x1="2070.93" y1="120.11" x2="2022.41" y2="120.11"/><circle class="a" cx="2216.95" cy="120.11" r="20.43"/><line class="a" x1="2607.82" y1="120.11" x2="2703.23" y2="120.11"/><line class="a" x1="2625.82" y1="137.96" x2="2674.34" y2="137.96"/><line class="a" x1="2703.23" y1="137.96" x2="2751.75" y2="137.96"/><line class="a" x1="2954.74" y1="120.11" x2="3037.77" y2="120.11"/><line class="a" x1="2917.59" y1="120.11" x2="2940.87" y2="120.11"/><line class="a" x1="2892.35" y1="137.96" x2="2940.87" y2="137.96"/><line class="a" x1="3011.94" y1="137.96" x2="3060.46" y2="137.96"/><line class="a" x1="2833.56" y1="0.8" x2="2868.72" y2="0.8"/><line class="a" x1="2796.41" y1="0.8" x2="2819.69" y2="0.8"/><line class="a" x1="2771.17" y1="18.65" x2="2819.69" y2="18.65"/><line class="a" x1="2848.58" y1="18.65" x2="2897.1" y2="18.65"/><line class="a" x1="106.42" y1="121.09" x2="201.83" y2="121.09"/><line class="a" x1="124.42" y1="138.94" x2="172.94" y2="138.94"/><line class="a" x1="201.83" y1="138.94" x2="250.35" y2="138.94"/><line class="a" x1="453.34" y1="121.09" x2="536.37" y2="121.09"/><line class="a" x1="416.19" y1="121.09" x2="439.47" y2="121.09"/><line class="a" x1="390.95" y1="138.94" x2="439.47" y2="138.94"/><line class="a" x1="510.54" y1="138.94" x2="559.06" y2="138.94"/><line class="a" x1="332.16" y1="1.79" x2="367.32" y2="1.79"/><line class="a" x1="295.01" y1="1.79" x2="318.29" y2="1.79"/><line class="a" x1="269.77" y1="19.63" x2="318.29" y2="19.63"/><line class="a" x1="347.18" y1="19.63" x2="395.7" y2="19.63"/><polygon class="a" points="182.06 426.37 201.28 426.37 201.28 370.4 218.09 370.4 218.09 337.36 258.24 359.86 258.24 426.37 276.04 426.37 276.04 501.98 182.06 501.98 182.06 426.37"/><rect class="a" x="211.3" y="386.3" width="14.62" height="17.52"/><rect class="a" x="232.94" y="386.3" width="14.62" height="17.52"/><rect class="a" x="211.3" y="410.16" width="14.62" height="17.52"/><rect class="a" x="232.94" y="410.16" width="14.62" height="17.52"/><rect class="a" x="211.3" y="436.36" width="14.62" height="17.52"/><rect class="a" x="232.94" y="436.36" width="14.62" height="17.52"/><rect class="a" x="211.3" y="462.56" width="14.62" height="17.52"/><rect class="a" x="232.94" y="462.56" width="14.62" height="17.52"/><polygon class="a" points="0.8 426.37 20.02 426.37 20.02 370.4 36.83 370.4 36.83 337.36 76.99 359.86 76.99 426.37 94.79 426.37 94.79 501.98 0.8 501.98 0.8 426.37"/><rect class="a" x="30.04" y="386.3" width="14.62" height="17.52"/><rect class="a" x="51.69" y="386.3" width="14.62" height="17.52"/><rect class="a" x="30.04" y="410.16" width="14.62" height="17.52"/><rect class="a" x="51.69" y="410.16" width="14.62" height="17.52"/><rect class="a" x="30.04" y="436.36" width="14.62" height="17.52"/><rect class="a" x="51.69" y="436.36" width="14.62" height="17.52"/><rect class="a" x="30.04" y="462.56" width="14.62" height="17.52"/><rect class="a" x="51.69" y="462.56" width="14.62" height="17.52"/><rect class="a" x="131.24" y="323.55" width="14.62" height="167.68"/><rect class="a" x="106.05" y="381.93" width="14.62" height="109.3"/><rect class="a" x="156.56" y="323.55" width="14.62" height="167.68"/><polygon class="a" points="94.79 501.98 94.79 370.54 120.7 370.54 120.7 313.15 181.8 313.15 181.8 501.98 94.79 501.98"/><polygon class="a" points="165.66 267.04 152.56 267.04 150.71 313.15 167.51 313.15 165.66 267.04"/><line class="a" x1="1148.84" y1="441.04" x2="1148.84" y2="427.57"/><polyline class="a" points="1124.76 427.57 1148.85 441.04 1148.85 501.98"/><circle class="a" cx="1148.84" cy="425.12" r="39.2"/><line class="a" x1="1148.84" y1="456.05" x2="1169.77" y2="443.19"/><line class="a" x1="1869.3" y1="441.04" x2="1869.3" y2="427.57"/><polyline class="a" points="1845.21 427.57 1869.3 441.04 1869.3 501.98"/><circle class="a" cx="1869.3" cy="425.12" r="39.2"/><line class="a" x1="1869.3" y1="456.05" x2="1890.23" y2="443.19"/><line class="a" x1="2307.59" y1="453.16" x2="2307.59" y2="442.37"/><polyline class="a" points="2288.29 442.37 2307.59 453.17 2307.59 501.98"/><circle class="a" cx="2307.59" cy="440.41" r="31.4"/><line class="a" x1="2307.59" y1="465.19" x2="2324.35" y2="454.88"/><line class="a" x1="756.51" y1="453.16" x2="756.51" y2="442.37"/><polyline class="a" points="737.21 442.37 756.51 453.17 756.51 501.98"/><circle class="a" cx="756.51" cy="440.41" r="31.4"/><line class="a" x1="756.51" y1="465.19" x2="773.27" y2="454.88"/><line class="a" x1="992.08" y1="266.45" x2="992.08" y2="280.06"/><rect class="a" x="1234.15" y="483.28" width="7.09" height="18.71"/><polyline class="a" points="1237.69 483.28 1237.69 436.04 1228.92 427.94 1221.29 427.94 1221.29 431.44"/><polyline class="a" points="1237.69 483.28 1237.69 436.04 1246.46 427.94 1254.1 427.94 1254.1 431.44"/><circle class="a" cx="1254.06" cy="437.64" r="6.11"/><line class="a" x1="1248.2" y1="435.93" x2="1259.96" y2="435.93"/><circle class="a" cx="1221.52" cy="437.64" r="6.11"/><line class="a" x1="1215.66" y1="435.93" x2="1227.42" y2="435.93"/><rect class="a" x="2377.89" y="483.28" width="7.09" height="18.71"/><polyline class="a" points="2381.43 483.28 2381.43 436.04 2372.67 427.94 2365.03 427.94 2365.03 431.44"/><polyline class="a" points="2381.43 483.28 2381.43 436.04 2390.2 427.94 2397.84 427.94 2397.84 431.44"/><circle class="a" cx="2397.8" cy="437.64" r="6.11"/><line class="a" x1="2391.94" y1="435.93" x2="2403.7" y2="435.93"/><circle class="a" cx="2365.26" cy="437.64" r="6.11"/><line class="a" x1="2359.4" y1="435.93" x2="2371.16" y2="435.93"/><rect class="a" x="938.4" y="483.28" width="7.09" height="18.71"/><polyline class="a" points="941.95 483.28 941.95 436.04 933.18 427.94 925.54 427.94 925.54 431.44"/><polyline class="a" points="941.95 483.28 941.95 436.04 950.72 427.94 958.36 427.94 958.36 431.44"/><circle class="a" cx="958.32" cy="437.64" r="6.11"/><line class="a" x1="952.45" y1="435.93" x2="964.22" y2="435.93"/><circle class="a" cx="925.78" cy="437.64" r="6.11"/><line class="a" x1="919.91" y1="435.93" x2="931.68" y2="435.93"/><line class="a" x1="1258.67" y1="492.06" x2="1290.57" y2="492.06"/><line class="a" x1="1283.54" y1="492.06" x2="1283.54" y2="501.98"/><line class="a" x1="1265.69" y1="492.06" x2="1265.69" y2="501.98"/><line class="a" x1="1361.73" y1="492.06" x2="1393.63" y2="492.06"/><line class="a" x1="1386.6" y1="492.06" x2="1386.6" y2="501.98"/><line class="a" x1="1368.75" y1="492.06" x2="1368.75" y2="501.98"/><line class="a" x1="1426.06" y1="492.06" x2="1457.96" y2="492.06"/><line class="a" x1="1450.94" y1="492.06" x2="1450.94" y2="501.98"/><line class="a" x1="1433.09" y1="492.06" x2="1433.09" y2="501.98"/><path class="a" d="M1204.55,494.74a3.68,3.68,0,0,0-3.47-2.48,3.8,3.8,0,0,0-.58.06,4.42,4.42,0,0,0-8.8,0c-.15,0-.29,0-.44,0A5.14,5.14,0,1,0,1188,502h15.75a3.66,3.66,0,0,0,.79-7.24Z"/><path class="a" d="M1850.43,494.74a3.68,3.68,0,0,0-3.47-2.48,3.8,3.8,0,0,0-.58.06,4.42,4.42,0,0,0-8.8,0c-.15,0-.29,0-.44,0a5.14,5.14,0,1,0-3.25,9.72h15.75a3.66,3.66,0,0,0,.79-7.24Z"/><path class="a" d="M2357.52,494.74a3.68,3.68,0,0,0-3.47-2.48,3.8,3.8,0,0,0-.58.06,4.42,4.42,0,0,0-8.8,0c-.15,0-.29,0-.44,0A5.14,5.14,0,1,0,2341,502h15.75a3.66,3.66,0,0,0,.79-7.24Z"/><line class="a" x1="1407.88" y1="436.14" x2="1407.88" y2="421.58"/><polyline class="a" points="1381.85 421.58 1407.88 436.14 1407.88 501.98"/><line class="a" x1="1407.88" y1="452.35" x2="1430.49" y2="438.45"/><path class="a" d="M1443.76,418.82A22.34,22.34,0,0,0,1430,380.65a27,27,0,0,0-21.16-9.82c-12.43,0-22.83,7.9-25.54,18.51a22.34,22.34,0,0,0-13.76,28.79,22.35,22.35,0,0,0,11.65,40.43l0,.05h48.66a22.35,22.35,0,0,0,14-39.79Z"/><line class="a" x1="1476.52" y1="454.32" x2="1476.52" y2="443.79"/><polyline class="a" points="1457.68 443.79 1476.52 454.32 1476.52 501.98"/><line class="a" x1="1476.52" y1="466.06" x2="1492.88" y2="456"/><path class="a" d="M1502.49,441.79a16.18,16.18,0,0,0-10-27.63,19.58,19.58,0,0,0-15.33-7.11c-9,0-16.52,5.72-18.48,13.4a16.16,16.16,0,0,0-10,20.84,16.17,16.17,0,0,0,8.43,29.26v0h35.22a16.18,16.18,0,0,0,10.12-28.8Z"/><path class="a" d="M2128.54,494.74a3.67,3.67,0,0,0-3.46-2.48,3.56,3.56,0,0,0-.58.06,4.43,4.43,0,0,0-8.81,0c-.14,0-.29,0-.44,0A5.14,5.14,0,1,0,2112,502h15.75a3.66,3.66,0,0,0,.79-7.24Z"/><polygon class="a" points="2123.53 395.94 2262.53 395.94 2278.38 413.41 2107.68 413.41 2123.53 395.94"/><rect class="a" x="2119.69" y="413.41" width="146.68" height="88.58"/><rect class="a" x="2134.12" y="434.25" width="26.01" height="35.89"/><line class="a" x1="2128.95" y1="470.13" x2="2165.55" y2="470.13"/><line class="a" x1="2134.12" y1="454.04" x2="2160.13" y2="454.04"/><rect class="a" x="2222.13" y="434.25" width="26.01" height="35.89"/><line class="a" x1="2216.95" y1="470.13" x2="2253.55" y2="470.13"/><line class="a" x1="2222.13" y1="454.04" x2="2248.14" y2="454.04"/><rect class="a" x="2176.8" y="451.04" width="28.86" height="50.94"/><path class="a" d="M2278.42,491.9a5.1,5.1,0,0,0-4.82-3.44,5.54,5.54,0,0,0-.81.07,6.16,6.16,0,0,0-12.25,0c-.2,0-.4,0-.6,0a7.15,7.15,0,1,0-4.53,13.52h21.92a5.1,5.1,0,0,0,1.09-10.08Z"/><path class="a" d="M2529.54,491.9a5.1,5.1,0,0,0-4.82-3.44,5.29,5.29,0,0,0-.8.07,6.16,6.16,0,0,0-12.25,0,6,6,0,0,0-.61,0,7.15,7.15,0,1,0-4.53,13.52h21.92a5.1,5.1,0,0,0,1.09-10.08Z"/><path class="a" d="M1334.91,493.64h-15.05s1.91-4,7.52-4S1334.91,493.64,1334.91,493.64Z"/><path class="a" d="M1315.65,475.51h23.47s-3,5.64-11.74,5.64S1315.65,475.51,1315.65,475.51Z"/><ellipse class="a" cx="1327.38" cy="485.3" rx="2.3" ry="4.17"/><path class="a" d="M1338.64,467.94s-.15-7.65-5.05-7.65-6.21,2.89-6.21,15.22"/><path class="a" d="M1316.13,467.94s.15-7.65,5-7.65,6.2,2.89,6.2,15.22"/><path class="a" d="M1323.82,475.51s1.12-6.91-2.3-6.91-1.34,4.39-1.34,4.39"/><path class="a" d="M1330.14,475.51s-1.11-6.91,2.3-6.91,1.34,4.39,1.34,4.39"/><rect class="a" x="1304.38" y="493.64" width="46.01" height="8.35"/><rect class="a" x="334.03" y="483.28" width="3.61" height="18.71"/><path class="a" d="M335.79,483.28V398.41s.9-4.78-5.75-4.78H308.78"/><path class="a" d="M286.38,395.79c0,2,2.94,3.57,6.55,3.57s6.55-1.6,6.55-3.57"/><rect class="a" x="285.99" y="392.02" width="22.78" height="3.77" transform="translate(594.77 787.81) rotate(180)"/><path class="a" d="M335.88,483.28V398.41s-.9-4.78,5.74-4.78h21.27"/><path class="a" d="M385.28,395.79c0,2-2.93,3.57-6.55,3.57s-6.55-1.6-6.55-3.57"/><rect class="a" x="362.89" y="392.02" width="22.78" height="3.77"/><rect class="a" x="709.28" y="483.28" width="3.61" height="18.71"/><path class="a" d="M711.05,483.28V398.41s.9-4.78-5.75-4.78H684"/><path class="a" d="M661.64,395.79c0,2,2.93,3.57,6.55,3.57s6.55-1.6,6.55-3.57"/><rect class="a" x="661.25" y="392.02" width="22.78" height="3.77" transform="translate(1345.29 787.81) rotate(180)"/><path class="a" d="M711.13,483.28V398.41s-.9-4.78,5.75-4.78h21.27"/><path class="a" d="M760.54,395.79c0,2-2.93,3.57-6.55,3.57s-6.55-1.6-6.55-3.57"/><rect class="a" x="738.15" y="392.02" width="22.78" height="3.77"/><path class="a" d="M1583.86,491.9a5.11,5.11,0,0,0-4.82-3.44,5.31,5.31,0,0,0-.81.07,6.16,6.16,0,0,0-12.25,0,6,6,0,0,0-.61,0,7.14,7.14,0,1,0-4.52,13.52h21.91a5.1,5.1,0,0,0,1.1-10.08Z"/><path class="a" d="M1780.93,491.9a5.1,5.1,0,0,0-4.82-3.44,5.29,5.29,0,0,0-.8.07,6.16,6.16,0,0,0-12.26,0,5.85,5.85,0,0,0-.6,0,7.15,7.15,0,1,0-4.53,13.52h21.92a5.1,5.1,0,0,0,1.09-10.08Z"/><rect class="a" x="1571.55" y="381.3" width="197.83" height="120.69"/><rect class="a" x="1630.7" y="322.27" width="79.25" height="179.71"/><path class="a" d="M1571.55,381.3l9.09-10.36a18.31,18.31,0,0,1,13.79-6.25h152.08a18.31,18.31,0,0,1,13.79,6.25l9.09,10.36Z"/><path class="a" d="M1630.7,322.27c.84,0,10.08-7.18,19.43-14.61a33,33,0,0,1,40.8-.21l19,14.82Z"/><line class="a" x1="1660.05" y1="288.22" x2="1680.59" y2="288.22"/><line class="a" x1="1670.32" y1="300.39" x2="1670.32" y2="279.84"/><rect class="a" x="1583.6" y="414.28" width="32.44" height="65.69"/><line class="a" x1="1599.81" y1="479.97" x2="1599.81" y2="414.28"/><path class="a" d="M1583.6,414.28s8.15-9.71,16.21-9.71,16.22,9.71,16.22,9.71"/><rect class="a" x="1722.77" y="414.28" width="32.44" height="65.69"/><line class="a" x1="1738.99" y1="479.97" x2="1738.99" y2="414.28"/><path class="a" d="M1722.77,414.28s8.16-9.71,16.22-9.71,16.22,9.71,16.22,9.71"/><circle class="a" cx="1672" cy="372.99" r="17.55"/><path class="a" d="M1652.38,435.27A21.51,21.51,0,0,1,1693,435"/><rect class="a" x="1652.4" y="435.27" width="40.71" height="66.71"/><line class="a" x1="1671.97" y1="435.27" x2="1671.97" y2="501.98"/><rect class="a" x="811.37" y="269.39" width="41.3" height="17.66"/><rect class="a" x="811.37" y="320.46" width="41.3" height="17.66"/><rect class="a" x="811.37" y="370.59" width="41.3" height="17.66"/><rect class="a" x="811.37" y="420.74" width="41.3" height="17.66"/><line class="a" x1="796.79" y1="304.7" x2="865.91" y2="304.7"/><line class="a" x1="796.79" y1="353.88" x2="865.91" y2="353.88"/><line class="a" x1="796.79" y1="404.96" x2="865.91" y2="404.96"/><line class="a" x1="796.79" y1="454.18" x2="865.91" y2="454.18"/><rect class="a" x="817.25" y="469.51" width="28.2" height="32.47"/><rect class="a" x="778.57" y="254.58" width="126.42" height="247.4"/><line class="a" x1="796.79" y1="254.58" x2="796.79" y2="501.98"/><line class="a" x1="865.91" y1="254.58" x2="865.91" y2="501.98"/><line class="a" x1="886.03" y1="254.58" x2="886.03" y2="501.98"/><rect class="a" x="796.79" y="202.65" width="89.24" height="51.93"/><line class="a" x1="796.79" y1="239.39" x2="886.03" y2="239.39"/><line class="a" x1="813.79" y1="202.65" x2="813.79" y2="239.39"/><line class="a" x1="864.48" y1="202.65" x2="864.48" y2="239.39"/><line class="a" x1="839.14" y1="202.65" x2="839.14" y2="239.39"/><line class="a" x1="826.32" y1="269.39" x2="826.32" y2="287.05"/><line class="a" x1="826.32" y1="320.46" x2="826.32" y2="338.12"/><line class="a" x1="826.32" y1="370.59" x2="826.32" y2="388.25"/><line class="a" x1="826.32" y1="420.8" x2="826.32" y2="438.46"/><rect class="a" x="775.57" y="193.25" width="130.44" height="9.4"/><polygon class="a" points="978.98 501.98 978.98 280.1 1040.12 280.1 1040.12 244.23 1124.8 244.23 1124.8 501.98 978.98 501.98"/><rect class="a" x="1009.59" y="324.07" width="28.2" height="42.44"/><line class="a" x1="999.91" y1="366.51" x2="1047.47" y2="366.51"/><rect class="a" x="1066.84" y="324.07" width="28.2" height="42.44"/><line class="a" x1="1057.16" y1="366.51" x2="1104.72" y2="366.51"/><rect class="a" x="1066.84" y="262.98" width="28.2" height="42.44"/><line class="a" x1="1057.16" y1="305.42" x2="1104.72" y2="305.42"/><rect class="a" x="1009.59" y="385.16" width="28.2" height="42.44"/><line class="a" x1="999.91" y1="427.6" x2="1047.47" y2="427.6"/><rect class="a" x="1066.84" y="385.16" width="28.2" height="42.44"/><line class="a" x1="1057.16" y1="427.6" x2="1104.72" y2="427.6"/><rect class="a" x="1009.59" y="460.1" width="37.88" height="41.88"/><line class="a" x1="1029.32" y1="501.98" x2="1029.32" y2="460.1"/><rect class="a" x="978.98" y="266.45" width="61.14" height="13.61"/><line class="a" x1="1009.55" y1="266.45" x2="1009.55" y2="280.06"/><line class="a" x1="1027.01" y1="266.45" x2="1027.01" y2="280.06"/><path class="a" d="M1137.82,491.9a5.1,5.1,0,0,0-4.82-3.44,5.29,5.29,0,0,0-.8.07,6.16,6.16,0,0,0-12.26,0,5.85,5.85,0,0,0-.6,0,7.15,7.15,0,1,0-4.53,13.52h21.92a5.1,5.1,0,0,0,1.09-10.08Z"/><path class="a" d="M991,491.9a5.1,5.1,0,0,0-4.82-3.44,5.42,5.42,0,0,0-.81.07,6.16,6.16,0,0,0-12.25,0c-.2,0-.4,0-.6,0A7.15,7.15,0,1,0,968,502h21.92A5.1,5.1,0,0,0,991,491.9Z"/><line class="a" x1="1023.69" y1="385.16" x2="1023.69" y2="427.6"/><line class="a" x1="1023.69" y1="324.07" x2="1023.69" y2="366.51"/><line class="a" x1="1080.94" y1="262.98" x2="1080.94" y2="305.42"/><line class="a" x1="1080.94" y1="324.5" x2="1080.94" y2="366.94"/><line class="a" x1="1080.94" y1="385.16" x2="1080.94" y2="427.6"/><line class="a" x1="1124.8" y1="244.23" x2="991.58" y2="244.23"/><line class="a" x1="1027.88" y1="244.33" x2="1040.12" y2="258.43"/><rect class="a" x="1057.16" y="460.34" width="46.17" height="24.54"/><path class="a" d="M2575.33,491.9a5.09,5.09,0,0,0-4.81-3.44,5.31,5.31,0,0,0-.81.07,6.16,6.16,0,0,0-12.25,0,6,6,0,0,0-.61,0,7.15,7.15,0,1,0-4.53,13.52h21.92a5.1,5.1,0,0,0,1.09-10.08Z"/><rect class="a" x="2658.69" y="484.7" width="54.74" height="17.28"/><rect class="a" x="2563.28" y="424.51" width="95.41" height="77.47"/><polygon class="a" points="2563.28 407.05 2704.64 407.05 2715.28 424.51 2552.65 424.51 2563.28 407.05"/><rect class="a" x="2577.71" y="436.1" width="26.01" height="35.89"/><line class="a" x1="2577.71" y1="454.04" x2="2603.73" y2="454.04"/><rect class="a" x="2618.54" y="454.04" width="26.11" height="47.94"/><line class="a" x1="2590.15" y1="436.1" x2="2590.15" y2="471.98"/><line class="a" x1="2669.99" y1="485.07" x2="2669.99" y2="501.98"/><line class="a" x1="2685.82" y1="485.07" x2="2685.82" y2="501.98"/><line class="a" x1="2701.65" y1="424.88" x2="2701.65" y2="501.98"/><path class="a" d="M2857,494.74a3.55,3.55,0,0,0-4-2.42,4.43,4.43,0,0,0-8.81,0l-.43,0a5.14,5.14,0,1,0-3.26,9.72h15.76a3.66,3.66,0,0,0,.78-7.24Z"/><path class="a" d="M2763.89,491.9a5.1,5.1,0,0,0-4.82-3.44,5.29,5.29,0,0,0-.8.07,6.16,6.16,0,0,0-12.26,0,5.85,5.85,0,0,0-.6,0,7.15,7.15,0,1,0-4.53,13.52h21.92a5.1,5.1,0,0,0,1.09-10.08Z"/><rect class="a" x="2752.45" y="431.92" width="95.41" height="70.06" transform="translate(5600.32 933.9) rotate(-180)"/><polygon class="a" points="2847.38 418.03 2752.46 418.03 2742.06 431.92 2857.79 431.92 2847.38 418.03"/><rect class="a" x="2812.98" y="447.22" width="22.31" height="32.17" transform="translate(5648.26 926.61) rotate(-180)"/><line class="a" x1="2835.29" y1="463.3" x2="2812.98" y2="463.3"/><rect class="a" x="2773.44" y="454.04" width="24.73" height="47.94" transform="translate(5571.6 956.02) rotate(-180)"/><line class="a" x1="2824.62" y1="447.22" x2="2824.62" y2="479.39"/><path class="a" d="M2736.16,321s6-.7,10.06,3.39c0,0,1.61-5.73,8.63-5.73"/><path class="a" d="M2666.11,304.78s6-.71,10.07,3.39c0,0,1.6-5.73,8.63-5.73"/><path class="a" d="M2768.17,304.78s6-.71,10.06,3.39c0,0,1.61-5.73,8.63-5.73"/><path class="a" d="M2708,345.06s6-.71,10.06,3.39c0,0,1.61-5.73,8.63-5.73"/><path class="a" d="M1492.88,313.78s6-.71,10.07,3.39c0,0,1.61-5.73,8.63-5.73"/><path class="a" d="M1511.21,345.06s6-.71,10.06,3.39c0,0,1.61-5.73,8.63-5.73"/><line class="a" x1="285.16" y1="501.98" x2="324.72" y2="501.98"/><line class="a" x1="346.9" y1="501.98" x2="385.46" y2="501.98"/><line class="a" x1="672.72" y1="501.98" x2="733.6" y2="501.98"/><line class="a" x1="913.66" y1="501.98" x2="945.5" y2="501.98"/><line class="a" x1="1148.84" y1="501.98" x2="1176.36" y2="501.98"/><line class="a" x1="1215.66" y1="501.98" x2="1257.16" y2="501.98"/><line class="a" x1="1466.74" y1="501.98" x2="1486.7" y2="501.98"/><line class="a" x1="1397.9" y1="501.98" x2="1417.86" y2="501.98"/><path class="a" d="M1554,438.61s.63-8.88-6.44-8.88-6.53,8.88-6.53,8.88V502"/><polygon class="a" points="1561.34 444.85 1553.98 438.49 1546.75 444.85 1561.34 444.85"/><path class="a" d="M1548.53,444.87a6.12,6.12,0,0,0-.11,1.14,5.63,5.63,0,0,0,11.25,0,5.38,5.38,0,0,0-.12-1.14"/><path class="a" d="M1525,448.29s-.54-7.53,5.45-7.53,5.53,7.53,5.53,7.53V502"/><polygon class="a" points="1518.76 453.58 1525 448.19 1531.13 453.58 1518.76 453.58"/><path class="a" d="M1529.61,453.6a4.34,4.34,0,0,1,.1,1,4.77,4.77,0,1,1-9.53,0,5,5,0,0,1,.09-1"/><line class="a" x1="1503.58" y1="501.98" x2="1549.06" y2="501.98"/><path class="a" d="M1784,438.61s-.63-8.88,6.44-8.88,6.53,8.88,6.53,8.88V502"/><polygon class="a" points="1776.67 444.85 1784.03 438.49 1791.26 444.85 1776.67 444.85"/><path class="a" d="M1789.48,444.87a6.12,6.12,0,0,1,.11,1.14,5.63,5.63,0,0,1-11.25,0,5.38,5.38,0,0,1,.12-1.14"/><path class="a" d="M1813.05,448.29s.54-7.53-5.45-7.53-5.53,7.53-5.53,7.53V502"/><polygon class="a" points="1819.25 453.58 1813.02 448.19 1806.88 453.58 1819.25 453.58"/><path class="a" d="M1808.4,453.6a4.34,4.34,0,0,0-.1,1,4.77,4.77,0,1,0,9.53,0,5,5,0,0,0-.09-1"/><line class="a" x1="1790.46" y1="501.98" x2="1820.83" y2="501.98"/><line class="a" x1="2289.55" y1="501.98" x2="2325.3" y2="501.98"/><line class="a" x1="2401.11" y1="501.98" x2="2442.85" y2="501.98"/><line class="a" x1="2469.41" y1="420.22" x2="2469.41" y2="402.14"/><polyline class="a" points="2501.73 402.14 2469.41 420.22 2469.41 501.98"/><line class="a" x1="2469.41" y1="440.35" x2="2441.33" y2="423.09"/><path class="a" d="M2414.46,420.37a27.75,27.75,0,0,0,27.75,27.75h60.43l0-.06a27.75,27.75,0,0,0,14.47-50.2A27.77,27.77,0,0,0,2500,362.1c-3.36-13.17-16.27-23-31.7-23a33.6,33.6,0,0,0-26.29,12.2,27.75,27.75,0,0,0-17.14,47.4A27.67,27.67,0,0,0,2414.46,420.37Z"/><line class="a" x1="2457.48" y1="501.98" x2="2481.92" y2="501.98"/><path class="a" d="M2961.58,494.74a3.68,3.68,0,0,0-3.47-2.48,3.8,3.8,0,0,0-.58.06,4.42,4.42,0,0,0-8.8,0c-.15,0-.29,0-.44,0A5.14,5.14,0,1,0,2945,502h15.75a3.66,3.66,0,0,0,.79-7.24Z"/><path class="a" d="M3120.18,494.74a3.67,3.67,0,0,0-3.46-2.48,3.8,3.8,0,0,0-.59.06,4.42,4.42,0,0,0-8.8,0c-.14,0-.29,0-.44,0a5.14,5.14,0,1,0-3.25,9.72h15.75a3.66,3.66,0,0,0,.79-7.24Z"/><line class="a" x1="2988.79" y1="420.96" x2="2988.79" y2="403.04"/><polyline class="a" points="3020.82 403.04 2988.79 420.96 2988.79 501.98"/><line class="a" x1="2988.79" y1="440.91" x2="2960.97" y2="423.81"/><path class="a" d="M2934.34,421.1a27.51,27.51,0,0,0,27.5,27.51h59.88l0-.07A27.5,27.5,0,0,0,3036,398.8a27.53,27.53,0,0,0-16.94-35.43c-3.33-13.05-16.13-22.78-31.42-22.78a33.29,33.29,0,0,0-26,12.09,27.5,27.5,0,0,0-17,47A27.44,27.44,0,0,0,2934.34,421.1Z"/><line class="a" x1="2912.4" y1="443.34" x2="2912.4" y2="430.37"/><polyline class="a" points="2935.58 430.37 2912.4 443.34 2912.4 501.98"/><line class="a" x1="2912.4" y1="457.78" x2="2892.26" y2="445.4"/><path class="a" d="M2873,443.44a19.9,19.9,0,0,0,19.91,19.91h43.34v-.05a19.89,19.89,0,0,0,10.37-36,19.92,19.92,0,0,0-12.26-25.65c-2.41-9.45-11.67-16.48-22.74-16.48a24.06,24.06,0,0,0-18.85,8.75,19.9,19.9,0,0,0-12.3,34A19.86,19.86,0,0,0,2873,443.44Z"/><line class="a" x1="3076.79" y1="443.34" x2="3076.79" y2="430.37"/><polyline class="a" points="3099.97 430.37 3076.79 443.34 3076.79 501.98"/><line class="a" x1="3076.79" y1="457.78" x2="3056.65" y2="445.4"/><path class="a" d="M3037.38,443.44a19.9,19.9,0,0,0,19.9,19.91h43.35l0-.05a19.9,19.9,0,0,0,10.38-36,19.92,19.92,0,0,0-12.26-25.65c-2.41-9.45-11.68-16.48-22.74-16.48a24.06,24.06,0,0,0-18.86,8.75,19.9,19.9,0,0,0-12.3,34A19.88,19.88,0,0,0,3037.38,443.44Z"/><path class="a" d="M3043.82,491.9a5.11,5.11,0,0,0-4.82-3.44,5.31,5.31,0,0,0-.81.07,6.16,6.16,0,0,0-12.25,0,6,6,0,0,0-.61,0,7.14,7.14,0,1,0-4.52,13.52h21.91a5.1,5.1,0,0,0,1.1-10.08Z"/><line class="a" x1="2868.11" y1="501.98" x2="2886.26" y2="501.98"/><line class="a" x1="2893.4" y1="501.98" x2="2934.34" y2="501.98"/><line class="a" x1="2970.76" y1="501.98" x2="3008.44" y2="501.98"/><line class="a" x1="3057.67" y1="501.98" x2="3094.9" y2="501.98"/><line class="a" x1="3132.15" y1="501.98" x2="3172.07" y2="501.98"/><path class="a" d="M2096.3,491.9a5.1,5.1,0,0,0-4.82-3.44,5.54,5.54,0,0,0-.81.07,6.16,6.16,0,0,0-12.25,0c-.2,0-.4,0-.6,0a7.15,7.15,0,1,0-4.53,13.52h21.92a5.1,5.1,0,0,0,1.09-10.08Z"/><rect class="a" x="1924.39" y="424.51" width="159.52" height="77.47"/><polygon class="a" points="1904.39 407.05 2083.91 407.05 2094.55 424.51 1893.76 424.51 1904.39 407.05"/><rect class="a" x="1938.82" y="436.1" width="26.01" height="35.89"/><line class="a" x1="1931.8" y1="471.98" x2="1972.1" y2="471.98"/><line class="a" x1="1938.82" y1="450.34" x2="1964.83" y2="450.34"/><rect class="a" x="2032.21" y="436.1" width="26.01" height="35.89"/><line class="a" x1="2025.19" y1="471.98" x2="2065.49" y2="471.98"/><line class="a" x1="2032.21" y1="450.34" x2="2058.23" y2="450.34"/><rect class="a" x="2009.51" y="366.76" width="46.07" height="29.11"/><line class="a" x1="2004.47" y1="395.88" x2="2061.04" y2="395.88"/><line class="a" x1="2009.51" y1="385.02" x2="2055.58" y2="385.02"/><rect class="a" x="1983.35" y="451.04" width="28.86" height="50.94"/><polygon class="a" points="1974.51 338.76 2087.68 338.76 2095.23 356.23 1966.97 356.23 1974.51 338.76"/><rect class="a" x="1978.96" y="356.22" width="104.27" height="50.82"/><rect class="a" x="1862.98" y="486.88" width="61.41" height="15.1"/><line class="a" x1="1913.76" y1="424.51" x2="1913.76" y2="501.98"/><line class="a" x1="745.24" y1="501.98" x2="766.85" y2="501.98"/><rect class="a" x="395.9" y="370.12" width="114.78" height="131.87"/><line class="a" x1="435.77" y1="501.98" x2="435.77" y2="370.12"/><rect class="a" x="444.32" y="378.76" width="52.29" height="30.57"/><rect class="a" x="444.32" y="423.94" width="52.29" height="30.57"/><line class="a" x1="395.9" y1="409.32" x2="435.77" y2="409.32"/><line class="a" x1="395.9" y1="454.51" x2="435.77" y2="454.51"/><line class="a" x1="626.89" y1="231.79" x2="626.89" y2="146.54"/><polyline class="a" points="510.68 369.36 510.68 273.38 472.82 273.38 472.82 369.36"/><polygon class="a" points="510.68 274.13 510.68 244.23 603.24 195.48 603.24 501.98 510.68 501.98 510.68 274.13"/><polygon class="a" points="573.91 273.38 510.68 273.38 510.68 244.23 573.91 211.03 573.91 273.38"/><rect class="a" x="510.68" y="286.48" width="63.23" height="29.9"/><rect class="a" x="510.68" y="332.41" width="63.23" height="29.9"/><rect class="a" x="510.68" y="378.34" width="63.23" height="29.9"/><rect class="a" x="510.68" y="424.28" width="63.23" height="53.97"/><rect class="a" x="603.24" y="232.55" width="44.9" height="269.43"/><line class="a" x1="429.6" y1="370.4" x2="429.6" y2="501.98"/><line class="a" x1="492.32" y1="273.61" x2="492.32" y2="195.48"/><line class="a" x1="634.31" y1="241.82" x2="634.31" y2="468.75"/><line class="a" x1="617.6" y1="241.82" x2="617.6" y2="424.28"/><path class="a" d="M656.81,494.74a3.55,3.55,0,0,0-4-2.42,4.43,4.43,0,0,0-8.81,0l-.43,0a5.14,5.14,0,1,0-3.26,9.72H656a3.66,3.66,0,0,0,.79-7.24Z"/><line class="a" x1="504.15" y1="370.4" x2="504.15" y2="501.98"/><line class="a" x1="510.68" y1="301.43" x2="472.82" y2="301.43"/><line class="a" x1="510.68" y1="347.36" x2="472.82" y2="347.36"/><circle class="a" cx="70.04" cy="208.56" r="18.67"/><circle class="a" cx="117.45" cy="206.71" r="15.25"/><circle class="a" cx="149.95" cy="234.75" r="10.78"/><circle class="a" cx="158.89" cy="267.4" r="10.78"/></svg>
