<svg xmlns="http://www.w3.org/2000/svg" viewBox="0 0 310.42 55"><defs><style>.a{fill:#6696c7;}</style></defs><title>logo</title><path class="a" d="M25,29.28a.16.16,0,0,0,.2.19,2.81,2.81,0,0,1,1.44,0,2.25,2.25,0,0,1,.49.21.16.16,0,0,0,.25-.08c.06-.25.13-.49.21-.73s.07-.23.11-.35,0-.12,0-.17.08-.13.07-.16-.09,0-.12,0l-.2,0L27.12,28a3.37,3.37,0,0,0-.71,0,5,5,0,0,0-.86.17l-.22.07a.16.16,0,0,0-.13.11C25.12,28.67,25.05,29,25,29.28Z"/><path class="a" d="M21.58,29.79a9,9,0,0,0,2.54-.08.25.25,0,0,0,.2-.19c.05-.24.11-.49.17-.73a5.54,5.54,0,0,1,.14-.55s.05-.1,0-.15a.19.19,0,0,0-.09-.11.94.94,0,0,1-.18-.36c-.06-.13-.1-.27-.15-.41s-.14-.48-.19-.72-.12-.54-.18-.81-.11-.58-.16-.87-.11-.6-.16-.9-.11-.59-.17-.89-.11-.57-.18-.85-.12-.51-.19-.77-.14-.44-.23-.65a2.73,2.73,0,0,0-.26-.51,1.14,1.14,0,0,0-.3-.32.53.53,0,0,0-.35-.1h-.06c-1.12.16-.65,5.6-.6,7,0,.91.09,1.83.15,2.75A.24.24,0,0,0,21.58,29.79Z"/><path class="a" d="M32.36,29.55A2.61,2.61,0,0,0,31.17,29a24.5,24.5,0,0,0-.88,3.47c-.17,1.05-.59,3.21.68,3.76.29.13-.29.44-.51.34-1.19-.52-1-2.25-.92-3.31a21.76,21.76,0,0,1,1-4.29.22.22,0,0,1,.12-.13,4.1,4.1,0,0,0-2.29-.61,24.59,24.59,0,0,0-.87,3.48c-.16,1-.51,3,.68,3.5.28.13-.3.42-.51.33-1.1-.49-1-2-.92-3l0-.22a5,5,0,0,1-1.65,1.05l-.39.12a1.16,1.16,0,0,0,.67.76c.14.06,0,.19-.06.23a.58.58,0,0,1-.46.07,1.42,1.42,0,0,1-.79-.87.74.74,0,0,0-.34.22c-.4.48,0,1,.38,1.31a4.36,4.36,0,0,1,1.36,3.85c-.06.41-1.11.07-1.05-.38a3.57,3.57,0,0,0-.71-2.75c-.3-.39-.75-.67-1-1.07-.78-1.14.43-1.7,1.3-2a4.44,4.44,0,0,0,2.07-1.34,2,2,0,0,0,.53-1c0-.74-.62-.45-1-.36a12,12,0,0,1-4.18.25,21.17,21.17,0,0,1,0,3,14,14,0,0,1-.53,2.65,4.87,4.87,0,0,0-.09,3,1.88,1.88,0,0,0,.12.3,4.82,4.82,0,0,0,1.75,2.14,5.35,5.35,0,0,0,4.81.65,8.4,8.4,0,0,0,4.15-2.65,9.77,9.77,0,0,0,1.68-4.83C33.82,30.31,32.36,29.55,32.36,29.55Z"/><path class="a" d="M15.18,34.15a36.58,36.58,0,0,0-3.13-6.71c-.38-.6-1-1.6-1.75-1.77-.35-.08-.65,0-.53.49.35,1.34,1,2.58,1.39,3.92a.49.49,0,0,1,0,.41c-.19,0-.31-.2-.42-.36-.46-.71-3.49-6.47-4.58-5.76S9,30.72,8.2,31,4,24.5,2.43,25.32,7,33.05,5.6,33.14,1.49,27.68.32,28.72s4.92,9.61,5.35,11.35a1.26,1.26,0,0,1,0,.72,1.44,1.44,0,0,1-1.31.76,6.9,6.9,0,0,0-1.9.38,4.1,4.1,0,0,0-1.8,1.23A2.6,2.6,0,0,0,0,44.8.63.63,0,0,0,.09,45c.15.27.52.29.8.26A13.64,13.64,0,0,0,3,44.59a6,6,0,0,1,1.7-.11,9.94,9.94,0,0,1,3.63.86,5.14,5.14,0,0,0,4.5-.51.29.29,0,0,0,.15-.21c.3-1.63,0-3.52-1.41-4.5-.57-.4.24-1,.7-.72A4.64,4.64,0,0,1,14.13,43a.31.31,0,0,0,.56.17C16.13,41.19,16.72,38.18,15.18,34.15Z"/><path class="a" d="M52.54,30.77c-.28-.5-.68-.31-.93.2l-1.45,2.92a1.46,1.46,0,0,1-.71.81c.33-2.37,1.42-4.62,1.55-7,0-.38-.07-.88-.45-.94s-.55.27-.71.55a21.4,21.4,0,0,0-1.53,3.46c-.09.26-.74,2.31-1.17,2.07-.75-.43,1.91-7.61.25-8.17s-2.59,8.72-3.63,7.72,1.23-6.81-.34-7c-1.16-.11-2,3.54-2.28,4.27-.44,1.33-.83,2.68-1.24,4l.05,0a7.91,7.91,0,0,0,3,1.22,3,3,0,0,1,1.29.29c.75.48.57,1.08,0,1.61a3.12,3.12,0,0,1-1.19.64c-.4.12-1.28,0-1.58.18-.83.49-.07,1.45,0,2.08A3.15,3.15,0,0,1,41,41.51c-.15.32-1.06.35-.86-.08a2.84,2.84,0,0,0,.1-2.43c-.1-.25-.41-.66-.36-1,.1-.62.63-.85,1.18-.94s1.92.28,2.25-.36c.67-1.32-.71-1.16-1.23-1.26a8,8,0,0,1-2.4-1,11.12,11.12,0,0,1-1,2.57c-1,1.71-2.77,3.55-2.15,5.72,1.06,3.73,8.84,5.92,13-2.56a36.52,36.52,0,0,0,2.84-6.88A3.89,3.89,0,0,0,52.54,30.77Z"/><path class="a" d="M8.25,54.94a37.85,37.85,0,0,1,11-4.32c8.46-2,17.21-.79,24.45,4.17.82.56.87-.42.26-.84a31.57,31.57,0,0,0-24.49-4.73A37.19,37.19,0,0,0,7.19,53.9c-.42.26.56,1.36,1.06,1Z"/><path class="a" d="M41.89,1.77c-5-2.59-10.52-2.27-13.54.49a7.53,7.53,0,0,1,2.28,3.55,8.73,8.73,0,0,1-2.06,7.92,15.6,15.6,0,0,0,5,4.07,16.61,16.61,0,0,0,3.77,1.4,3.64,3.64,0,0,1-1,2.09.3.3,0,0,0,.2.52,4.27,4.27,0,0,0,3.8-2.17.64.64,0,0,0,0-.07c3.63.06,6.78-1.4,8.21-4.16C50.91,11,47.9,4.88,41.89,1.77Z"/><path class="a" d="M27,6.63C25.83,2.47,20.29.41,14.65,2s-9.24,6.3-8,10.45c.74,2.6,3.18,4.37,6.28,4.95v.06A3.68,3.68,0,0,0,15.74,20a.26.26,0,0,0,.26-.41,3.16,3.16,0,0,1-.48-1.95A13.67,13.67,0,0,0,19,17.08C24.61,15.47,28.21,10.79,27,6.63Z"/><path class="a" d="M84.67,35.62a1.44,1.44,0,0,1-.44,1.08,1.39,1.39,0,0,1-1,.42,1.3,1.3,0,0,1-.83-.28,1.86,1.86,0,0,1-.58-.76L80.5,33H72.9L71.57,36.1a1.52,1.52,0,0,1-.55.75,1.35,1.35,0,0,1-.8.27,1.23,1.23,0,0,1-1.36-1.33,1.72,1.72,0,0,1,.08-.48L75.3,20a1.68,1.68,0,0,1,.61-.79,1.34,1.34,0,0,1,.92-.23,1.48,1.48,0,0,1,.85.27,1.5,1.5,0,0,1,.58.75l6.28,15A1.86,1.86,0,0,1,84.67,35.62ZM74.15,30.05h5.1l-2.58-6Z"/><path class="a" d="M96,23.76a2,2,0,0,1,1.33,1.8,1.56,1.56,0,0,1-.34,1,1,1,0,0,1-.86.42,1.76,1.76,0,0,1-.67-.11,2.72,2.72,0,0,1-.5-.31,3.93,3.93,0,0,0-.47-.32,3.57,3.57,0,0,0-.75-.23,4,4,0,0,0-.81-.1,3.85,3.85,0,0,0-3,1.19,4.42,4.42,0,0,0-1.08,3.1,4.35,4.35,0,0,0,1.1,3,3.59,3.59,0,0,0,2.8,1.21,4.27,4.27,0,0,0,1.87-.31,4.56,4.56,0,0,0,.42-.26,2.75,2.75,0,0,1,.5-.3,1.52,1.52,0,0,1,.56-.1,1.3,1.3,0,0,1,1,.41,1.53,1.53,0,0,1,.37,1,1.48,1.48,0,0,1-.72,1.15,5.54,5.54,0,0,1-1.89.85,9.56,9.56,0,0,1-2.5.32,6.5,6.5,0,0,1-3.46-.92,6.24,6.24,0,0,1-2.31-2.54,8,8,0,0,1-.81-3.61,7.71,7.71,0,0,1,.85-3.68A6.28,6.28,0,0,1,89.06,24a6.63,6.63,0,0,1,3.47-.91A7.76,7.76,0,0,1,96,23.76Z"/><path class="a" d="M111.88,23.51a1.54,1.54,0,0,1,.44,1.13v10.8a1.54,1.54,0,0,1-.44,1.11,1.58,1.58,0,0,1-2.18,0,1.62,1.62,0,0,1-.45-1.1,5.47,5.47,0,0,1-4,1.79,5.82,5.82,0,0,1-3.2-.91,6.4,6.4,0,0,1-2.26-2.51A7.88,7.88,0,0,1,99,30.18a8.12,8.12,0,0,1,.82-3.67A6.25,6.25,0,0,1,102,24a5.61,5.61,0,0,1,3.12-.91,5.86,5.86,0,0,1,2.3.45,5.75,5.75,0,0,1,1.81,1.13v0a1.51,1.51,0,0,1,.44-1.11,1.58,1.58,0,0,1,2.19,0Zm-3.55,9.72a4.5,4.5,0,0,0,1-3,4.56,4.56,0,0,0-1-3.07,3.58,3.58,0,0,0-5.38,0,4.56,4.56,0,0,0-1,3.07,4.54,4.54,0,0,0,1,3,3.62,3.62,0,0,0,5.4,0Z"/><path class="a" d="M127.79,18.53a1.53,1.53,0,0,1,.43,1.13V35.44a1.53,1.53,0,0,1-.43,1.11,1.46,1.46,0,0,1-1.1.44,1.43,1.43,0,0,1-1.08-.43,1.62,1.62,0,0,1-.45-1.1,5.47,5.47,0,0,1-4,1.79,5.79,5.79,0,0,1-3.19-.91,6.33,6.33,0,0,1-2.26-2.51,7.88,7.88,0,0,1-.83-3.65,8,8,0,0,1,.82-3.67A6.22,6.22,0,0,1,117.92,24a5.66,5.66,0,0,1,3.13-.91,6.17,6.17,0,0,1,4.11,1.58v-5a1.53,1.53,0,0,1,.43-1.11,1.47,1.47,0,0,1,1.1-.45A1.53,1.53,0,0,1,127.79,18.53Zm-3.55,14.7a4.5,4.5,0,0,0,1.05-3,4.56,4.56,0,0,0-1.05-3.07,3.59,3.59,0,0,0-5.39,0,4.55,4.55,0,0,0-1,3.07,4.54,4.54,0,0,0,1,3,3.37,3.37,0,0,0,2.69,1.21A3.41,3.41,0,0,0,124.24,33.23Z"/><path class="a" d="M143.31,30.84a1.58,1.58,0,0,1-1.07.38h-8.43a3.9,3.9,0,0,0,3.89,3.22,5.42,5.42,0,0,0,1.63-.19,4.13,4.13,0,0,0,.93-.41l.47-.29a1.89,1.89,0,0,1,.87-.23,1.26,1.26,0,0,1,.92.38,1.2,1.2,0,0,1,.38.89,1.6,1.6,0,0,1-.71,1.26,6.15,6.15,0,0,1-1.92,1,7.5,7.5,0,0,1-2.42.41,7.58,7.58,0,0,1-3.74-.89,6.24,6.24,0,0,1-2.47-2.47,7.23,7.23,0,0,1-.86-3.53,7.76,7.76,0,0,1,.92-3.86A6.52,6.52,0,0,1,134.12,24a6.24,6.24,0,0,1,3.22-.88,6,6,0,0,1,3.18.92,6.83,6.83,0,0,1,2.38,2.48,6.59,6.59,0,0,1,.9,3.37A1.31,1.31,0,0,1,143.31,30.84Zm-9.47-2.17h6.69v-.18a2.66,2.66,0,0,0-1.05-1.84,3.3,3.3,0,0,0-2.14-.76A3.17,3.17,0,0,0,133.84,28.67Z"/><path class="a" d="M165.6,24.62a8,8,0,0,1,1,4.28v6.54a1.53,1.53,0,0,1-.43,1.11,1.59,1.59,0,0,1-2.2,0,1.53,1.53,0,0,1-.43-1.11V28.9a4,4,0,0,0-.55-2.21,2.19,2.19,0,0,0-1.93-.8,2.9,2.9,0,0,0-2.23.85A3,3,0,0,0,158,28.9v6.54a1.53,1.53,0,0,1-.43,1.11,1.59,1.59,0,0,1-2.2,0,1.53,1.53,0,0,1-.43-1.11V28.9a3.87,3.87,0,0,0-.55-2.21,2.19,2.19,0,0,0-1.93-.8,2.9,2.9,0,0,0-2.23.85,3,3,0,0,0-.81,2.16v6.54a1.53,1.53,0,0,1-.43,1.11,1.59,1.59,0,0,1-2.2,0,1.53,1.53,0,0,1-.43-1.11V24.89a1.53,1.53,0,0,1,.43-1.11,1.59,1.59,0,0,1,2.2,0,1.53,1.53,0,0,1,.43,1.11v.41a6.31,6.31,0,0,1,1.75-1.57,4.48,4.48,0,0,1,2.36-.65,3.88,3.88,0,0,1,4.12,2.81A6,6,0,0,1,159.41,24a4.44,4.44,0,0,1,2.69-.87A3.8,3.8,0,0,1,165.6,24.62Z"/><path class="a" d="M170,21.39a1.17,1.17,0,0,1-.35-1v-.49a1.14,1.14,0,0,1,.38-1,2.86,2.86,0,0,1,2.47,0,1.19,1.19,0,0,1,.36,1v.49a1.17,1.17,0,0,1-.37,1,2.2,2.2,0,0,1-1.26.27A2,2,0,0,1,170,21.39Zm2.35,15.16a1.58,1.58,0,0,1-2.19,0,1.54,1.54,0,0,1-.44-1.11V24.89a1.54,1.54,0,0,1,.44-1.11,1.58,1.58,0,0,1,2.19,0,1.54,1.54,0,0,1,.44,1.11V35.44A1.54,1.54,0,0,1,172.34,36.55Z"/><path class="a" d="M188.07,23.51a1.53,1.53,0,0,1,.43,1.13v10.8a1.53,1.53,0,0,1-.43,1.11A1.46,1.46,0,0,1,187,37a1.43,1.43,0,0,1-1.08-.43,1.62,1.62,0,0,1-.45-1.1,5.47,5.47,0,0,1-4,1.79,5.79,5.79,0,0,1-3.19-.91A6.33,6.33,0,0,1,176,33.83a7.88,7.88,0,0,1-.83-3.65,8,8,0,0,1,.82-3.67A6.22,6.22,0,0,1,178.2,24a5.66,5.66,0,0,1,3.13-.91,6.17,6.17,0,0,1,4.11,1.58v0a1.5,1.5,0,0,1,.43-1.11,1.47,1.47,0,0,1,1.1-.45A1.49,1.49,0,0,1,188.07,23.51Zm-3.55,9.72a4.5,4.5,0,0,0,1-3,4.56,4.56,0,0,0-1-3.07,3.59,3.59,0,0,0-5.39,0,4.55,4.55,0,0,0-1,3.07,4.54,4.54,0,0,0,1,3,3.37,3.37,0,0,0,2.69,1.21A3.41,3.41,0,0,0,184.52,33.23Z"/><path class="a" d="M215.83,19.54a1.46,1.46,0,0,1,.48,1.11V35.44a1.54,1.54,0,0,1-.44,1.11,1.51,1.51,0,0,1-1.15.44,1.6,1.6,0,0,1-1.16-.43,1.48,1.48,0,0,1-.44-1.12V25.15l-4.22,6.43a2.11,2.11,0,0,1-.58.5,1.26,1.26,0,0,1-.69.17,1.18,1.18,0,0,1-.67-.17,2,2,0,0,1-.58-.5l-4.22-6.66V35.44a1.53,1.53,0,0,1-.41,1.12,1.39,1.39,0,0,1-1.07.43,1.37,1.37,0,0,1-1.05-.44,1.59,1.59,0,0,1-.4-1.11V20.65a1.44,1.44,0,0,1,.47-1.09,1.54,1.54,0,0,1,1.13-.46,1.65,1.65,0,0,1,.77.19,1.46,1.46,0,0,1,.59.5l5.56,8.55,5.72-8.55a1.56,1.56,0,0,1,.55-.5,1.42,1.42,0,0,1,.7-.19A1.57,1.57,0,0,1,215.83,19.54Z"/><path class="a" d="M231.11,23.78a1.54,1.54,0,0,1,.44,1.11v6.49A5.92,5.92,0,0,1,230,35.69a5.77,5.77,0,0,1-4.33,1.56,5.71,5.71,0,0,1-4.31-1.56,5.91,5.91,0,0,1-1.51-4.31V24.89a1.57,1.57,0,0,1,.43-1.11,1.46,1.46,0,0,1,1.1-.44,1.45,1.45,0,0,1,1.1.44,1.53,1.53,0,0,1,.43,1.11v6.49a3.32,3.32,0,0,0,.69,2.31,2.68,2.68,0,0,0,2.07.75,2.72,2.72,0,0,0,2.1-.75,3.32,3.32,0,0,0,.69-2.31V24.89a1.53,1.53,0,0,1,.43-1.11,1.45,1.45,0,0,1,1.1-.44A1.43,1.43,0,0,1,231.11,23.78Z"/><path class="a" d="M245.77,24.62a7.9,7.9,0,0,1,1,4.28v6.54a1.54,1.54,0,0,1-.44,1.11,1.58,1.58,0,0,1-2.19,0,1.54,1.54,0,0,1-.44-1.11V28.9a3.64,3.64,0,0,0-.59-2.21,2.34,2.34,0,0,0-2-.8,3.14,3.14,0,0,0-2.33.85,3,3,0,0,0-.84,2.16v6.54a1.53,1.53,0,0,1-.43,1.11,1.6,1.6,0,0,1-2.2,0,1.53,1.53,0,0,1-.43-1.11V24.89a1.53,1.53,0,0,1,.43-1.11,1.59,1.59,0,0,1,2.2,0,1.53,1.53,0,0,1,.43,1.11v.44a6.2,6.2,0,0,1,1.8-1.59,4.68,4.68,0,0,1,2.44-.66C243.91,23.08,245.11,23.59,245.77,24.62Z"/><path class="a" d="M250.19,21.39a1.17,1.17,0,0,1-.36-1v-.49a1.17,1.17,0,0,1,.38-1,2.11,2.11,0,0,1,1.23-.28,2.08,2.08,0,0,1,1.25.28,1.19,1.19,0,0,1,.36,1v.49a1.2,1.2,0,0,1-.37,1,2.24,2.24,0,0,1-1.27.27A2,2,0,0,1,250.19,21.39Zm2.35,15.16a1.6,1.6,0,0,1-2.2,0,1.53,1.53,0,0,1-.43-1.11V24.89a1.53,1.53,0,0,1,.43-1.11,1.59,1.59,0,0,1,2.2,0,1.53,1.53,0,0,1,.43,1.11V35.44A1.53,1.53,0,0,1,252.54,36.55Z"/><path class="a" d="M265.56,23.76a2,2,0,0,1,1.33,1.8,1.56,1.56,0,0,1-.34,1,1.05,1.05,0,0,1-.87.42,1.75,1.75,0,0,1-.66-.11,2.42,2.42,0,0,1-.5-.31,3.93,3.93,0,0,0-.47-.32,3.57,3.57,0,0,0-.75-.23,4,4,0,0,0-.81-.1,3.85,3.85,0,0,0-3,1.19,4.42,4.42,0,0,0-1.08,3.1,4.35,4.35,0,0,0,1.1,3,3.59,3.59,0,0,0,2.8,1.21,4.27,4.27,0,0,0,1.87-.31,4.56,4.56,0,0,0,.42-.26,2.75,2.75,0,0,1,.5-.3,1.52,1.52,0,0,1,.56-.1,1.32,1.32,0,0,1,1,.41,1.53,1.53,0,0,1,.37,1,1.48,1.48,0,0,1-.72,1.15,5.54,5.54,0,0,1-1.89.85,9.56,9.56,0,0,1-2.5.32,6.5,6.5,0,0,1-3.46-.92,6.24,6.24,0,0,1-2.31-2.54,8,8,0,0,1-.82-3.61,7.72,7.72,0,0,1,.86-3.68A6.28,6.28,0,0,1,258.59,24a6.63,6.63,0,0,1,3.47-.91A7.76,7.76,0,0,1,265.56,23.76Z"/><path class="a" d="M269.36,21.39a1.17,1.17,0,0,1-.36-1v-.49a1.15,1.15,0,0,1,.39-1,2.86,2.86,0,0,1,2.47,0,1.19,1.19,0,0,1,.36,1v.49a1.17,1.17,0,0,1-.37,1,2.22,2.22,0,0,1-1.26.27A2,2,0,0,1,269.36,21.39Zm2.35,15.16a1.45,1.45,0,0,1-1.1.44,1.43,1.43,0,0,1-1.09-.44,1.54,1.54,0,0,1-.44-1.11V24.89a1.54,1.54,0,0,1,.44-1.11,1.43,1.43,0,0,1,1.09-.44,1.45,1.45,0,0,1,1.1.44,1.53,1.53,0,0,1,.43,1.11V35.44A1.53,1.53,0,0,1,271.71,36.55Z"/><path class="a" d="M285.55,24a6.4,6.4,0,0,1,2.26,2.51,7.88,7.88,0,0,1,.83,3.65,8,8,0,0,1-.82,3.67,6.22,6.22,0,0,1-2.23,2.52,5.66,5.66,0,0,1-3.13.91,5.48,5.48,0,0,1-2.31-.5,6,6,0,0,1-1.8-1.21v5a1.51,1.51,0,0,1-.44,1.11,1.43,1.43,0,0,1-1.09.45,1.48,1.48,0,0,1-1.1-.43,1.54,1.54,0,0,1-.44-1.13V24.89a1.54,1.54,0,0,1,.44-1.11,1.45,1.45,0,0,1,1.1-.44,1.43,1.43,0,0,1,1.09.44,1.54,1.54,0,0,1,.44,1.11V25a5.43,5.43,0,0,1,1.71-1.34,4.92,4.92,0,0,1,2.3-.57A5.79,5.79,0,0,1,285.55,24Zm-.89,9.23a4.6,4.6,0,0,0,1-3.07,4.54,4.54,0,0,0-1-3,3.62,3.62,0,0,0-5.4,0,4.5,4.5,0,0,0-1,3,4.56,4.56,0,0,0,1,3.07,3.59,3.59,0,0,0,5.39,0Z"/><path class="a" d="M303.34,23.51a1.54,1.54,0,0,1,.44,1.13v10.8a1.54,1.54,0,0,1-.44,1.11,1.58,1.58,0,0,1-2.18,0,1.62,1.62,0,0,1-.45-1.1,5.47,5.47,0,0,1-4,1.79,5.82,5.82,0,0,1-3.2-.91,6.4,6.4,0,0,1-2.26-2.51,7.88,7.88,0,0,1-.82-3.65,8.11,8.11,0,0,1,.81-3.67A6.25,6.25,0,0,1,293.48,24a5.61,5.61,0,0,1,3.12-.91,5.86,5.86,0,0,1,2.3.45,5.75,5.75,0,0,1,1.81,1.13v0a1.51,1.51,0,0,1,.44-1.11,1.58,1.58,0,0,1,2.19,0Zm-3.54,9.72a4.55,4.55,0,0,0,1-3,4.6,4.6,0,0,0-1-3.07,3.59,3.59,0,0,0-5.39,0,4.56,4.56,0,0,0-1.05,3.07,4.55,4.55,0,0,0,1,3,3.34,3.34,0,0,0,2.69,1.21A3.41,3.41,0,0,0,299.8,33.23Z"/><path class="a" d="M310,36.55a1.5,1.5,0,0,1-1.11.44,1.41,1.41,0,0,1-1.07-.44,1.54,1.54,0,0,1-.44-1.11V19.66a1.54,1.54,0,0,1,1.56-1.56,1.44,1.44,0,0,1,1.07.45,1.54,1.54,0,0,1,.44,1.11V35.44A1.51,1.51,0,0,1,310,36.55Z"/></svg>