<svg xmlns="http://www.w3.org/2000/svg" viewBox="0 0 409.05 200"><defs><style>.a{fill:#ffc216;}.b{fill:#f6921e;}.c{fill:#077bbe;}.d{fill:#0050a3;}.e{fill:#0050a2;}</style></defs><title>logo-full</title><path class="a" d="M207.74,80.65a.44.44,0,0,0,.53.52,7.85,7.85,0,0,1,4-.11,5.09,5.09,0,0,1,1.37.59.45.45,0,0,0,.67-.24c.18-.67.38-1.33.58-2l.3-1c.05-.16.08-.32.13-.47s.21-.36.18-.43-.25-.1-.32-.12-.38-.07-.57-.11a9.62,9.62,0,0,0-1-.15,10.48,10.48,0,0,0-1.94,0,12.16,12.16,0,0,0-2.39.46l-.61.18a.44.44,0,0,0-.34.32C208.12,79,207.93,79.8,207.74,80.65Z"/><path class="a" d="M198.38,82.05a24.8,24.8,0,0,0,7-.21.7.7,0,0,0,.54-.53c.14-.68.3-1.35.46-2,.13-.51.24-1,.39-1.51,0-.14.14-.28.12-.43s-.15-.21-.24-.3a3,3,0,0,1-.52-1c-.15-.38-.27-.76-.39-1.15-.21-.64-.38-1.3-.54-2s-.34-1.49-.49-2.24-.3-1.6-.45-2.4-.29-1.65-.44-2.47-.3-1.64-.46-2.46-.31-1.56-.49-2.33-.33-1.42-.54-2.12a16.57,16.57,0,0,0-.61-1.8,8,8,0,0,0-.72-1.39,3.06,3.06,0,0,0-.83-.89,1.65,1.65,0,0,0-1-.28l-.15,0c-3.1.46-1.79,15.44-1.67,19.22.08,2.53.26,5.06.41,7.58A.68.68,0,0,0,198.38,82.05Z"/><path class="a" d="M228.07,81.38a7.24,7.24,0,0,0-3.29-1.47,66.75,66.75,0,0,0-2.41,9.55c-.49,2.9-1.63,8.84,1.85,10.36.81.36-.78,1.21-1.4.94-3.29-1.43-2.86-6.21-2.53-9.12a60.21,60.21,0,0,1,2.79-11.83.64.64,0,0,1,.31-.36,11.42,11.42,0,0,0-6.3-1.68,67.85,67.85,0,0,0-2.4,9.61c-.43,2.75-1.39,8.19,1.89,9.64.77.34-.85,1.14-1.41.89-3-1.34-2.8-5.49-2.53-8.25,0-.21.05-.41.07-.61a13.7,13.7,0,0,1-4.55,2.9,11,11,0,0,1-1.06.32,3.26,3.26,0,0,0,1.84,2.1c.4.15,0,.51-.17.63a1.6,1.6,0,0,1-1.26.18,3.81,3.81,0,0,1-2.16-2.38,2.33,2.33,0,0,0-1,.59c-1.09,1.34.1,2.65,1.05,3.61a12.07,12.07,0,0,1,3.75,10.6c-.17,1.13-3.07.21-2.88-1a9.81,9.81,0,0,0-2-7.56c-.83-1.1-2.08-1.86-2.85-3-2.15-3.13,1.18-4.68,3.59-5.5a12.34,12.34,0,0,0,5.71-3.69c.5-.63,1.45-1.8,1.44-2.67,0-2-1.71-1.24-2.84-1a32.55,32.55,0,0,1-11.5.68,62.64,62.64,0,0,1-.08,8.22,38.72,38.72,0,0,1-1.47,7.3,13.45,13.45,0,0,0-.24,8.11c.09.28.2.56.31.84a13.34,13.34,0,0,0,4.83,5.88c4,2.71,8.33,3.28,13.26,1.81,4.23-1.26,8.81-3.89,11.42-7.31,3-3.88,4-8.53,4.64-13.3C232.08,83.48,228.07,81.38,228.07,81.38Z"/><path class="b" d="M180.73,94.05c-2.41-6.29-4.94-12.78-8.6-18.47-1.06-1.66-2.7-4.4-4.83-4.88-1-.22-1.8.1-1.47,1.36,1,3.7,2.84,7.1,3.85,10.79a1.29,1.29,0,0,1-.05,1.12c-.51-.06-.86-.54-1.14-1-1.27-2-9.61-17.84-12.64-15.87-3.19,2.1,7.92,17.47,5.66,18.19s-11.7-17.85-15.89-15.57S158.31,91,154.36,91.27,143,76.23,139.82,79.1s13.53,26.47,14.72,31.26a3.48,3.48,0,0,1,0,2c-.51,1.47-2.19,2-3.59,2.1a19.66,19.66,0,0,0-5.25,1,11.59,11.59,0,0,0-4.95,3.41c-.79,1-2,3-1.79,4.5a1.67,1.67,0,0,0,.22.65c.42.74,1.44.77,2.2.71,2-.16,3.76-1.46,5.69-1.93a17.17,17.17,0,0,1,4.69-.32,27.94,27.94,0,0,1,10,2.37c3.56,1.52,8.28,1,12.39-1.39a.86.86,0,0,0,.41-.59c.82-4.47,0-9.68-3.87-12.4-1.58-1.09.64-2.84,1.91-2a12.76,12.76,0,0,1,5.24,9.76.86.86,0,0,0,1.54.47C183.34,113.45,185,105.15,180.73,94.05Z"/><path class="c" d="M283.65,84.75c-.77-1.39-1.88-.86-2.58.55q-2,4-4,8.06a4,4,0,0,1-1.95,2.22c.91-6.55,3.93-12.72,4.29-19.32.06-1.05-.21-2.42-1.25-2.57-.86-.13-1.52.73-2,1.49A58.77,58.77,0,0,0,272,84.71c-.26.74-2,6.39-3.22,5.71-2.08-1.19,5.25-21,.68-22.51s-7.12,24-10,21.27,3.41-18.75-.92-19.16c-3.2-.31-5.63,9.74-6.29,11.74-1.21,3.67-2.27,7.4-3.41,11.09l.15.06a21.91,21.91,0,0,0,8.14,3.34,9.06,9.06,0,0,1,3.56.8c2.07,1.32,1.58,3-.08,4.46a8.86,8.86,0,0,1-3.27,1.75c-1.12.34-3.55,0-4.37.51-2.28,1.34-.2,4,0,5.72a8.89,8.89,0,0,1-1.07,4.85c-.42.87-2.94,1-2.37-.24a7.86,7.86,0,0,0,.26-6.68c-.28-.7-1.11-1.82-1-2.69.27-1.73,1.73-2.36,3.24-2.59s5.3.76,6.19-1c1.85-3.65-1.95-3.2-3.38-3.49a22.09,22.09,0,0,1-6.62-2.76,31.08,31.08,0,0,1-2.71,7.1c-2.86,4.7-7.63,9.76-5.93,15.75,2.92,10.28,24.35,16.3,35.93-7,3-6.07,6.07-12.36,7.8-19C283.79,89.8,284.72,86.7,283.65,84.75Z"/><path class="d" d="M161.66,151.33c8.59-5.4,20-9.51,30.3-11.92,23.3-5.44,47.39-2.17,67.32,11.49,2.26,1.55,2.41-1.15.74-2.3-20-13.7-43.83-17.85-67.47-13-11.66,2.37-23.67,6.51-33.81,12.89-1.16.73,1.55,3.74,2.92,2.88Z"/><path class="d" d="M254.31,4.89c-13.81-7.14-29-6.26-37.29,1.32A20.76,20.76,0,0,1,223.28,16c2.11,7.36-.23,15.21-5.67,21.8A42.89,42.89,0,0,0,231.49,49a44.27,44.27,0,0,0,10.39,3.84,10,10,0,0,1-2.72,5.76.83.83,0,0,0,.56,1.45,11.73,11.73,0,0,0,10.45-6,.85.85,0,0,0,.06-.17c10,.14,18.68-3.87,22.62-11.47C279.15,30.25,270.85,13.43,254.31,4.89Z"/><path class="d" d="M213.35,18.26C210.07,6.81,194.82,1.14,179.29,5.59s-25.46,17.34-22.18,28.79c2,7.14,8.75,12,17.28,13.63,0,.05,0,.1,0,.15A10.18,10.18,0,0,0,182.28,55,.73.73,0,0,0,183,53.9a8.62,8.62,0,0,1-1.33-5.36,38.59,38.59,0,0,0,9.49-1.49C206.7,42.6,216.63,29.71,213.35,18.26Z"/><path class="e" d="M26.76,189a2.46,2.46,0,0,1-.73,1.84,2.37,2.37,0,0,1-1.69.71,2.22,2.22,0,0,1-1.4-.48,3.06,3.06,0,0,1-1-1.29l-2.24-5.24H6.83l-2.25,5.28a2.6,2.6,0,0,1-.93,1.27,2.21,2.21,0,0,1-1.36.46A2.25,2.25,0,0,1,.58,191,2.25,2.25,0,0,1,0,189.32a2.74,2.74,0,0,1,.13-.82L10.9,162.64a2.91,2.91,0,0,1,1-1.34,2.35,2.35,0,0,1,1.56-.39,2.59,2.59,0,0,1,2.42,1.73L26.55,188A3,3,0,0,1,26.76,189ZM9,179.59H17.6l-4.37-10.12Z"/><path class="e" d="M46,168.93c1.5.77,2.25,1.78,2.25,3a2.65,2.65,0,0,1-.56,1.67,1.81,1.81,0,0,1-1.47.71,2.8,2.8,0,0,1-1.13-.19,4.79,4.79,0,0,1-.84-.52,5.12,5.12,0,0,0-.8-.54,4.93,4.93,0,0,0-1.27-.39,7,7,0,0,0-1.37-.18,6.55,6.55,0,0,0-5.08,2,8.28,8.28,0,0,0,0,10.42A6.13,6.13,0,0,0,40.51,187a7.31,7.31,0,0,0,3.16-.52,7.24,7.24,0,0,0,.71-.45,4.61,4.61,0,0,1,.84-.5,2.29,2.29,0,0,1,1-.17,2.16,2.16,0,0,1,1.7.69,2.41,2.41,0,0,1-.58,3.72,9.52,9.52,0,0,1-3.2,1.44,16.15,16.15,0,0,1-4.24.55A10.94,10.94,0,0,1,34,190.23a10.5,10.5,0,0,1-3.91-4.3,13.43,13.43,0,0,1-1.38-6.12,13,13,0,0,1,1.45-6.23,10.69,10.69,0,0,1,4-4.26,11.36,11.36,0,0,1,5.88-1.53A13.14,13.14,0,0,1,46,168.93Z"/><path class="e" d="M72.85,168.52a2.59,2.59,0,0,1,.74,1.91v18.29a2.6,2.6,0,0,1-.74,1.88,2.49,2.49,0,0,1-1.86.75,2.42,2.42,0,0,1-1.83-.73,2.71,2.71,0,0,1-.76-1.86,8.89,8.89,0,0,1-2.92,2.14,8.78,8.78,0,0,1-3.87.89,9.89,9.89,0,0,1-5.4-1.54A10.7,10.7,0,0,1,52.38,186a13.21,13.21,0,0,1-1.4-6.18,13.63,13.63,0,0,1,1.38-6.21,10.65,10.65,0,0,1,3.78-4.28,9.67,9.67,0,0,1,5.3-1.53,9.92,9.92,0,0,1,3.89.76,10.15,10.15,0,0,1,3.07,1.92v0a2.58,2.58,0,0,1,.73-1.88,2.47,2.47,0,0,1,1.86-.76A2.52,2.52,0,0,1,72.85,168.52Zm-6,16.46a8.43,8.43,0,0,0,0-10.36,6,6,0,0,0-9.12,0,8.5,8.5,0,0,0,0,10.36,6.12,6.12,0,0,0,9.14,0Z"/><path class="e" d="M99.79,160.09a2.59,2.59,0,0,1,.73,1.91v26.72a2.6,2.6,0,0,1-.73,1.88,2.49,2.49,0,0,1-1.86.75,2.46,2.46,0,0,1-1.84-.73,2.75,2.75,0,0,1-.76-1.86,9,9,0,0,1-2.91,2.14,8.85,8.85,0,0,1-3.87.89,10,10,0,0,1-5.41-1.54A10.68,10.68,0,0,1,79.32,186a13.21,13.21,0,0,1-1.41-6.18,13.63,13.63,0,0,1,1.38-6.21,10.75,10.75,0,0,1,3.79-4.28,9.63,9.63,0,0,1,5.29-1.53,10.42,10.42,0,0,1,7,2.68V162a2.63,2.63,0,0,1,.74-1.89,2.71,2.71,0,0,1,3.72,0Zm-6,24.89a8.46,8.46,0,0,0,0-10.36,6,6,0,0,0-9.12,0,7.66,7.66,0,0,0-1.78,5.19A7.74,7.74,0,0,0,84.63,185a6.13,6.13,0,0,0,9.15,0Z"/><path class="e" d="M126.08,180.93a2.73,2.73,0,0,1-1.82.65H110a6.53,6.53,0,0,0,2.38,4,6.63,6.63,0,0,0,4.19,1.45,9.16,9.16,0,0,0,2.77-.33,6.81,6.81,0,0,0,1.58-.69c.39-.24.65-.41.8-.49a3.3,3.3,0,0,1,1.47-.39,2.09,2.09,0,0,1,1.55.65,2,2,0,0,1,.65,1.51,2.7,2.7,0,0,1-1.21,2.12,10.32,10.32,0,0,1-3.24,1.68,13.31,13.31,0,0,1-10.44-.82,10.59,10.59,0,0,1-4.17-4.17,12.17,12.17,0,0,1-1.47-6,13.25,13.25,0,0,1,1.55-6.53,11.14,11.14,0,0,1,4.11-4.3,10.67,10.67,0,0,1,5.45-1.49,10.09,10.09,0,0,1,5.38,1.56,11.52,11.52,0,0,1,4,4.19,11.27,11.27,0,0,1,1.52,5.71A2.24,2.24,0,0,1,126.08,180.93Zm-16-3.67h11.33V177a4.44,4.44,0,0,0-1.77-3.12,5.65,5.65,0,0,0-3.63-1.3C112.61,172.54,110.64,174.12,110,177.26Z"/><path class="e" d="M163.82,170.4a13.56,13.56,0,0,1,1.64,7.25v11.07a2.6,2.6,0,0,1-.73,1.88,2.68,2.68,0,0,1-3.72,0,2.6,2.6,0,0,1-.74-1.88V177.65a6.53,6.53,0,0,0-.93-3.74,3.65,3.65,0,0,0-3.26-1.37A5,5,0,0,0,152.3,174a5.14,5.14,0,0,0-1.36,3.66v11.07a2.6,2.6,0,0,1-.74,1.88,2.68,2.68,0,0,1-3.72,0,2.6,2.6,0,0,1-.73-1.88V177.65a6.53,6.53,0,0,0-.93-3.74,3.67,3.67,0,0,0-3.27-1.37,5,5,0,0,0-3.78,1.45,5.14,5.14,0,0,0-1.36,3.66v11.07a2.6,2.6,0,0,1-.74,1.88,2.68,2.68,0,0,1-3.72,0,2.6,2.6,0,0,1-.73-1.88V170.86A2.58,2.58,0,0,1,132,169a2.66,2.66,0,0,1,3.72,0,2.59,2.59,0,0,1,.74,1.88v.69a10.57,10.57,0,0,1,3-2.66,7.54,7.54,0,0,1,4-1.1q5.44,0,7,4.75a10.05,10.05,0,0,1,3-3.28,7.53,7.53,0,0,1,4.56-1.47Q162.18,167.79,163.82,170.4Z"/><path class="e" d="M171.26,164.94a2,2,0,0,1-.61-1.69v-.82a2,2,0,0,1,.65-1.69,4.9,4.9,0,0,1,4.19,0,2,2,0,0,1,.61,1.69v.82a2,2,0,0,1-.63,1.71,3.8,3.8,0,0,1-2.14.45A3.47,3.47,0,0,1,171.26,164.94Zm4,25.66a2.67,2.67,0,0,1-3.71,0,2.6,2.6,0,0,1-.74-1.88V170.86a2.59,2.59,0,0,1,.74-1.88,2.64,2.64,0,0,1,3.71,0,2.59,2.59,0,0,1,.74,1.88v17.86A2.6,2.6,0,0,1,175.23,190.6Z"/><path class="e" d="M201.87,168.52a2.59,2.59,0,0,1,.73,1.91v18.29a2.6,2.6,0,0,1-.73,1.88,2.49,2.49,0,0,1-1.86.75,2.46,2.46,0,0,1-1.84-.73,2.75,2.75,0,0,1-.76-1.86,9,9,0,0,1-2.91,2.14,8.85,8.85,0,0,1-3.87.89,10,10,0,0,1-5.41-1.54,10.78,10.78,0,0,1-3.83-4.26,13.33,13.33,0,0,1-1.4-6.18,13.63,13.63,0,0,1,1.38-6.21,10.75,10.75,0,0,1,3.79-4.28,9.63,9.63,0,0,1,5.29-1.53,9.89,9.89,0,0,1,3.89.76,10,10,0,0,1,3.07,1.92v0a2.59,2.59,0,0,1,.74-1.88,2.47,2.47,0,0,1,1.86-.76A2.52,2.52,0,0,1,201.87,168.52Zm-6,16.46a8.46,8.46,0,0,0,0-10.36,6,6,0,0,0-9.13,0,8.5,8.5,0,0,0,0,10.36,5.74,5.74,0,0,0,4.56,2.05A5.8,5.8,0,0,0,195.86,185Z"/><path class="e" d="M248.89,161.8a2.5,2.5,0,0,1,.8,1.88v25a2.55,2.55,0,0,1-2.68,2.63,2.7,2.7,0,0,1-2-.73,2.52,2.52,0,0,1-.76-1.9V171.29l-7.13,10.9a3.82,3.82,0,0,1-1,.84,1.94,1.94,0,0,1-1.16.28,1.9,1.9,0,0,1-1.13-.28,3.78,3.78,0,0,1-1-.84l-7.14-11.29v17.82a2.68,2.68,0,0,1-.69,1.9,2.37,2.37,0,0,1-1.81.73,2.3,2.3,0,0,1-1.78-.75,2.69,2.69,0,0,1-.69-1.88v-25a2.52,2.52,0,0,1,.8-1.86,2.64,2.64,0,0,1,1.92-.78,2.82,2.82,0,0,1,1.3.33,2.53,2.53,0,0,1,1,.84l9.42,14.49,9.69-14.49a2.61,2.61,0,0,1,.93-.84A2.38,2.38,0,0,1,247,161,2.68,2.68,0,0,1,248.89,161.8Z"/><path class="e" d="M274.76,169a2.59,2.59,0,0,1,.74,1.88v11a10,10,0,0,1-2.58,7.31q-2.57,2.64-7.32,2.64c-3.18,0-5.61-.88-7.31-2.64a10.09,10.09,0,0,1-2.55-7.31v-11a2.58,2.58,0,0,1,.73-1.88,2.66,2.66,0,0,1,3.72,0,2.59,2.59,0,0,1,.74,1.88v11a5.67,5.67,0,0,0,1.16,3.91,5.49,5.49,0,0,0,7.05,0,5.62,5.62,0,0,0,1.17-3.91v-11A2.58,2.58,0,0,1,271,169a2.66,2.66,0,0,1,3.72,0Z"/><path class="e" d="M299.58,170.4a13.36,13.36,0,0,1,1.69,7.25v11.07a2.6,2.6,0,0,1-.74,1.88,2.68,2.68,0,0,1-3.72,0,2.6,2.6,0,0,1-.73-1.88V177.65a6.15,6.15,0,0,0-1-3.74,3.94,3.94,0,0,0-3.41-1.37,5.29,5.29,0,0,0-3.94,1.45,5,5,0,0,0-1.42,3.66v11.07a2.6,2.6,0,0,1-.74,1.88,2.68,2.68,0,0,1-3.72,0,2.6,2.6,0,0,1-.73-1.88V170.86a2.58,2.58,0,0,1,.73-1.88,2.66,2.66,0,0,1,3.72,0,2.59,2.59,0,0,1,.74,1.88v.73a10.47,10.47,0,0,1,3-2.68,7.91,7.91,0,0,1,4.13-1.12C296.42,167.79,298.46,168.66,299.58,170.4Z"/><path class="e" d="M307.06,164.94a2,2,0,0,1-.61-1.69v-.82a2,2,0,0,1,.65-1.69,4.93,4.93,0,0,1,4.2,0,2,2,0,0,1,.6,1.69v.82a2,2,0,0,1-.63,1.71,3.78,3.78,0,0,1-2.14.45A3.47,3.47,0,0,1,307.06,164.94Zm4,25.66a2.68,2.68,0,0,1-3.72,0,2.6,2.6,0,0,1-.74-1.88V170.86a2.59,2.59,0,0,1,.74-1.88,2.66,2.66,0,0,1,3.72,0,2.58,2.58,0,0,1,.73,1.88v17.86A2.6,2.6,0,0,1,311,190.6Z"/><path class="e" d="M333.09,168.93c1.5.77,2.24,1.78,2.24,3a2.59,2.59,0,0,1-.56,1.67,1.78,1.78,0,0,1-1.47.71,2.75,2.75,0,0,1-1.12-.19,4.16,4.16,0,0,1-.84-.52,5.63,5.63,0,0,0-.8-.54,5,5,0,0,0-1.28-.39,6.87,6.87,0,0,0-1.36-.18,6.54,6.54,0,0,0-5.08,2,8.26,8.26,0,0,0,0,10.42A6.15,6.15,0,0,0,327.6,187a7.26,7.26,0,0,0,3.15-.52q.25-.13.72-.45a4.29,4.29,0,0,1,.84-.5,2.24,2.24,0,0,1,.95-.17,2.2,2.2,0,0,1,1.71.69,2.42,2.42,0,0,1-.59,3.72,9.43,9.43,0,0,1-3.2,1.44,16,16,0,0,1-4.23.55,10.94,10.94,0,0,1-5.86-1.56,10.43,10.43,0,0,1-3.91-4.3,13.31,13.31,0,0,1-1.39-6.12,13,13,0,0,1,1.45-6.23,10.76,10.76,0,0,1,4-4.26,11.36,11.36,0,0,1,5.88-1.53A13.18,13.18,0,0,1,333.09,168.93Z"/><path class="e" d="M339.53,164.94a2,2,0,0,1-.61-1.69v-.82a2,2,0,0,1,.65-1.69,4.93,4.93,0,0,1,4.2,0,2,2,0,0,1,.6,1.69v.82a2,2,0,0,1-.63,1.71,3.78,3.78,0,0,1-2.14.45A3.47,3.47,0,0,1,339.53,164.94Zm4,25.66a2.68,2.68,0,0,1-3.72,0,2.6,2.6,0,0,1-.74-1.88V170.86a2.59,2.59,0,0,1,.74-1.88,2.66,2.66,0,0,1,3.72,0,2.58,2.58,0,0,1,.73,1.88v17.86A2.6,2.6,0,0,1,343.51,190.6Z"/><path class="e" d="M366.94,169.32a10.92,10.92,0,0,1,3.83,4.26,13.4,13.4,0,0,1,1.4,6.19,13.62,13.62,0,0,1-1.38,6.2,10.61,10.61,0,0,1-3.79,4.28,9.62,9.62,0,0,1-5.29,1.54,9.26,9.26,0,0,1-3.91-.85,10.13,10.13,0,0,1-3.05-2.05v8.47a2.59,2.59,0,0,1-.74,1.88,2.47,2.47,0,0,1-1.86.76,2.52,2.52,0,0,1-1.86-.74,2.56,2.56,0,0,1-.73-1.9v-26.5a2.58,2.58,0,0,1,.73-1.88,2.66,2.66,0,0,1,3.72,0,2.59,2.59,0,0,1,.74,1.88V171a9,9,0,0,1,2.89-2.27,8.28,8.28,0,0,1,3.9-1A9.9,9.9,0,0,1,366.94,169.32ZM365.43,185a8.49,8.49,0,0,0,0-10.35,5.72,5.72,0,0,0-4.56-2.06,5.79,5.79,0,0,0-4.59,2.06,8.45,8.45,0,0,0,0,10.35,6,6,0,0,0,9.13,0Z"/><path class="e" d="M397.08,168.52a2.59,2.59,0,0,1,.73,1.91v18.29a2.6,2.6,0,0,1-.73,1.88,2.51,2.51,0,0,1-1.86.75,2.44,2.44,0,0,1-1.84-.73,2.71,2.71,0,0,1-.76-1.86,8.89,8.89,0,0,1-2.92,2.14,8.78,8.78,0,0,1-3.87.89,9.89,9.89,0,0,1-5.4-1.54A10.7,10.7,0,0,1,376.6,186a13.33,13.33,0,0,1-1.4-6.18,13.63,13.63,0,0,1,1.38-6.21,10.65,10.65,0,0,1,3.78-4.28,9.67,9.67,0,0,1,5.3-1.53,9.92,9.92,0,0,1,3.89.76,10,10,0,0,1,3.07,1.92v0a2.59,2.59,0,0,1,.74-1.88,2.47,2.47,0,0,1,1.86-.76A2.53,2.53,0,0,1,397.08,168.52Zm-6,16.46a8.46,8.46,0,0,0,0-10.36,6,6,0,0,0-9.13,0,8.5,8.5,0,0,0,0,10.36,5.74,5.74,0,0,0,4.56,2.05A5.82,5.82,0,0,0,391.07,185Z"/><path class="e" d="M408.29,190.6a2.56,2.56,0,0,1-1.88.75,2.43,2.43,0,0,1-1.81-.75,2.6,2.6,0,0,1-.74-1.88V162a2.58,2.58,0,0,1,2.64-2.64,2.45,2.45,0,0,1,1.82.75,2.62,2.62,0,0,1,.73,1.89v26.72A2.54,2.54,0,0,1,408.29,190.6Z"/></svg>