<svg xmlns="http://www.w3.org/2000/svg" viewBox="0 0 75 60"><defs><style>.a{fill:#99b9da;}</style></defs><title>user-check</title><path class="a" d="M26.25,30a15,15,0,1,0-15-15A15,15,0,0,0,26.25,30Zm10.5,3.75h-2a20.44,20.44,0,0,1-17.08,0h-2A15.75,15.75,0,0,0,0,49.5v4.88A5.62,5.62,0,0,0,5.62,60H46.88a5.62,5.62,0,0,0,5.62-5.62V49.5A15.75,15.75,0,0,0,36.75,33.75Zm37.85-15-3.26-3.29a1.38,1.38,0,0,0-2,0L57.09,27.59l-5.33-5.37a1.39,1.39,0,0,0-2,0L46.5,25.48a1.39,1.39,0,0,0,0,2l9.57,9.64a1.39,1.39,0,0,0,2,0L74.59,20.67A1.4,1.4,0,0,0,74.6,18.7Z"/></svg>